<?xml version="1.0" encoding="utf-8"?>
<!-- Generator: Adobe Illustrator 18.0.0, SVG Export Plug-In . SVG Version: 6.00 Build 0)  -->
<!DOCTYPE svg PUBLIC "-//W3C//DTD SVG 1.1//EN" "http://www.w3.org/Graphics/SVG/1.1/DTD/svg11.dtd">
<svg version="1.1" id="Calque_1" xmlns="http://www.w3.org/2000/svg" xmlns:xlink="http://www.w3.org/1999/xlink" x="0px" y="0px"
	 viewBox="0 0 21 25.6" enable-background="new 0 0 21 25.6" xml:space="preserve">
<g>
	<path fill="#E8AE01" d="M9.5,13.7c0.3,0.3,0.6,0.4,0.9,0.4c0.4,0,0.7-0.1,0.9-0.4l4.5-4.5c0.5-0.5,0.5-1.4,0-1.9s-1.4-0.5-1.9,0
		l-2,2v-8c0-0.7-0.6-1.3-1.3-1.3S9.3,0.6,9.3,1.3v8.2L7.2,7.4c-0.5-0.5-1.4-0.5-1.9,0s-0.5,1.4,0,1.9L9.5,13.7z"/>
	<path fill="#E8AE01" d="M19.7,13.3h-4.6c-0.7,0-1.3,0.6-1.3,1.3s0.6,1.3,1.3,1.3h3.3v7H2.6v-7h3.3c0.7,0,1.3-0.6,1.3-1.3
		s-0.6-1.3-1.3-1.3H1.3c-0.7,0-1.3,0.6-1.3,1.3v9.7c0,0.7,0.6,1.3,1.3,1.3h18.4c0.7,0,1.3-0.6,1.3-1.3v-9.7
		C21.1,13.9,20.5,13.3,19.7,13.3z"/>
</g>
</svg>
