<?xml version="1.0" encoding="utf-8"?>
<!-- Generator: Adobe Illustrator 18.0.0, SVG Export Plug-In . SVG Version: 6.00 Build 0)  -->
<!DOCTYPE svg PUBLIC "-//W3C//DTD SVG 1.1//EN" "http://www.w3.org/Graphics/SVG/1.1/DTD/svg11.dtd">
<svg version="1.1" id="Calque_1" xmlns="http://www.w3.org/2000/svg" xmlns:xlink="http://www.w3.org/1999/xlink" x="0px" y="0px"
	 viewBox="0 0 24 24" enable-background="new 0 0 24 24" xml:space="preserve">
<g>
	<path fill="#FFFFFF" d="M12,7c-2.7,0-5,2.2-5,5s2.2,5,5,5s5-2.2,5-5C17,9.3,14.7,7,12,7z"/>
	<path fill="#FFFFFF" d="M0,24h24V0l0,0H0V24z M12,19.6c-4.2,0-7.6-3.4-7.6-7.6S7.8,4.4,12,4.4s7.6,3.4,7.6,7.6S16.2,19.6,12,19.6z
		 M20,6c-1,0-1.9-0.8-1.9-1.9s0.8-1.9,1.9-1.9s1.9,0.8,1.9,1.9S21.1,6,20,6z"/>
</g>
</svg>
