<?xml version="1.0" encoding="utf-8"?>
<!-- Generator: Adobe Illustrator 18.0.0, SVG Export Plug-In . SVG Version: 6.00 Build 0)  -->
<!DOCTYPE svg PUBLIC "-//W3C//DTD SVG 1.1//EN" "http://www.w3.org/Graphics/SVG/1.1/DTD/svg11.dtd">
<svg version="1.1" id="Calque_1" xmlns="http://www.w3.org/2000/svg" xmlns:xlink="http://www.w3.org/1999/xlink" x="0px" y="0px"
	 viewBox="0 0 81.3 114.2" enable-background="new 0 0 81.3 114.2" xml:space="preserve">
<g>
	<path fill="#E8AD02" d="M26.9,75.6c-0.2-0.1-0.6-0.2-0.8-0.4c-2.5-1.1-4.9-2.8-7.1-5c-8-7.6-10.2-17-9.6-22.6
		c0.3-3.3,1.4-4.8,2-5.1c1-0.6,2.8-0.4,4.8,0.7c7.6,4,11.5,14.1,11.9,22.4c0.1,3.3,0.2,6.4,0,9.3L28,76.1L26.9,75.6z M67.5,58
		c1.2-5.1,1.4-10.2,0.8-15.1c2.4-0.6,4.3-2,5.6-3.9c3-4.6,1.4-11.1,0.4-14.2c8.9-8.1,6.9-16.7,6.8-17.1c-0.3-1.3-1.7-2.1-3-1.7
		c-1.3,0.3-2.1,1.7-1.7,3c0,0.1,1.6,6.8-6.4,13.1c0,0.1-0.1,0.2-0.2,0.2c-0.9-2-2.3-3.7-4.2-3.7c-1.6-0.1-2.9,0.9-3.9,2.3
		c-1.2-1.4-2.7-2.6-4.6-2.6c-0.8,0-1.5,0.3-2.2,0.7c0.7-6.5,0.2-13.6-6-18.5c-1-0.8-2.6-0.7-3.4,0.4c-0.8,1-0.7,2.6,0.4,3.4
		c6,4.7,4.5,13.1,3.2,20.4c0,0.2-0.1,0.4-0.1,0.6c-0.1,0-0.1-0.2-0.2-0.2c-2.4-2.2-5.3-3.3-8.5-2.9c-1.4,0.2-2.3,1.4-2.2,2.7
		c0.2,1.4,1.4,2.3,2.7,2.2c1.8-0.2,3.3,0.3,4.7,1.5c1.4,1.4,2.2,3.3,2.6,4.9c-0.1,2.7,0.3,5.2,2,7c0.7,0.7,1.4,1.2,2.3,1.7
		c1.8,0.8,4,1.2,6.7,1.4l0.3,1.3c0.4,3.7,0.2,7.5-0.7,11.2c-2.2,9.8-9.3,17.9-18.1,20.4c-0.7,0.2-1.4,0.4-2.1,0.5l-1.1,0.2l0.1-1.1
		c0.2-3.4,0.2-7,0-10.8c-0.8-16.1-9.7-26.3-16.9-30c-4.9-2.5-10.1-2.8-14-0.3c-3.5,2.2-5.8,6.5-6.4,12c-0.9,8.1,2,20.4,12.4,30.2
		c4,3.8,8.5,6.5,13.2,8l0.8,0.3l-0.3,0.8c-1.4,4.8-3.5,8.6-6.2,11.7c-4.9,5.4-10.7,6.6-12.8,6.9v4.7l0.1,4.6
		c2.8-0.3,11.8-1.7,19.3-9.8c4.2-4.5,7.2-10.3,9-17.3l0.2-0.7h0.7c2.2-0.1,4.5-0.6,6.7-1.3C54.9,81.7,64.5,71,67.5,58"/>
</g>
</svg>
