<?xml version="1.0" encoding="utf-8"?>
<!-- Generator: Adobe Illustrator 18.0.0, SVG Export Plug-In . SVG Version: 6.00 Build 0)  -->
<!DOCTYPE svg PUBLIC "-//W3C//DTD SVG 1.1//EN" "http://www.w3.org/Graphics/SVG/1.1/DTD/svg11.dtd">
<svg version="1.1" id="Calque_1" xmlns="http://www.w3.org/2000/svg" xmlns:xlink="http://www.w3.org/1999/xlink" x="0px" y="0px"
	 viewBox="0 0 127 127" enable-background="new 0 0 127 127" xml:space="preserve">
<g>
	<path fill="#E8AD02" d="M63.5,0C28.4,0,0,28.4,0,63.5C0,98.6,28.4,127,63.5,127c2.7,0,5.4-0.2,8-0.5c0-0.1,0-0.1,0.1-0.2
		c1-4.4,0.8-9.3-0.5-14.5l-0.2-0.9l-0.9,0.2c-5.2,1.1-10.9,1-16.8-0.4C38,107,28.7,97.1,25.1,89c-2.5-5.5-2.7-10.8-0.5-14.8
		c2.3-4.3,7.3-7,13.3-7.3c8.9-0.4,22.6,4.4,32.2,19.1c2.2,3.4,4.2,6.9,5.8,10.2l0.6,1.1l0.9-0.8c0.6-0.5,1.2-1.1,1.7-1.6
		c6.7-7.2,9.1-18.5,5.9-29c-1.2-4.1-3.1-7.7-5.4-11l-1-1.1c-2.6,1.3-5,2.2-7,2.4c-1.1,0.1-2.1,0-3.1-0.3c-2.7-0.8-4.3-3-5.7-5.5
		c-1.2-1.3-3-2.7-5.1-3.2c-1.9-0.5-3.6-0.1-5.2,1.1c-1.2,0.9-2.8,0.6-3.7-0.6c-0.9-1.2-0.6-2.8,0.6-3.7c2.9-2.1,6.2-2.8,9.6-1.9
		c0.1,0,0.2,0.1,0.3,0.1c-0.1-0.2-0.1-0.4-0.2-0.6c-2.7-7.6-5.8-16.3-14.1-17.4c-1.4-0.2-2.4-1.5-2.2-3c0.2-1.4,1.6-2.4,3-2.2
		c8.4,1.2,12.8,7.6,15.7,14.1c0.4-0.7,1-1.3,1.8-1.8c1.8-1,3.9-0.7,5.7,0c0.1-1.9,0.8-3.5,2.4-4.3c1.9-0.9,4.1-0.1,6,1.2
		c0-0.1,0-0.2,0.1-0.3c4.1-10.4-1.1-15.8-1.1-15.9c-1-1-1-2.7,0-3.7c1-1,2.7-1,3.7,0c0.3,0.3,6.9,7.3,2.9,19.7
		c2.6,2.4,7.6,7.7,7.3,13.7c-0.1,2.5-1.2,4.7-3.1,6.7c3.3,4.3,5.8,9.2,7.5,14.7c4.2,13.8,1,29-8.2,38.8c-1.7,1.8-3.6,3.5-5.7,4.8
		l-0.6,0.4l0.2,0.7c1.6,5.8,2.2,11.4,1.6,16.6c26.1-7.9,45-32.1,45-60.8C127,28.4,98.6,0,63.5,0z"/>
	<path fill="#E8AD02" d="M38.3,76.9c-2.5,0.1-4.3,0.9-4.9,2c-0.4,0.7-0.6,2.7,0.9,5.9c2.5,5.7,9.6,13.3,21.3,16.1
		c3.3,0.8,6.5,1.1,9.4,0.8c0.3,0,0.7-0.1,1-0.1l1.3-0.2l-0.6-1.2c-1.4-2.8-3.1-5.7-5-8.7C56.7,84,47.6,76.6,38.3,76.9z"/>
</g>
</svg>
