<?xml version="1.0" encoding="utf-8"?>
<!-- Generator: Adobe Illustrator 18.0.0, SVG Export Plug-In . SVG Version: 6.00 Build 0)  -->
<!DOCTYPE svg PUBLIC "-//W3C//DTD SVG 1.1//EN" "http://www.w3.org/Graphics/SVG/1.1/DTD/svg11.dtd">
<svg version="1.1" id="Calque_1" xmlns="http://www.w3.org/2000/svg" xmlns:xlink="http://www.w3.org/1999/xlink" x="0px" y="0px"
	 viewBox="0 0 231.2 229" enable-background="new 0 0 231.2 229" xml:space="preserve">
<path fill="#FFFFFF" d="M109.5,195.2c0,0-0.1,0-0.2,0.1c-0.1,0-0.1,0.1-0.2,0.1c-0.2,0.1-0.4,0.2-0.6,0.2c-0.1,0-0.3,0.1-0.4,0.1
	c-0.1,0-0.3,0.1-0.4,0.1c-0.2,0-0.3,0.1-0.5,0.1s-0.3,0.1-0.5,0.1c-0.3,0.1-0.7,0.1-1.1,0.2c-0.8,0.1-1.6,0.2-2.4,0.3
	c-3.3,0.4-6.6,0.5-6.6,0.5l0,0c0,0,0,0,0.1,0s0.2,0,0.4,0c0.4,0,0.9,0,1.5,0c0.3,0,0.6,0,1,0s0.7,0,1.1-0.1c0.4,0,0.8,0,1.2-0.1
	c0.4,0,0.8-0.1,1.2-0.1c0.1,0,0.1,0,0.2,0c0,0,0,0.1-0.1,0.2l-0.1,0.1c0,0-0.1,0.1-0.1,0.2c-0.1,0.1-0.2,0.2-0.3,0.3
	s-0.1,0.1-0.2,0.2c-0.1,0.1-0.1,0.1-0.2,0.2c-0.2,0.1-0.3,0.2-0.5,0.3s-0.4,0.2-0.6,0.3c-0.2,0.1-0.4,0.2-0.6,0.3
	c-0.9,0.4-1.8,0.6-2.4,0.8c-0.7,0.2-1.1,0.2-1.1,0.2l0,0c0,0,0,0,0.1,0s0.1,0,0.2,0c0.2,0,0.5,0,0.8-0.1c0.2,0,0.4,0,0.6-0.1
	c0.2,0,0.4-0.1,0.6-0.1s0.4-0.1,0.7-0.2c0.2-0.1,0.4-0.2,0.7-0.2c0.2-0.1,0.4-0.2,0.6-0.3s0.4-0.2,0.6-0.3c0.2-0.1,0.4-0.3,0.5-0.4
	c0.2-0.1,0.3-0.3,0.4-0.4c0.1-0.1,0.2-0.3,0.3-0.4c0-0.1,0.1-0.1,0.1-0.2c0-0.1,0-0.1,0.1-0.2c0-0.1,0.1-0.2,0.1-0.2
	c0.3,0,0.6-0.1,1-0.1c0.4-0.1,0.8-0.1,1.2-0.2c0.4-0.1,0.8-0.2,1.1-0.3s0.7-0.2,1-0.3c0.2,0,0.3-0.1,0.4-0.1c0.1,0,0.3-0.1,0.4-0.2
	c0.2-0.1,0.4-0.2,0.6-0.3C109.2,195.4,109.3,195.3,109.5,195.2L109.5,195.2L109.5,195.2C109.6,195.2,109.5,195.2,109.5,195.2z
	 M115.5,199.4c-0.1,0-0.2,0.1-0.3,0.2c-0.3,0.2-0.7,0.4-1.3,0.7c-0.3,0.1-0.5,0.3-0.9,0.4c-0.3,0.1-0.6,0.3-1,0.4
	c-0.2,0-0.3,0.1-0.5,0.1c-0.1,0-0.2,0-0.3,0.1c-0.1,0-0.2,0-0.3,0.1c-0.4,0.1-0.8,0.3-1.2,0.5s-0.7,0.4-1.1,0.6
	c-0.3,0.2-0.7,0.4-1,0.7c-0.3,0.2-0.6,0.5-0.9,0.7c-0.3,0.2-0.5,0.5-0.7,0.7c-0.4,0.4-0.8,0.8-0.9,1.1c-0.1,0.1-0.2,0.3-0.2,0.4
	s0,0.1,0,0.1l0,0c0,0,0,0,0.1-0.1c0-0.1,0.1-0.2,0.2-0.3c0.2-0.3,0.6-0.6,1-1c0.5-0.4,1-0.8,1.6-1.3c0.6-0.4,1.3-0.8,2-1.2
	c0.4-0.2,0.7-0.3,1.1-0.5c0.4-0.1,0.8-0.2,1.1-0.3c0.4-0.1,0.7-0.3,1-0.4c0.3-0.1,0.6-0.3,0.9-0.5c0.5-0.3,0.9-0.6,1.2-0.8
	S115.5,199.5,115.5,199.4L115.5,199.4C115.6,199.4,115.6,199.4,115.5,199.4z M118.1,207.9v-0.1c0-0.1,0-0.2,0-0.3
	c0-0.2-0.1-0.3-0.1-0.5s-0.1-0.3-0.2-0.4c0-0.1-0.1-0.3-0.2-0.3c0-0.1-0.1-0.2-0.2-0.3c0-0.1-0.1-0.1-0.1-0.1l0,0l0,0
	c0,0,0,0.1,0.1,0.2c0,0.1,0.1,0.2,0.1,0.3s0.1,0.2,0.1,0.3s0.1,0.3,0.1,0.4c0,0.2,0,0.3,0.1,0.5s0,0.3,0,0.5s0,0.4,0,0.5
	c0,0.4,0,0.7,0,1.1c0,0.3,0,0.7-0.1,0.9c0,0.3,0,0.5-0.1,0.6s0,0.3,0,0.3l0,0c0,0,0,0,0-0.1c0,0,0-0.1,0.1-0.2s0.1-0.2,0.1-0.3
	s0.1-0.2,0.1-0.4c0-0.1,0.1-0.3,0.1-0.4s0.1-0.3,0.1-0.5s0-0.3,0-0.5s0-0.4,0-0.5c0-0.2,0-0.4,0-0.5
	C118.1,208,118.1,207.9,118.1,207.9z M117.3,185.3c0.2,0,0.3-0.1,0.5-0.1c0.1,0,0.3-0.1,0.4-0.1c0.3-0.1,0.5-0.2,0.8-0.3
	c1-0.3,1.6-0.6,1.6-0.6l0,0c0,0-0.2,0-0.5,0.1c-0.1,0-0.3,0.1-0.5,0.1s-0.4,0.1-0.7,0.2c-0.3,0.1-0.5,0.1-0.8,0.2
	c-0.1,0-0.3,0.1-0.4,0.1c-0.1,0-0.3,0.1-0.5,0.1c-0.3,0.1-0.6,0.1-0.9,0.2c-0.3,0.1-0.6,0.1-1,0.2c-0.3,0.1-0.7,0.1-1,0.2
	c-0.3,0-0.6,0.1-0.9,0.1c-0.1,0-0.3,0-0.4,0c0,0,0,0-0.1,0s-0.2-0.1-0.3-0.1s-0.1,0-0.2-0.1s-0.1-0.1-0.2-0.1
	c-0.3-0.1-0.5-0.3-0.8-0.4c-0.3-0.2-0.5-0.4-0.7-0.7l0,0l0,0l0,0l-0.1-0.1c-0.1-0.1-0.1-0.2-0.2-0.2c-0.1-0.2-0.2-0.3-0.4-0.5
	c-0.3-0.3-0.5-0.6-0.8-0.8c-0.3-0.3-0.6-0.5-0.9-0.8c-0.3-0.3-0.6-0.5-0.9-0.7c-0.3-0.2-0.6-0.4-0.9-0.6c-0.3-0.2-0.6-0.3-0.8-0.5
	c-0.3-0.1-0.5-0.2-0.8-0.3s-0.4-0.1-0.6-0.1c-0.2,0-0.3,0-0.4,0c-0.1,0-0.1,0-0.1,0l0,0c0,0,0,0,0.1,0s0.2,0,0.4,0s0.4,0.1,0.6,0.2
	c0.2,0.1,0.5,0.2,0.7,0.3c1,0.5,2.3,1.5,3.4,2.6c0.3,0.3,0.5,0.5,0.8,0.8s0.5,0.6,0.7,0.9s0.5,0.5,0.8,0.7s0.6,0.3,0.8,0.4
	c0.2,0.1,0.3,0.1,0.5,0.2h-0.1c-0.1,0-0.3,0-0.4,0c-0.1,0-0.3,0-0.4,0c-0.3,0-0.5,0-0.7,0s-0.4,0-0.5,0s-0.3,0-0.3,0
	c-0.1,0-0.1,0-0.1,0l0,0c0,0,0.2,0,0.5,0.1c0.1,0,0.3,0.1,0.5,0.1s0.4,0,0.7,0.1c0.1,0,0.3,0,0.4,0c0.1,0,0.3,0,0.4,0
	c0.1,0,0.1,0,0.2,0c0.1,0,0.2,0,0.2,0c0.2,0,0.3,0,0.5,0c0.1,0,0.2,0,0.2,0c0.1,0,0.2,0,0.3,0c0.2,0,0.3,0,0.5,0
	c0.3,0,0.7-0.1,1-0.2c0.3-0.1,0.7-0.1,1-0.2C116.6,185.4,117,185.4,117.3,185.3z M77.1,29.3c0,1.1-0.1,2.3-0.1,3.5V34l0.5-1.1
	c0.4-0.7,0.8-1.5,1.2-2.2c0.4-0.7,0.8-1.4,1.3-2.1s0.9-1.4,1.4-2.1s1-1.3,1.5-2c0.5-0.6,1.1-1.2,1.6-1.8c0.6-0.6,1.2-1.1,1.8-1.6
	l0.5-0.4c0.2-0.1,0.3-0.2,0.5-0.3c0.1-0.1,0.2-0.1,0.3-0.2l0.3-0.2c0.2-0.1,0.3-0.2,0.5-0.3c0.7-0.4,1.4-0.7,2.2-0.9
	c0.8-0.2,1.6-0.3,2.3-0.3c0.1,0,0.2,0,0.3,0h0.3h0.3c0.1,0,0.2,0,0.3,0c0.2,0,0.4,0.1,0.5,0.1c0.2,0,0.3,0.1,0.4,0.2
	c0.1,0.1,0.1,0.2,0.2,0.3c0,0.1,0,0.3,0,0.4c-0.1,0.3-0.3,0.7-0.5,1c-0.4,0.7-0.9,1.3-1.5,2c-0.3,0.3-0.5,0.7-0.8,1
	c-0.1,0.2-0.2,0.4-0.3,0.6c-0.1,0.2-0.2,0.4-0.3,0.7c0,0.1,0,0.3,0,0.4c0,0.2,0.1,0.3,0.2,0.4s0.2,0.2,0.4,0.2c0.1,0,0.1,0,0.2,0
	s0.1,0,0.2,0c0.5,0.1,0.9,0,1.3,0c0.2,0,0.4-0.1,0.6-0.1c0.1,0,0.2,0,0.3-0.1h0.2h0.1h0.1l1.2-0.3c0.8-0.2,1.6-0.5,2.4-0.7
	c-0.8,0.2-1.6,0.3-2.5,0.5l-1.2,0.2h-0.1h-0.1h-0.2c-0.1,0-0.2,0-0.3,0c-0.2,0-0.4,0-0.6,0c-0.4,0-0.8,0-1.2,0
	c-0.2,0-0.3-0.1-0.4-0.2V25c0-0.1,0-0.1,0-0.2c0-0.2,0.1-0.3,0.2-0.5s0.2-0.3,0.3-0.5c0.3-0.3,0.5-0.6,0.8-1c0.5-0.6,1.1-1.3,1.6-2
	c0.2-0.4,0.5-0.7,0.6-1.2c0.1-0.2,0.1-0.5,0.1-0.8s-0.2-0.6-0.4-0.8c-0.2-0.2-0.5-0.3-0.7-0.4c-0.2-0.1-0.5-0.1-0.7-0.2
	c-0.1,0-0.2,0-0.3,0h-0.3h-0.3c-0.1,0-0.2,0-0.3,0c-0.9,0-1.8,0.1-2.6,0.3c-0.8,0.3-1.6,0.6-2.4,1s-1.5,0.9-2.1,1.5
	c-0.7,0.5-1.3,1.1-1.9,1.7c-0.3,0.3-0.6,0.6-0.9,0.9s-0.5,0.6-0.8,1c-0.5,0.7-1,1.4-1.5,2c-0.5,0.7-0.9,1.4-1.3,2.1
	s-0.8,1.5-1.2,2.2c-0.2,0.4-0.4,0.8-0.6,1.2c0-0.8,0-1.5-0.1-2.3l-0.1-1.7l-0.1-1.7l-0.1,1.7L77.1,29.3z M95.2,203.3L95.2,203.3H95
	h-0.2c-0.1,0-0.2,0-0.3-0.1c-0.2,0-0.4-0.1-0.6-0.1c-0.4,0-0.8-0.1-1.3,0c-0.1,0-0.2,0-0.4,0.1c-0.1,0-0.3,0.1-0.4,0.2
	c-0.1,0.1-0.2,0.3-0.2,0.4c0,0.1,0,0.3,0,0.4c0.1,0.3,0.2,0.5,0.3,0.7c0.1,0.2,0.2,0.4,0.3,0.6c0.2,0.4,0.5,0.7,0.8,1
	c0.5,0.7,1,1.3,1.5,2c0.2,0.3,0.4,0.7,0.5,1c0,0.2,0.1,0.3,0,0.4c0,0.1-0.1,0.2-0.2,0.3s-0.2,0.2-0.4,0.2s-0.3,0.1-0.5,0.1
	c-0.1,0-0.2,0-0.3,0h-0.3H93c-0.1,0-0.2,0-0.3,0c-0.8,0-1.6-0.1-2.3-0.3c-0.8-0.2-1.5-0.5-2.2-0.9c-0.2-0.1-0.3-0.2-0.5-0.3
	l-0.3-0.2l-0.3-0.2c-0.2-0.1-0.3-0.2-0.5-0.3l-0.5-0.4c-0.6-0.5-1.2-1.1-1.8-1.6c-0.3-0.3-0.6-0.6-0.8-0.9c-0.3-0.3-0.5-0.6-0.8-0.9
	c-0.5-0.6-1-1.3-1.5-2L81,202l-0.3-0.5c-0.2-0.3-0.5-0.7-0.7-1c-0.4-0.7-0.9-1.4-1.3-2.1c-0.4-0.7-0.8-1.4-1.2-2.2L77,195v1.2
	c0,1.2,0.1,2.4,0.1,3.6l0.1,1.8l0.1,1.6c-0.1,0-0.8-0.4-2.3-1.1c-0.2-0.1-0.4-0.2-0.6-0.3c-0.1,0-0.2-0.1-0.3-0.2s-0.2-0.1-0.3-0.2
	c-0.5-0.2-0.9-0.5-1.5-0.8c-0.3-0.1-0.5-0.3-0.8-0.4c-0.1-0.1-0.3-0.1-0.4-0.2c-0.1-0.1-0.3-0.2-0.4-0.3c-0.6-0.3-1.2-0.7-1.9-1.1
	c-2.6-1.5-5.8-3.5-9.3-6c-0.9-0.6-1.7-1.3-2.6-2c-0.2-0.2-0.5-0.3-0.7-0.5s-0.4-0.4-0.7-0.5c-0.5-0.4-0.9-0.7-1.4-1.1
	c-0.2-0.2-0.5-0.4-0.7-0.6c-0.2-0.2-0.5-0.4-0.7-0.6c-0.5-0.4-0.9-0.8-1.4-1.2s-0.9-0.9-1.4-1.3c-0.2-0.2-0.5-0.4-0.7-0.7
	c-0.2-0.2-0.5-0.4-0.7-0.7c-3.7-3.7-7.5-8-11-12.8c-0.4-0.6-0.9-1.2-1.3-1.9c-0.2-0.3-0.4-0.6-0.7-0.9c-0.2-0.3-0.4-0.6-0.6-1
	c-0.4-0.6-0.8-1.3-1.3-2c-0.4-0.7-0.8-1.4-1.2-2c-0.2-0.3-0.4-0.7-0.6-1c-0.2-0.3-0.4-0.7-0.6-1.1c-0.4-0.7-0.8-1.4-1.1-2.1
	c-0.7-1.4-1.5-2.9-2.1-4.4c-0.2-0.4-0.3-0.8-0.5-1.1l-0.3-0.6l-0.2-0.6c-0.3-0.8-0.6-1.5-0.9-2.3c-0.2-0.4-0.3-0.8-0.4-1.2
	c-0.1-0.4-0.3-0.8-0.4-1.2c-0.1-0.4-0.3-0.8-0.4-1.2c-0.1-0.4-0.3-0.8-0.4-1.2c-0.3-0.8-0.5-1.6-0.8-2.4c-0.2-0.8-0.5-1.6-0.7-2.4
	c-0.3-0.8-0.4-1.6-0.6-2.5s-0.4-1.7-0.6-2.5c-0.2-0.8-0.4-1.7-0.5-2.5c-0.2-0.8-0.3-1.7-0.4-2.6c-0.1-0.4-0.2-0.8-0.2-1.3
	c-0.1-0.4-0.1-0.9-0.2-1.3l-0.2-1.3c-0.1-0.4-0.1-0.9-0.2-1.3c-0.1-0.9-0.2-1.7-0.3-2.6c0-0.2,0-0.4-0.1-0.7v-0.7l-0.1-1.3l-0.1-1.3
	c0-0.4,0-0.9,0-1.3v-2.6v-2.6c0-0.4,0-0.9,0-1.3l0.1-1.3l0.1-1.3V107c0-0.2,0-0.4,0.1-0.7c0.1-0.9,0.2-1.7,0.3-2.6
	c0-0.4,0.1-0.9,0.2-1.3l0.2-1.3c0.1-0.4,0.1-0.9,0.2-1.3c0.1-0.4,0.1-0.8,0.2-1.3c0.1-0.8,0.3-1.7,0.4-2.6c0.2-0.8,0.4-1.7,0.5-2.5
	c0.2-0.8,0.4-1.7,0.6-2.5c0.2-0.8,0.4-1.7,0.6-2.5c0.2-0.8,0.5-1.6,0.7-2.4c0.3-0.8,0.5-1.6,0.8-2.4c0.1-0.4,0.3-0.8,0.4-1.2
	s0.3-0.8,0.4-1.2c0.1-0.4,0.3-0.8,0.4-1.2c0.1-0.4,0.3-0.8,0.4-1.2c0.3-0.8,0.6-1.5,0.9-2.3l0.2-0.6l0.3-0.6
	c0.2-0.4,0.3-0.8,0.5-1.1c0.7-1.5,1.4-3,2.1-4.4c0.4-0.7,0.8-1.4,1.1-2.1c0.2-0.3,0.4-0.7,0.6-1.1c0.2-0.3,0.4-0.7,0.6-1
	c0.4-0.7,0.8-1.4,1.2-2c0.4-0.7,0.8-1.3,1.3-2c0.2-0.3,0.4-0.6,0.6-1c0.2-0.3,0.4-0.6,0.7-0.9c0.4-0.6,0.9-1.3,1.3-1.9
	c3.5-4.9,7.3-9.2,11-12.8c0.2-0.2,0.5-0.5,0.7-0.7s0.5-0.4,0.7-0.7c0.5-0.4,0.9-0.9,1.4-1.3s0.9-0.8,1.4-1.2
	c0.2-0.2,0.5-0.4,0.7-0.6s0.5-0.4,0.7-0.6c0.5-0.4,0.9-0.8,1.4-1.1c0.2-0.2,0.5-0.4,0.7-0.5c0.2-0.2,0.4-0.4,0.7-0.5
	c0.9-0.7,1.8-1.4,2.6-2c3.4-2.5,6.6-4.5,9.3-6c0.7-0.4,1.3-0.7,1.9-1.1c0.2-0.1,0.3-0.2,0.4-0.3c0.1-0.1,0.3-0.2,0.4-0.2
	c0.3-0.1,0.6-0.3,0.8-0.4c0.5-0.3,1-0.5,1.5-0.8c0.1-0.1,0.2-0.1,0.3-0.2c0.1,0,0.2-0.1,0.3-0.2c0.2-0.1,0.4-0.2,0.6-0.3
	c1.5-0.7,2.3-1.1,2.3-1.1s-0.8,0.4-2.3,1c-0.2,0.1-0.4,0.2-0.6,0.3c-0.1,0-0.2,0.1-0.3,0.1c-0.1,0-0.2,0.1-0.3,0.2
	c-0.5,0.2-1,0.5-1.5,0.7c-0.3,0.1-0.5,0.3-0.8,0.4c-0.1,0.1-0.3,0.1-0.4,0.2s-0.3,0.2-0.4,0.2c-0.6,0.3-1.2,0.7-1.9,1
	c-2.7,1.5-5.9,3.4-9.4,5.9s-7.3,5.5-11.1,9.2c-3.8,3.7-7.6,7.9-11.2,12.8c-0.4,0.6-0.9,1.2-1.3,1.9c-0.2,0.3-0.4,0.6-0.7,0.9
	c-0.2,0.3-0.4,0.6-0.6,1c-0.4,0.6-0.8,1.3-1.3,2c-0.4,0.7-0.8,1.4-1.2,2c-0.2,0.3-0.4,0.7-0.6,1c-0.2,0.3-0.4,0.7-0.6,1.1
	c-0.4,0.7-0.8,1.4-1.2,2.1c-0.7,1.5-1.5,2.9-2.2,4.4c-0.2,0.4-0.3,0.8-0.5,1.1l-0.3,0.6l-0.2,0.6c-0.3,0.8-0.6,1.5-1,2.3
	c-0.2,0.4-0.3,0.8-0.5,1.2c-0.1,0.4-0.3,0.8-0.4,1.2c-0.1,0.4-0.3,0.8-0.4,1.2s-0.3,0.8-0.4,1.2c-1.1,3.2-2,6.5-2.8,9.9
	c-0.2,0.8-0.4,1.7-0.5,2.6c-0.2,0.9-0.3,1.7-0.5,2.6c-0.1,0.4-0.2,0.9-0.2,1.3c-0.1,0.4-0.1,0.9-0.2,1.3l-0.2,1.3
	c-0.1,0.4-0.1,0.9-0.2,1.3c-0.1,0.9-0.2,1.8-0.3,2.6c0,0.2,0,0.4-0.1,0.7v0.7l-0.1,1.3l-0.1,1.3c0,0.4,0,0.9,0,1.3v2.6v2.7
	c0,0.4,0,0.9,0,1.3l0.1,1.3l0.1,1.3v0.7c0,0.2,0,0.4,0.1,0.7c0.1,0.9,0.2,1.8,0.3,2.6c0,0.4,0.1,0.9,0.2,1.3l0.2,1.3
	c0.1,0.4,0.1,0.9,0.2,1.3c0.1,0.4,0.1,0.9,0.2,1.3c0.2,0.9,0.3,1.7,0.5,2.6c0.2,0.8,0.4,1.7,0.5,2.6c0.8,3.4,1.7,6.7,2.8,9.9
	c0.1,0.4,0.3,0.8,0.4,1.2c0.1,0.4,0.3,0.8,0.4,1.2s0.3,0.8,0.4,1.2c0.2,0.4,0.3,0.8,0.5,1.2c0.3,0.8,0.6,1.6,1,2.3l0.2,0.6l0.3,0.6
	c0.2,0.4,0.3,0.8,0.5,1.1c0.7,1.5,1.4,3,2.2,4.4c0.4,0.7,0.8,1.4,1.2,2.1c0.2,0.3,0.4,0.7,0.6,1.1c0.2,0.3,0.4,0.7,0.6,1
	c0.4,0.7,0.8,1.4,1.2,2c0.4,0.7,0.9,1.3,1.3,2c0.2,0.3,0.4,0.6,0.6,1c0.2,0.3,0.4,0.6,0.7,0.9c0.4,0.6,0.9,1.3,1.3,1.9
	c3.6,4.9,7.4,9.2,11.2,12.8c3.8,3.7,7.6,6.7,11.1,9.2s6.7,4.4,9.4,5.9c0.7,0.4,1.3,0.7,1.9,1c0.2,0.1,0.3,0.2,0.4,0.2
	c0.2,0.1,0.3,0.1,0.4,0.2c0.3,0.1,0.6,0.3,0.8,0.4c0.5,0.3,1,0.5,1.5,0.7c0.1,0.1,0.2,0.1,0.3,0.2c0.1,0,0.2,0.1,0.3,0.1
	c0.2,0.1,0.4,0.2,0.6,0.3c1.4,0.6,2.2,1,2.3,1v0.1l0.1-1.8l0.1-1.8c0-0.8,0-1.6,0.1-2.4c0.2,0.4,0.4,0.8,0.6,1.2
	c0.4,0.8,0.8,1.5,1.2,2.2c0.4,0.7,0.9,1.4,1.3,2.1c0.5,0.7,1,1.4,1.5,2c0.3,0.3,0.5,0.7,0.8,1s0.6,0.6,0.9,0.9
	c0.6,0.6,1.2,1.2,1.9,1.7c0.7,0.5,1.4,1,2.1,1.5c0.8,0.4,1.6,0.8,2.4,1s1.7,0.3,2.6,0.3c0.1,0,0.2,0,0.3,0h0.3h0.3
	c0.1,0,0.2,0,0.3,0c0.2,0,0.5-0.1,0.7-0.2c0.2-0.1,0.5-0.2,0.7-0.4s0.4-0.5,0.4-0.8s0-0.6-0.1-0.8c-0.2-0.5-0.4-0.8-0.6-1.2
	c-0.5-0.7-1-1.4-1.6-2c-0.3-0.3-0.5-0.6-0.8-1c-0.1-0.2-0.2-0.3-0.3-0.5c-0.1-0.2-0.2-0.3-0.2-0.5c0-0.1,0-0.1,0-0.2v-0.1
	c0.1-0.1,0.2-0.2,0.4-0.2c0.4-0.1,0.8-0.1,1.2,0c0.2,0,0.4,0,0.6,0c0.1,0,0.2,0,0.3,0H95h0.1h0.1l1.2,0.2c0.8,0.2,1.6,0.3,2.5,0.5
	c-0.8-0.2-1.6-0.5-2.4-0.7L95.2,203.3z M124.9,187.5c0,0-0.1,0-0.2,0C124.7,187.5,124.8,187.5,124.9,187.5
	C124.8,187.5,124.9,187.5,124.9,187.5z M125.9,187.4c0.1,0,0.2,0,0.3-0.1s0.2,0,0.3-0.1c0.1,0,0.2-0.1,0.3-0.1s0.2-0.1,0.3-0.1
	s0.2-0.1,0.3-0.1s0.2-0.1,0.3-0.2h0.1l0,0l0,0l0,0l0,0l0,0l0.1-0.1l0.3-0.1c0.2-0.1,0.3-0.1,0.5-0.2c0.2-0.1,0.4-0.1,0.5-0.2
	c0.2,0,0.4-0.1,0.6-0.1c0.2,0,0.4-0.1,0.6-0.1c0.2,0,0.4-0.1,0.5-0.1c0.2,0,0.4,0,0.5-0.1c0.2,0,0.3,0,0.5-0.1c0.3,0,0.7-0.1,1-0.1
	s0.6,0,0.8-0.1c0.2,0,0.5,0,0.6,0c0.3,0,0.5,0,0.5,0l0,0c0,0-0.2,0-0.5,0c-0.2,0-0.4,0-0.6,0s-0.5,0-0.8,0s-0.6,0-1,0
	c-0.2,0-0.3,0-0.5,0s-0.4,0-0.5,0.1c-0.2,0-0.4,0-0.6,0.1c-0.2,0-0.4,0.1-0.6,0.1c-0.2,0-0.4,0.1-0.6,0.1c-0.2,0-0.4,0.1-0.6,0.2
	c-0.2,0.1-0.4,0.2-0.5,0.2c-0.2,0.1-0.3,0.2-0.5,0.3c-0.1,0-0.2,0.1-0.3,0.1s-0.2,0.1-0.3,0.1s-0.2,0.1-0.3,0.1s-0.2,0.1-0.3,0.1
	c-0.2,0.1-0.4,0.1-0.5,0.2c-0.2,0-0.3,0.1-0.5,0.1c-0.3,0-0.3,0.3-0.5,0.3c0.2,0,0.3,0,0.5,0C125.6,187.5,125.7,187.4,125.9,187.4z
	 M213.8,111.2l-0.1-1.3l-0.1-1.3v-0.7c0-0.2,0-0.4-0.1-0.7c-0.1-0.9-0.2-1.8-0.3-2.6c0-0.4-0.1-0.9-0.2-1.3l0-1.3
	c-0.1-0.4-0.1-0.9-0.2-1.3c-0.1-0.4-0.1-0.9-0.2-1.3c-0.2-0.9-0.3-1.7-0.5-2.6c-0.2-0.8-0.4-1.7-0.5-2.6c-0.8-3.4-1.7-6.7-2.8-9.9
	c-0.1-0.4-0.3-0.8-0.4-1.2c-0.1-0.4-0.3-0.8-0.4-1.2c-0.1-0.4-0.3-0.8-0.4-1.2c-0.2-0.4-0.3-0.8-0.5-1.2c-0.3-0.8-0.6-1.6-1-2.3
	l-0.2-0.6l-0.3-0.6c-0.2-0.4-0.3-0.8-0.5-1.1c-0.7-1.5-1.4-3-2.2-4.4c-0.4-0.7-0.8-1.4-1.2-2.1c-0.2-0.3-0.4-0.7-0.6-1.1
	c-0.2-0.3-0.4-0.7-0.6-1c-0.4-0.7-0.8-1.4-1.2-2c-0.4-0.7-0.9-1.3-1.3-2c-0.2-0.3-0.4-0.6-0.6-1c-0.2-0.3-0.4-0.6-0.7-0.9
	c-0.4-0.6-0.9-1.3-1.3-1.9c-3.6-4.9-7.4-9.2-11.2-12.8c-3.8-3.7-7.6-6.7-11.1-9.2s-6.7-4.4-9.4-5.9c-0.7-0.4-1.3-0.7-1.9-1
	c-0.2-0.1-0.3-0.2-0.4-0.2c-0.1-0.1-0.3-0.1-0.4-0.2c-0.3-0.1-0.6-0.3-0.8-0.4c-0.5-0.3-1-0.5-1.5-0.7c-0.1-0.1-0.2-0.1-0.3-0.2
	s-0.2-0.1-0.3-0.1c-0.2-0.1-0.4-0.2-0.6-0.3c-1.5-0.7-2.3-1-2.3-1s0.8,0.4,2.3,1.1c0.2,0.1,0.4,0.2,0.6,0.3c0.1,0,0.2,0.1,0.3,0.2
	s0.2,0.1,0.3,0.2c0.5,0.2,0.9,0.5,1.5,0.8c0.3,0.1,0.5,0.3,0.8,0.4c0.1,0.1,0.3,0.1,0.4,0.2c0.1,0.1,0.3,0.2,0.4,0.3
	c0.6,0.3,1.2,0.7,1.9,1.1c2.6,1.5,5.8,3.5,9.3,6c0.9,0.6,1.7,1.3,2.6,2c0.2,0.2,0.5,0.3,0.7,0.5s0.4,0.4,0.7,0.5
	c0.5,0.4,0.9,0.7,1.4,1.1c0.2,0.2,0.5,0.4,0.7,0.6s0.5,0.4,0.7,0.6c0.5,0.4,0.9,0.8,1.4,1.2c0.5,0.4,0.9,0.9,1.4,1.3
	c0.2,0.2,0.5,0.4,0.7,0.7c0.2,0.2,0.5,0.4,0.7,0.7c3.7,3.7,7.5,8,11,12.8c0.4,0.6,0.9,1.2,1.3,1.9c0.2,0.3,0.4,0.6,0.7,0.9
	c0.2,0.3,0.4,0.6,0.6,1c0.4,0.6,0.8,1.3,1.3,2c0.4,0.7,0.8,1.4,1.2,2c0.2,0.3,0.4,0.7,0.6,1s0.4,0.7,0.6,1.1
	c0.4,0.7,0.8,1.4,1.1,2.1c0.7,1.4,1.5,2.9,2.1,4.4c0.2,0.4,0.3,0.8,0.5,1.1l0.3,0.6l0.2,0.6c0.3,0.8,0.6,1.5,0.9,2.3
	c0.2,0.4,0.3,0.8,0.4,1.2c0.1,0.4,0.3,0.8,0.4,1.2c0.1,0.4,0.3,0.8,0.4,1.2c0.1,0.4,0.3,0.8,0.4,1.2c0.3,0.8,0.5,1.6,0.8,2.4
	c0.2,0.8,0.5,1.6,0.7,2.4c0.3,0.8,0.4,1.6,0.6,2.5s0.4,1.7,0.6,2.5c0.2,0.8,0.4,1.7,0.5,2.5c0.2,0.8,0.3,1.7,0.4,2.6
	c0.1,0.4,0.2,0.8,0.2,1.3c0.1,0.4,0.1,0.9,0.2,1.3l0.2,1.3c0.1,0.4,0.1,0.9,0.2,1.3c0.1,0.9,0.2,1.7,0.3,2.6c0,0.2,0,0.4,0.1,0.7
	v0.7l0.1,1.3l0.1,1.3c0,0.2,0,0.4,0,0.7v0.7v2.6v2.6c0,0.4,0,0.9,0,1.3l-0.1,1.3l-0.1,1.3v0.7c0,0.2,0,0.4-0.1,0.7
	c-0.1,0.9-0.2,1.7-0.3,2.6c0,0.4-0.1,0.9-0.2,1.3l-0.2,1.3c-0.1,0.4-0.1,0.9-0.2,1.3s-0.1,0.8-0.2,1.3c-0.1,0.8-0.3,1.7-0.4,2.6
	c-0.2,0.8-0.4,1.7-0.5,2.5c-0.2,0.8-0.4,1.7-0.6,2.5c-0.2,0.8-0.4,1.7-0.6,2.5c-0.2,0.8-0.5,1.6-0.7,2.4c-0.3,0.8-0.5,1.6-0.8,2.4
	c-0.1,0.4-0.3,0.8-0.4,1.2c-0.1,0.4-0.3,0.8-0.4,1.2c-0.1,0.4-0.3,0.8-0.4,1.2c-0.1,0.4-0.3,0.8-0.4,1.2c-0.3,0.8-0.6,1.5-0.9,2.3
	l-0.2,0.6l-0.3,0.6c-0.2,0.4-0.3,0.8-0.5,1.1c-0.7,1.5-1.4,3-2.1,4.4c-0.4,0.7-0.8,1.4-1.1,2.1c-0.2,0.3-0.4,0.7-0.6,1.1
	c-0.2,0.3-0.4,0.7-0.6,1c-0.4,0.7-0.8,1.4-1.2,2c-0.4,0.7-0.8,1.3-1.3,2c-0.2,0.3-0.4,0.6-0.6,1c-0.2,0.3-0.4,0.6-0.7,0.9
	c-0.4,0.6-0.9,1.3-1.3,1.9c-3.5,4.9-7.3,9.2-11,12.8c-0.2,0.2-0.5,0.5-0.7,0.7s-0.5,0.4-0.7,0.7c-0.5,0.4-0.9,0.9-1.4,1.3
	c-0.5,0.4-0.9,0.8-1.4,1.2c-0.2,0.2-0.5,0.4-0.7,0.6c-0.2,0.2-0.5,0.4-0.7,0.6c-0.5,0.4-0.9,0.8-1.4,1.1c-0.2,0.2-0.5,0.4-0.7,0.5
	s-0.4,0.4-0.7,0.5c-0.9,0.7-1.8,1.4-2.6,2c-3.4,2.5-6.6,4.5-9.3,6c-0.7,0.4-1.3,0.7-1.9,1.1c-0.2,0.1-0.3,0.2-0.4,0.3
	c-0.1,0.1-0.3,0.2-0.4,0.2c-0.3,0.1-0.6,0.3-0.8,0.4c-0.5,0.3-1,0.5-1.5,0.8c-0.1,0.1-0.2,0.1-0.3,0.2c-0.1,0-0.2,0.1-0.3,0.2
	c-0.2,0.1-0.4,0.2-0.6,0.3c-1.4,0.7-2.2,1-2.3,1.1l0.1-1.6l0.1-1.8c0-1.2,0.1-2.4,0.1-3.6v-1.2l-0.5,1.1c-0.4,0.7-0.8,1.5-1.2,2.2
	s-0.8,1.4-1.3,2.1c-0.2,0.3-0.5,0.7-0.7,1l-0.3,0.5l-0.4,0.5c-0.5,0.7-1,1.3-1.5,2c-0.3,0.3-0.5,0.6-0.8,0.9
	c-0.3,0.3-0.5,0.6-0.8,0.9c-0.6,0.6-1.2,1.1-1.8,1.6l-0.5,0.4c-0.2,0.1-0.3,0.2-0.5,0.3l-0.3,0.2l-0.3,0.2c-0.2,0.1-0.3,0.2-0.5,0.3
	c-0.7,0.4-1.4,0.7-2.2,0.9s-1.6,0.3-2.3,0.3c-0.1,0-0.2,0-0.3,0H139h-0.3c-0.1,0-0.2,0-0.3,0c-0.2,0-0.4-0.1-0.5-0.1
	c-0.2,0-0.3-0.1-0.4-0.2c-0.1-0.1-0.1-0.2-0.2-0.3c0-0.1,0-0.3,0-0.4c0.1-0.3,0.3-0.7,0.5-1c0.4-0.7,0.9-1.3,1.5-2
	c0.3-0.3,0.5-0.7,0.8-1c0.1-0.2,0.2-0.4,0.3-0.6c0.1-0.2,0.2-0.4,0.3-0.7c0-0.1,0-0.3,0-0.4c0-0.2-0.1-0.3-0.2-0.4
	c-0.1-0.1-0.2-0.2-0.4-0.2c-0.1,0-0.1,0-0.2,0c-0.1,0-0.1,0-0.2,0c-0.5-0.1-0.9,0-1.3,0c-0.2,0-0.4,0.1-0.6,0.1
	c-0.1,0-0.2,0-0.3,0.1h-0.2h-0.1h-0.1l-1.2,0.3c-0.8,0.2-1.6,0.5-2.4,0.7c0.8-0.2,1.6-0.3,2.5-0.5l1.2-0.2h0.1h0.1h0.2
	c0.1,0,0.2,0,0.3,0c0.2,0,0.4,0,0.6,0c0.4,0,0.8,0,1.2,0c0.2,0,0.3,0.1,0.4,0.2v0.1c0,0.1,0,0.1,0,0.2c0,0.2-0.1,0.3-0.2,0.5
	c-0.1,0.2-0.2,0.3-0.3,0.5c-0.3,0.3-0.5,0.6-0.8,1c-0.5,0.6-1.1,1.3-1.6,2c-0.2,0.4-0.5,0.7-0.6,1.2c-0.1,0.2-0.1,0.5-0.1,0.8
	s0.2,0.6,0.4,0.8s0.5,0.3,0.7,0.4c0.2,0.1,0.5,0.1,0.7,0.2c0.1,0,0.2,0,0.3,0h0.3h0.3c0.1,0,0.2,0,0.3,0c0.9,0,1.8-0.1,2.6-0.3
	c0.8-0.3,1.6-0.6,2.4-1c0.8-0.4,1.5-0.9,2.1-1.5c0.7-0.5,1.3-1.1,1.9-1.7c0.3-0.3,0.6-0.6,0.9-0.9c0.3-0.3,0.5-0.6,0.8-1
	c0.5-0.7,1-1.4,1.5-2c0.5-0.7,0.9-1.4,1.3-2.1c0.4-0.7,0.8-1.5,1.2-2.2c0.2-0.4,0.4-0.8,0.6-1.2c0,0.8,0,1.6,0.1,2.4l0.1,1.8
	l0.1,1.8v-0.1c0.1,0,0.9-0.4,2.3-1c0.2-0.1,0.4-0.2,0.6-0.3c0.1,0,0.2-0.1,0.3-0.1s0.2-0.1,0.3-0.2c0.5-0.2,1-0.5,1.5-0.7
	c0.3-0.1,0.5-0.3,0.8-0.4c0.1-0.1,0.3-0.1,0.4-0.2c0.1-0.1,0.3-0.2,0.4-0.2c0.6-0.3,1.2-0.7,1.9-1c2.7-1.5,5.9-3.4,9.4-5.9
	s7.3-5.5,11.1-9.2s7.6-7.9,11.2-12.8c0.4-0.6,0.9-1.2,1.3-1.9c0.2-0.3,0.4-0.6,0.7-0.9c0.2-0.3,0.4-0.6,0.6-1c0.4-0.7,0.8-1.3,1.3-2
	c0.4-0.7,0.8-1.4,1.2-2c0.2-0.3,0.4-0.7,0.6-1c0.2-0.3,0.4-0.7,0.6-1.1c0.4-0.7,0.8-1.4,1.2-2.1c0.7-1.5,1.5-2.9,2.2-4.4
	c0.2-0.4,0.3-0.8,0.5-1.1l0.3-0.6l0.2-0.6c0.3-0.8,0.6-1.5,1-2.3c0.2-0.4,0.3-0.8,0.5-1.2c0.1-0.4,0.3-0.8,0.4-1.2
	c0.1-0.4,0.3-0.8,0.4-1.2c0.1-0.4,0.3-0.8,0.4-1.2c1.1-3.2,2-6.5,2.8-9.9c0.2-0.8,0.4-1.7,0.5-2.6c0.2-0.9,0.3-1.7,0.5-2.6
	c0.1-0.4,0.2-0.9,0.2-1.3c0.1-0.4,0.1-0.9,0.2-1.3l0.2-1.3c0.1-0.4,0.1-0.9,0.2-1.3c0.1-0.9,0.2-1.8,0.3-2.6c0-0.2,0-0.4,0.1-0.7
	v-0.7l0.1-1.3l0.1-1.3c0-0.4,0-0.9,0-1.3v-2.7v-2.6C213.8,112.1,213.8,111.7,213.8,111.2z M154.8,29.9c0,0.8,0,1.5-0.1,2.3
	c-0.2-0.4-0.4-0.8-0.6-1.2c-0.4-0.8-0.8-1.5-1.2-2.2s-0.9-1.4-1.3-2.1c-0.5-0.7-1-1.4-1.5-2c-0.3-0.3-0.5-0.7-0.8-1
	s-0.6-0.6-0.9-0.9c-0.6-0.6-1.2-1.2-1.9-1.7s-1.4-1-2.1-1.5c-0.8-0.4-1.6-0.8-2.4-1c-0.8-0.2-1.7-0.3-2.6-0.3c-0.1,0-0.2,0-0.3,0
	h-0.3h-0.3c-0.1,0-0.2,0-0.3,0c-0.2,0-0.5,0.1-0.7,0.2c-0.2,0.1-0.5,0.2-0.7,0.4s-0.4,0.5-0.4,0.8s0,0.6,0.1,0.8
	c0.2,0.5,0.4,0.8,0.6,1.2c0.5,0.7,1,1.4,1.6,2c0.3,0.3,0.5,0.6,0.8,1c0.1,0.2,0.2,0.3,0.3,0.5s0.2,0.3,0.2,0.5c0,0.1,0,0.1,0,0.2V26
	c-0.1,0.1-0.2,0.2-0.4,0.2c-0.4,0.1-0.8,0.1-1.2,0c-0.2,0-0.4,0-0.6,0c-0.1,0-0.2,0-0.3,0h-0.2h-0.1h-0.1l-1.2-0.2
	c-0.8-0.2-1.6-0.3-2.5-0.5c0.8,0.2,1.6,0.5,2.4,0.7l1.2,0.3h0.1h0.1h0.2c0.1,0,0.2,0,0.3,0.1c0.2,0,0.4,0.1,0.6,0.1
	c0.4,0,0.8,0.1,1.3,0c0.1,0,0.1,0,0.2,0c0.1,0,0.1,0,0.2,0c0.1,0,0.3-0.1,0.4-0.2c0.1-0.1,0.2-0.3,0.2-0.4s0-0.3,0-0.4
	c-0.1-0.3-0.2-0.5-0.3-0.7s-0.2-0.4-0.3-0.6c-0.2-0.4-0.5-0.7-0.8-1c-0.5-0.7-1-1.3-1.5-2c-0.2-0.3-0.4-0.7-0.5-1
	c0-0.2-0.1-0.3,0-0.4c0-0.1,0.1-0.2,0.2-0.3c0.1-0.1,0.2-0.2,0.4-0.2s0.3-0.1,0.5-0.1c0.1,0,0.2,0,0.3,0h0.3h0.3c0.1,0,0.2,0,0.3,0
	c0.8,0,1.6,0.1,2.3,0.3c0.8,0.2,1.5,0.5,2.2,0.9c0.2,0.1,0.3,0.2,0.5,0.3l0.3,0.2c0.1,0.1,0.2,0.1,0.3,0.2c0.2,0.1,0.3,0.2,0.5,0.3
	l0.5,0.4c0.6,0.5,1.2,1.1,1.8,1.6c0.6,0.6,1.1,1.2,1.6,1.8c0.5,0.6,1,1.3,1.5,2s0.9,1.4,1.4,2.1c0.4,0.7,0.9,1.4,1.3,2.1
	c0.4,0.7,0.8,1.4,1.2,2.2l0.5,1.1v-1.2c0-1.1-0.1-2.3-0.1-3.5l-0.1-1.7l-0.1-1.7l-0.1,1.7L154.8,29.9z M221.9,69.9
	c-5.8-13.6-14.1-25.9-24.8-36.4C186.5,23,174.1,14.7,160.4,9c-14.2-6-29.3-9-44.9-9s-30.7,3-45,9c-13.8,5.8-26.1,14-36.7,24.5
	S14.9,56.3,9,69.9C3.1,84,0,99,0,114.5s3.1,30.5,9.1,44.6c5.8,13.6,14.1,25.9,24.8,36.4c10.6,10.5,23,18.8,36.7,24.5
	c14.2,6,29.4,9,45,9s30.7-3,45-9c13.8-5.8,26.1-14,36.7-24.5c10.6-10.5,18.9-22.8,24.8-36.4c6-14.1,9.1-29.1,9.1-44.6
	C231,99,227.9,84,221.9,69.9z M219.7,158.1c-5.7,13.3-13.9,25.3-24.2,35.6c-10.4,10.3-22.5,18.4-35.9,24c-13.9,5.8-28.8,8.8-44,8.8
	s-30.1-3-44-8.8C58.1,212,46,204,35.7,193.7S17,171.5,11.3,158.1c-5.9-13.8-8.9-28.5-8.9-43.6s3-29.8,8.9-43.6
	C17,57.5,25.1,45.5,35.5,35.2s22.5-18.4,35.9-24c13.9-5.8,28.8-8.8,44-8.8s30.1,3,44,8.8c13.5,5.7,25.6,13.7,35.9,24
	c10.4,10.3,18.5,22.3,24.2,35.6c5.9,13.8,8.9,28.5,8.9,43.6S225.6,144.3,219.7,158.1z M113.6,113.9v-2.2c0-4.9-0.8-10.1-2.5-15.5
	c-1.3-5.1-4.1-10.3-8.2-15.5c0,0-0.7-1.1-2-2.5c-5.7-5.4-12.1-8.1-19.2-8.1c-8.5,0-16,4.8-22.5,14.3c-5.1,8.5-7.6,17.4-7.6,26.8v4.2
	l0.2,0.5h-0.2c0.3,2.4,0.5,3.8,0.6,4.2c0.9,7.6,4.2,15.2,9.6,23.4l0,0l0,0c6.5,7.4,13.5,11.1,21.1,11.1c6.5,0,12.5-2.5,18-7.6
	C109.4,137.7,113.6,126.7,113.6,113.9z M110.5,125c0,0.3-5.6,7.5-16.8,21.7h-0.2c0.3-1.1,6-8.4,17-21.9V125L110.5,125z M111.1,122.3
	c0,0.3-4.7,6.4-14.1,18.2h-0.2L97,140c0-0.7,4.7-6.8,14.1-18.2V122.3z M111.5,119.8l-13.1,16.8h-0.2l0.2-0.5c0-0.5,4.4-6,13.1-16.8
	V119.8z M111.7,117.6l-12.5,16H99c0.1-0.3,0.2-0.6,0.2-0.7c0-0.5,4.2-5.8,12.5-16V117.6z M111.9,115.1c-6,7.7-10,12.8-12.1,15.3
	v-0.5c6-7.7,10-12.8,12.1-15.3V115.1z M111.9,113.2c-7.7,9.9-11.6,14.8-11.7,14.8v-0.7c7.6-9.8,11.5-14.8,11.7-14.8V113.2z
	 M111.9,110.9c-4.1,5.4-7.9,10.2-11.3,14.3v-0.5c4.1-5.4,7.9-10.2,11.3-14.3V110.9z M111.9,109c-4.3,5.6-8,10.2-11.2,14v-0.7
	c4.3-5.6,8-10.2,11.2-14V109z M111.7,107c-5.3,6.9-8.9,11.4-10.8,13.6v-0.5c5.3-6.9,8.9-11.4,10.8-13.6V107z M111.5,104.8v0.5
	c-6.7,8.6-10.2,13-10.4,13v-0.5C107.8,109.2,111.3,104.9,111.5,104.8z M111.1,103.1h0.2v0.3c-6.4,8.3-9.8,12.5-10.2,12.8v-0.5
	C107.4,107.5,110.7,103.3,111.1,103.1z M110.9,101.3v0.5c-6.2,8-9.4,12.1-9.6,12.1v-0.5C107.5,105.4,110.7,101.3,110.9,101.3z
	 M110.5,99.6v0.5c-6,7.7-9,11.6-9.2,11.6v-0.5C107.3,103.5,110.3,99.6,110.5,99.6z M110.1,98.1v0.5c-5.7,7.4-8.6,11.1-8.8,11.1v-0.5
	C107,101.8,109.9,98.1,110.1,98.1z M109.7,96.4v0.7c-5.6,7.2-8.4,10.8-8.6,10.8v-0.7C106.7,100,109.5,96.4,109.7,96.4z M109.3,95.4
	c-5.2,6.8-8,10.2-8.2,10.3v-0.5l7.8-10.1L109.3,95.4z M108.5,93.7h0.2v0.5c-5,6.5-7.6,9.8-7.8,9.9v-0.7
	C105.8,96.9,108.4,93.7,108.5,93.7z M108.2,92.2v0.5c-4.7,6.1-7.1,9.1-7.2,9.1h-0.2v-0.3C105.5,95.4,108,92.2,108.2,92.2z
	 M107.6,90.8c0,0.2,0.1,0.4,0.2,0.7l-7.1,8.6h-0.2v-0.5C105,93.7,107.4,90.8,107.6,90.8z M107,89.5V90c-4.2,5.4-6.4,8.2-6.7,8.4
	v-0.5C104.5,92.4,106.7,89.7,107,89.5z M106.2,88.3h0.2v0.5c-4,5.3-6.1,7.9-6.3,7.9V96C104,90.9,106,88.3,106.2,88.3z M105.8,87.3
	c-3.8,4.9-5.7,7.4-5.9,7.4h-0.2v-0.3l5.7-7.4L105.8,87.3z M105,85.8v0.5c-3.5,4.6-5.3,6.9-5.5,6.9c0-0.2-0.1-0.4-0.2-0.7l5.5-6.7
	H105L105,85.8z M104.2,84.6v0.5c-3.1,4.1-4.8,6.3-5.1,6.4V91C102.3,86.9,104,84.7,104.2,84.6z M103.2,83.6l0.4,0.3
	c-3.1,4.1-4.7,6.2-4.9,6.2c0-0.2-0.1-0.4-0.2-0.7L103.2,83.6z M102.7,82.4v0.5c-2.7,3.6-4.1,5.4-4.3,5.4h-0.2V88
	C101,84.3,102.5,82.4,102.7,82.4z M101.7,81.4l0.4,0.3c-2.6,3.5-3.9,5.2-4.1,5.2h-0.2v-0.5C100.2,83,101.5,81.4,101.7,81.4z
	 M101.1,80.7l-3.5,4.7l-0.4-0.3l3.5-4.7L101.1,80.7z M100.3,79.7c-2.2,3-3.4,4.4-3.5,4.4c0-0.2-0.1-0.4-0.2-0.7l3.3-3.9L100.3,79.7z
	 M99.3,78.7l-2.9,3.9L96,82.3l2.9-3.9L99.3,78.7z M98,77.7h0.4V78l-2.5,3.5c-0.2,0-0.3-0.2-0.4-0.5C96.9,78.8,97.8,77.7,98,77.7z
	 M97.4,77c-1.4,2-2.2,3-2.4,3h-0.2v-0.3l2.1-3L97.4,77z M96,76l0.4,0.3l-2,2.7c-0.2,0-0.3-0.2-0.4-0.5C95.2,76.8,95.8,76,96,76z
	 M95.2,75.5l-1.6,2.2l-0.4-0.3l1.6-2.2L95.2,75.5z M94.3,74.7l-1.4,2c-0.2,0-0.3-0.2-0.4-0.5l1.2-1.7C93.9,74.7,94.1,74.7,94.3,74.7
	z M92.7,74h0.2v0.3c-0.5,0.8-0.8,1.2-1,1.2h-0.2v-0.3C92.2,74.4,92.5,74,92.7,74z M91.3,73.5h0.4v0.3l-0.6,1c-0.2,0-0.3-0.2-0.4-0.5
	C90.9,73.7,91.1,73.5,91.3,73.5z M89.8,73.5c0-0.3,0.1-0.4,0.4-0.5h0.4c-0.2,0.5-0.4,0.7-0.6,0.7h-0.2L89.8,73.5L89.8,73.5z
	 M89.2,72.5V73H89c-0.2,0-0.3-0.2-0.4-0.5H89.2z M76.2,72.3c-0.1,0.4-0.6,0.9-1.6,1.5C75.2,72.8,75.7,72.3,76.2,72.3z M67.6,76.7
	h0.2L58.2,89H58C59.6,85.8,62.8,81.7,67.6,76.7z M59,89.3c7.5-9.9,11.6-14.8,12.1-14.8l-14.9,19H56C56.2,92.7,57.1,91.3,59,89.3z
	 M55.1,96.2C67,80.9,73.2,73.3,73.5,73.3h0.2C66.9,82.1,60.6,90,54.9,96.9C54.9,96.7,55,96.5,55.1,96.2z M54.1,99.9
	c0-0.3,5.2-7,15.7-20.2H70c0,0.5-5.3,7.4-15.9,20.7h-0.2L54.1,99.9z M53.5,102.3l14.1-18h0.2c0,0.7-4.8,6.8-14.3,18.5L53.5,102.3
	L53.5,102.3z M53.2,105c0.1-0.2,4.5-5.9,13.3-17h0.2c0,0.7-4.5,6.5-13.5,17.5V105L53.2,105z M52.9,107.3c3.8-4.9,8-10.3,12.7-16v0.5
	c-3.8,5-8,10.3-12.7,16V107.3L52.9,107.3z M52.8,109.5c6-7.7,10.1-12.9,12.3-15.5v0.7c-6,7.7-10.1,12.9-12.3,15.5V109.5z
	 M52.8,111.7c5.8-7.5,9.8-12.5,11.9-15v0.5c-5.8,7.5-9.8,12.5-11.9,15V111.7z M52.8,113.7c4.3-5.6,8.1-10.4,11.5-14.5v0.7
	c-4.3,5.6-8.1,10.4-11.5,14.5V113.7z M64.1,101.6v0.5l-11,14l-0.4-0.3C56.9,110.5,60.7,105.7,64.1,101.6z M52.9,117.6
	c5.4-7,9-11.6,11-13.8v0.7c-5.3,6.9-8.9,11.4-10.8,13.6h-0.2V117.6L52.9,117.6z M63.7,106.3v0.5l-10.2,13l-0.4-0.3
	C60,110.7,63.6,106.3,63.7,106.3z M53.5,121.8V121c6.4-8.3,9.8-12.5,10.2-12.8v0.7C57.3,117.2,53.9,121.5,53.5,121.8z M53.9,123.3
	v-0.5c6.3-8.2,9.6-12.3,9.8-12.3v0.5C57.4,119.2,54.1,123.3,53.9,123.3z M54.3,125c0-0.2-0.1-0.4-0.2-0.7l9.6-11.8v0.7
	C57.7,120.9,54.6,124.9,54.3,125z M54.5,126.2c6-7.7,9-11.6,9.2-11.6v0.5l-8.8,11.3L54.5,126.2z M55.1,128.2v-0.7
	c5.6-7.2,8.4-10.8,8.6-10.8v0.7C58.1,124.6,55.3,128.2,55.1,128.2z M55.5,129.2l8-10.3l0.4,0.3l-8,10.3L55.5,129.2z M56.3,130.9
	h-0.2v-0.5c5-6.5,7.6-9.8,7.8-9.8v0.7C59,127.7,56.5,130.9,56.3,130.9z M56.7,132.4v-0.5c4.8-6.2,7.3-9.4,7.4-9.4v0.5
	C59.3,129.3,56.8,132.4,56.7,132.4z M57.5,133.6h-0.2v-0.5c4.5-5.9,6.9-8.9,7.1-8.9v0.7C59.9,130.7,57.6,133.6,57.5,133.6z
	 M58,134.8h-0.2v-0.3c4.2-5.4,6.4-8.2,6.7-8.4v0.5C60.4,132.1,58.2,134.8,58,134.8z M58.4,135.8c4-5.2,6.1-7.8,6.3-7.9h0.2v0.5
	l-6.1,7.9C58.6,136.3,58.5,136.2,58.4,135.8z M59.4,137.3h-0.2V137c3.8-4.9,5.7-7.4,5.9-7.4v0.5C61.5,134.9,59.6,137.3,59.4,137.3z
	 M60.2,138.5l-0.4-0.3c3.6-4.8,5.5-7.1,5.7-7.1v0.7C62.1,136.3,60.3,138.5,60.2,138.5z M60.6,139.5c3.1-4.1,4.8-6.3,5.1-6.4h0.2v0.3
	l-4.9,6.4L60.6,139.5z M61.8,140.7l-0.4-0.3c3-3.9,4.5-5.9,4.7-5.9h0.2v0.5C63.4,138.9,61.9,140.7,61.8,140.7z M62.5,141.7h-0.2
	v-0.3c2.7-3.6,4.1-5.4,4.3-5.4v0.5C64.1,140,62.7,141.7,62.5,141.7z M63.5,143c-0.2,0-0.3-0.2-0.4-0.5l3.7-4.9
	c0.3,0,0.4,0.2,0.4,0.5L63.5,143z M63.9,143.7c2.3-3.1,3.5-4.7,3.7-4.7v0.5l-3.3,4.4L63.9,143.7z M64.9,144.4c1.9-2.6,3-3.9,3.1-3.9
	h0.2v0.5l-2.9,3.9C65.1,144.9,64.9,144.8,64.9,144.4z M66.1,145.7h-0.2v-0.3c1.8-2.5,2.8-3.7,2.9-3.7v0.5
	C67.2,144.5,66.3,145.7,66.1,145.7z M66.8,146.2c1.5-2.1,2.4-3.2,2.5-3.2c0,0.2,0.1,0.4,0.2,0.7c-1.6,1.8-2.4,2.7-2.4,3
	C67,146.7,66.9,146.5,66.8,146.2z M67.8,147.2c1.3-1.8,2-2.7,2.1-2.7h0.2v0.3l-2,2.7L67.8,147.2z M69.2,148.1l-0.4-0.3l1.8-2.5
	c0.3,0,0.4,0.2,0.4,0.5C70,147.4,69.4,148.1,69.2,148.1z M70,148.6l1.4-2l0.4,0.3l-1.4,2L70,148.6z M71.4,149.4H71l1.2-1.7l0.4,0.3
	C71.9,148.9,71.5,149.4,71.4,149.4z M73.3,149.1l-0.6,1l-0.4-0.3c0.3-0.7,0.6-1,0.8-1h0.2V149.1z M74.3,149.9
	c-0.2,0.5-0.4,0.7-0.6,0.7h-0.2v-0.3c0.2-0.5,0.4-0.7,0.6-0.7h0.2V149.9z M75.1,151.1h-0.2v-0.5h0.6
	C75.5,150.9,75.3,151.1,75.1,151.1z M82.1,151.6c-2.1,0-4.1-0.7-5.8-2l0,0c-0.9-0.6-1.7-1.4-2.2-1.9l0,0c-0.2-0.2-0.4-0.5-0.6-0.7
	c0-0.1-0.1-0.1-0.1-0.1l0,0c-5.4-7.2-8.2-18.6-8.2-34.1c0.1-5.7,0.5-10.4,1-14.3c2.8-16.9,8.4-25.4,17-25.4h0.2
	c2.4,0,4.9,1.2,7.4,3.7l0,0c0,0,0.1,0.1,0.3,0.3c0.5,0.5,1,1.1,1.6,1.7v0.1c1.7,2.2,4,6.1,5,11.5l0,0c1.6,6,2.4,13.6,2.4,22.9
	l-0.2,4.9c0,0,0,1.3,0,1.5C98,140.9,92,151.6,82.1,151.6z M89.4,151.3c0-0.1,0.8-1,2.4-2.7H92C90.7,150.4,89.9,151.3,89.4,151.3z
	 M91.7,150.4l17.8-22.7h0.2c0,0.9-3,5-9,12.1C95.4,146.8,92.5,150.4,91.7,150.4z M94.6,148.9l13.3-17h0.2c-0.1,0.3-0.2,0.6-0.2,0.7
	C99.6,143.4,95.2,148.8,94.6,148.9z M98.7,145.7l6.8-8.9h0.2c-0.5,1.4-2.8,4.3-6.8,8.9H98.7z M120.8,187c-0.1,0-0.1,0.1-0.3,0.2
	c-0.2,0.2-0.5,0.4-0.8,0.7c-0.2,0.1-0.4,0.3-0.5,0.5c-0.2,0.2-0.4,0.3-0.6,0.5c-0.2,0.2-0.4,0.4-0.6,0.6c-0.2,0.2-0.4,0.4-0.6,0.6
	c-0.2,0.2-0.4,0.4-0.6,0.6l0,0l-0.6,0.5c-0.1,0-0.2,0-0.4,0s-0.5,0-0.7,0c-0.3,0-0.5,0-0.8,0s-0.6,0-0.9,0c-0.3,0-0.7,0-1-0.1
	c-0.3,0-0.7-0.1-1-0.2c-0.2,0-0.3-0.1-0.5-0.2c-0.2-0.1-0.3-0.1-0.5-0.2c-0.3-0.1-0.6-0.3-0.9-0.4c-0.3-0.1-0.6-0.3-0.9-0.4
	c-0.3-0.1-0.5-0.2-0.8-0.3s-0.5-0.2-0.7-0.2c-0.1,0-0.2,0-0.3,0s-0.2,0-0.3,0s-0.2,0-0.2,0s-0.1,0-0.2,0c-0.1,0-0.1,0-0.1,0l0,0
	c0,0,0,0,0.1,0c0,0,0.1,0,0.2,0c0.1,0,0.1,0,0.2,0c0.1,0,0.2,0,0.3,0s0.2,0,0.3,0.1c0.2,0.1,0.4,0.1,0.7,0.3c0.5,0.2,1,0.5,1.6,0.8
	c0.3,0.1,0.6,0.3,0.9,0.4c0.2,0.1,0.3,0.1,0.5,0.2c0.2,0.1,0.3,0.1,0.5,0.2c0.3,0.1,0.7,0.2,1,0.2s0.7,0,1,0.1c0.7,0,1.3,0,1.8-0.1
	c0.3,0,0.7-0.1,0.9-0.1l-2,1.7l0,0c-0.1,0-0.1,0.1-0.1,0.1l0,0l0,0c0,0,0,0,0.1,0h0.1c0,0,0.1,0,0.2-0.1c0.1,0,0.1-0.1,0.2-0.1
	c0.1,0,0.1-0.1,0.2-0.1c0.2-0.1,0.3-0.2,0.5-0.3c0.7-0.5,1.6-1.3,2.5-2C119.4,188.8,120.9,187,120.8,187L120.8,187
	C120.9,187,120.9,187,120.8,187z M65.2,177.6c0.4,0,0.8,0.3,1.5,0.8c1.1,0.8,1.8,1.4,1.9,2c0.2,0.6,0.1,1,0.3,1.1
	c0.1,0.1,0.3,0,0.4-0.1c0.9-1.3,1-1.4,0.2-2l-5.1-3.8c-0.3-0.3-0.5-0.3-0.7-0.1c-0.2,0.3,0.2,0.7,0.2,1c0,0.2-0.1,0.4-0.4,0.7
	l-4.9,6.5c-0.3,0.4-0.5,0.6-0.8,0.6c-0.4,0-0.7-0.1-0.8,0.1c-0.2,0.2,0,0.4,0.3,0.7l5.1,3.8c0.5,0.4,0.8,0.6,1.1,0.5
	c0,0,0.7-0.4,1.2-1.2c0.1-0.2,0.2-0.3,0-0.5s-0.7,0.2-1.3,0.1c-0.7-0.1-1.3-0.4-2.1-1l-1.3-0.9c-0.8-0.6-0.8-0.9,0-1.9l2.1-2.8
	l2.3,1.8c0.4,0.3,0.6,0.5,0.7,0.7c0.1,0.3,0.1,0.5,0.3,0.7c0.2,0.1,0.3,0,0.5-0.3l0.5-0.7c0.2-0.3,0.3-0.4,0.1-0.6
	c-0.2-0.1-0.4,0-0.7-0.1c-0.2,0-0.4-0.2-0.8-0.4l-2.3-1.8l1.6-2.1C64.7,177.9,64.9,177.6,65.2,177.6z M120,190.9
	c0,0.1-0.1,0.1-0.1,0.3c0,0.1-0.1,0.2-0.1,0.3s-0.1,0.3-0.1,0.4c0,0.1-0.1,0.3-0.1,0.4s-0.1,0.3-0.1,0.5s0,0.3-0.1,0.5
	c0,0.2,0,0.3,0,0.5s0,0.3,0,0.5s0,0.3,0.1,0.5c0,0.1,0.1,0.3,0.1,0.4c0,0.1,0.1,0.2,0.1,0.3c0,0,0,0.1,0.1,0.1c0,0,0,0.1,0.1,0.1
	c0.1,0.1,0.1,0.2,0.1,0.2l0,0c0,0,0-0.1,0-0.2c0-0.1,0-0.2,0-0.3s0-0.2,0-0.3s0-0.3,0-0.4s0-0.3,0-0.4c0-0.7,0.2-2.3,0.3-2.7
	c0.1-0.5,0.1-0.8,0.1-0.8l0,0C120.1,190.7,120,190.7,120,190.9z M125.6,191.4c0.2,0,0.4,0,0.6,0.1c0.2,0.1,0.3,0.2,0.5,0.4
	c0.3,0.3,0.6,0.7,0.8,1.1c0.3,0.4,0.5,0.8,0.8,1.2c0.5,0.8,1.1,1.6,1.9,2.3c0.4,0.3,0.8,0.6,1.2,0.8c0.4,0.3,0.9,0.5,1.3,0.6
	c0.5,0.2,0.9,0.3,1.4,0.4c0.5,0.1,1,0.2,1.4,0.3c1,0.1,1.9,0.1,2.9,0.1h0.4c0.1,0,0.2,0,0.3,0c0.2,0,0.4,0.1,0.6,0.2
	c0.4,0.2,0.8,0.5,1.1,0.8s0.6,0.7,0.8,1.1c0.2,0.4,0.4,0.8,0.6,1.3l0.2,0.5l0.1-0.5c0.1-0.2,0.1-0.5,0.1-0.7c0-0.3,0-0.5,0-0.7
	s0-0.5,0-0.7s-0.1-0.5-0.1-0.7c-0.2-0.9-0.4-1.9-0.7-2.8c-0.3-0.9-0.7-1.8-1.1-2.7c-0.1-0.2-0.2-0.4-0.3-0.6
	c-0.1-0.2-0.2-0.4-0.3-0.6c-0.1-0.2-0.2-0.4-0.2-0.7c0-0.1-0.1-0.2-0.1-0.3c0.1,0,0.2,0.1,0.3,0.1s0.2,0.1,0.3,0.1c0,0,0.1,0,0.2,0
	c0,0,0.1,0,0.2,0h0.2l-0.1-0.2l-0.4-1c-0.1-0.3-0.3-0.7-0.4-1c-0.1-0.3-0.3-0.7-0.5-1s-0.3-0.6-0.5-1c-0.1-0.2-0.2-0.3-0.3-0.5
	l-0.3-0.5c-0.2-0.3-0.4-0.6-0.6-0.9c-0.1-0.2-0.2-0.3-0.3-0.5l-0.3-0.5c-0.1-0.1-0.2-0.3-0.3-0.4s-0.2-0.3-0.3-0.4l-0.3-0.4
	c-0.1-0.1-0.3-0.3-0.4-0.4c-0.1-0.1-0.3-0.3-0.4-0.4c-0.1-0.1-0.3-0.3-0.4-0.4c-0.1-0.1-0.3-0.3-0.4-0.4l-0.4-0.3l-0.4-0.3
	c-0.2-0.1-0.3-0.2-0.5-0.3c-0.3-0.2-0.6-0.3-1-0.5c-0.3-0.1-0.7-0.3-1-0.3s-0.7-0.1-1.1-0.1c-0.3,0-0.7,0-1,0.1l0,0
	c0,0,0.1-0.1,0.2-0.1c0.1-0.1,0.2-0.1,0.3-0.2c0.2-0.1,0.5-0.2,0.7-0.3l0.2-0.1h-0.2c-0.2,0-0.5-0.1-0.7-0.1s-0.5-0.1-0.7-0.1
	c-0.5,0-0.9,0-1.4,0c-0.2,0-0.5,0.1-0.7,0.1s-0.5,0.1-0.7,0.2c-0.2,0.1-0.4,0.2-0.6,0.3c-0.2,0.1-0.4,0.2-0.6,0.4
	c-0.4,0.3-0.7,0.6-1,1c-0.1,0.2-0.2,0.4-0.3,0.6c-0.1,0.2-0.1,0.5-0.2,0.7c-0.1,0.2-0.2,0.4-0.4,0.6c-0.2,0.2-0.4,0.3-0.6,0.4
	s-0.4,0.2-0.7,0.2c-0.2,0-0.5,0-0.7,0c0.2,0,0.5,0,0.7,0s0.5-0.1,0.7-0.2c0.2-0.1,0.4-0.2,0.6-0.4c0.2-0.2,0.3-0.4,0.4-0.6
	c0.1-0.2,0.1-0.5,0.2-0.7c0.1-0.2,0.2-0.4,0.3-0.6c0.3-0.4,0.6-0.7,1-1c0.2-0.1,0.4-0.3,0.6-0.4c0.2-0.1,0.4-0.2,0.6-0.3
	s0.4-0.1,0.7-0.2c0.2,0,0.5-0.1,0.7-0.1c0.5,0,0.9,0,1.4,0c0.2,0,0.5,0,0.7,0.1c0.2,0,0.3,0.1,0.5,0.1c-0.2,0.1-0.4,0.2-0.6,0.3
	c-0.1,0.1-0.3,0.1-0.4,0.2c-0.1,0-0.1,0.1-0.2,0.1c0,0,0,0-0.1,0.1v0.1v0.1h0.1c0.3-0.1,0.7-0.1,1-0.1s0.7,0,1.1,0.1
	c0.3,0.1,0.7,0.2,1,0.3s0.6,0.3,1,0.5c0.2,0.1,0.3,0.2,0.5,0.3l0.4,0.3l0.4,0.3c0.1,0.1,0.3,0.2,0.4,0.4c0.1,0.1,0.3,0.3,0.4,0.4
	c0.1,0.1,0.3,0.3,0.4,0.4c0.1,0.1,0.2,0.3,0.4,0.4l0.3,0.4c0.1,0.1,0.2,0.3,0.3,0.4c0.1,0.1,0.2,0.3,0.3,0.4l0.3,0.4
	c0.1,0.1,0.2,0.3,0.3,0.5c0.2,0.3,0.4,0.6,0.6,0.9l0.3,0.5c0.1,0.2,0.2,0.3,0.3,0.5c0.2,0.3,0.3,0.6,0.5,1c0.2,0.3,0.3,0.6,0.5,1
	c0.1,0.3,0.3,0.7,0.4,1l0.3,0.8l0,0c-0.1,0-0.2-0.1-0.3-0.1c-0.2-0.1-0.3-0.2-0.5-0.3l-0.3-0.3v0.4c0,0.3,0.1,0.5,0.1,0.7
	s0.1,0.5,0.2,0.7c0.1,0.2,0.2,0.5,0.3,0.7s0.2,0.4,0.3,0.6c0.4,0.9,0.7,1.7,1,2.6c0.2,0.4,0.3,0.9,0.4,1.4c0.1,0.5,0.2,0.9,0.3,1.4
	l0,0c-0.1-0.3-0.2-0.5-0.3-0.9c-0.2-0.5-0.5-1.1-0.9-1.6s-0.8-1.1-1.4-1.7c-0.5-0.5-1.2-1.1-1.8-1.5c-0.7-0.5-1.4-0.9-2.2-1.3
	c-0.8-0.4-1.6-0.7-2.5-0.9c-1.7-0.5-3.3-1.1-4.9-1.6c-0.8-0.3-1.5-0.5-2.2-0.8s-1.3-0.5-1.9-0.8c-0.6-0.3-1-0.6-1.4-0.9
	c0.1,0,0.2,0,0.3,0.1c0.2,0,0.4,0.1,0.6,0.1c0.3,0,0.5,0,0.8,0c0.1,0,0.2,0,0.3,0c-0.3,0-0.9-0.2-1.1-0.2c-0.2,0-0.5,0-0.6,0
	c-0.2,0-0.3,0-0.4,0c-0.4-0.3-0.6-0.7-0.8-1c-0.1-0.2-0.2-0.3-0.3-0.4c-0.1-0.1-0.1-0.3-0.2-0.3c-0.1-0.2-0.1-0.3-0.1-0.3l0,0
	c0,0,0,0.1,0.1,0.3s0.2,0.5,0.4,0.8s0.5,0.7,0.9,1.1s0.9,0.7,1.5,1s1.2,0.6,1.9,0.9c0.7,0.3,1.4,0.5,2.2,0.8
	c1.6,0.5,3.2,1.1,4.9,1.6c0.8,0.3,1.7,0.6,2.4,0.9c0.8,0.3,1.5,0.8,2.2,1.2c0.7,0.5,1.3,1,1.8,1.5s1,1.1,1.4,1.6
	c0.8,1.1,1.2,2.1,1.4,2.8c0,0,0,0.1,0,0.2l0,0c0,0.2,0,0.5,0,0.7s0,0.5,0,0.7v0.1c-0.1-0.3-0.3-0.5-0.4-0.8
	c-0.2-0.4-0.5-0.8-0.9-1.2c-0.3-0.4-0.8-0.7-1.2-0.9c-0.2-0.1-0.5-0.2-0.7-0.2c-0.1,0-0.3,0-0.4,0h-0.4c-1,0-1.9,0-2.9-0.1
	c-0.5,0-0.9-0.1-1.4-0.3c-0.5-0.1-0.9-0.3-1.3-0.4c-0.4-0.2-0.9-0.4-1.3-0.6c-0.4-0.2-0.8-0.5-1.2-0.8s-0.7-0.6-1-1
	s-0.5-0.8-0.8-1.2s-0.5-0.8-0.7-1.2c-0.3-0.4-0.5-0.8-0.9-1.2c-0.2-0.2-0.4-0.4-0.6-0.5c-0.3-0.1-0.5-0.2-0.8-0.1
	c-0.3,0-0.5,0.1-0.8,0.3c-0.2,0.1-0.4,0.3-0.6,0.4l0,0l0,0c-0.1,0.2-0.2,0.4-0.2,0.6c0,0.2,0.1,0.4,0.2,0.5c0.2,0.3,0.4,0.5,0.7,0.8
	c0.5,0.4,1,0.8,1.6,1.1c0.5,0.3,1.1,0.6,1.7,0.9c0,0,0.1,0.1,0.2,0.1c0.1,0,0.1,0.1,0.2,0.1c0.1,0.1,0.2,0.2,0.4,0.3
	c0.2,0.2,0.4,0.4,0.6,0.7c0.2,0.2,0.4,0.5,0.5,0.7c0.2,0.3,0.3,0.5,0.4,0.8c0.1,0.3,0.2,0.6,0.3,0.9c0.1,0.3,0.2,0.6,0.2,0.9v0.2
	v0.2c0,0.2,0,0.3,0,0.5s0,0.3,0,0.5s0,0.3,0,0.5v0.2v0.2c0,0.2,0,0.3,0,0.5c0,0.1,0,0.2,0,0.3l-0.6-0.9l-0.6-0.9l0.1,1.1
	c0,0.4,0.1,0.9,0.1,1.3c0,0.4,0.1,0.9,0.1,1.3c0,0.4,0,0.9,0,1.3c0,0.2,0,0.4-0.1,0.6v0.1c-0.1-0.1-0.2-0.2-0.3-0.3
	s-0.2-0.2-0.3-0.3s-0.1-0.1-0.2-0.2c0,0-0.1,0-0.2-0.1c-0.1,0-0.1,0-0.2,0h-0.3v0.3c0.1,0.8,0.2,1.6,0.3,2.3
	c0.1,0.4,0.1,0.8,0.2,1.2c0,0.2,0.1,0.4,0.2,0.6c0,0.1,0,0.1,0.1,0.2h-0.1c-0.2,0-0.4,0-0.6,0c-0.4,0-0.8-0.1-1.1-0.3
	c-0.4-0.1-0.7-0.3-1-0.6c-0.2-0.1-0.3-0.2-0.5-0.4c-0.1-0.1-0.1-0.1-0.2-0.2c-0.1-0.1-0.1-0.1-0.2-0.2l-0.5-0.5v0.7
	c0,0.1,0,0.1,0,0.2v0.2c0,0.1,0,0.3,0,0.4c0,0.1,0,0.2,0,0.3c-0.1,0-0.2-0.1-0.2-0.1c-0.3-0.1-0.5-0.3-0.8-0.4
	c-0.5-0.3-0.9-0.6-1.3-1.1c-0.4-0.4-0.7-0.9-1-1.4s-0.4-1-0.5-1.6c0-0.1,0-0.3-0.1-0.4V205c0-0.3,0-0.6,0-0.9c0-0.6-0.1-1.2-0.2-1.8
	c0-0.3-0.1-0.6-0.1-0.9c-0.1-0.3-0.1-0.6-0.3-0.9c-0.1-0.2-0.1-0.3-0.3-0.5c-0.1-0.1-0.3-0.3-0.5-0.3c-0.1,0-0.1,0-0.2,0h-0.1l0,0
	l0,0l0,0l0,0l0,0h-0.1c0,0-0.1,0-0.1,0.1c-0.2,0.1-0.3,0.3-0.4,0.4c-0.2,0.3-0.3,0.6-0.3,1c0,0.3,0,0.6,0,0.9
	c0.1,0.6,0.2,1.2,0.4,1.8s0.3,1.1,0.4,1.7c0.1,0.6,0.1,1.1,0.1,1.7s0,1.1-0.2,1.7c-0.1,0.6-0.3,1.1-0.5,1.6s-0.5,1-0.8,1.5
	c-0.1,0.2-0.3,0.4-0.5,0.6v-0.1c0-0.1,0-0.1,0-0.2v-0.1c0,0,0,0,0-0.1l0,0c0,0,0,0,0-0.1l-0.3-0.6l-0.3,0.6
	c-0.1,0.2-0.2,0.3-0.3,0.5s-0.2,0.3-0.3,0.5c-0.2,0.3-0.4,0.6-0.6,1c-0.4,0.6-0.9,1.2-1.5,1.8c-0.1,0.1-0.3,0.3-0.4,0.4
	s-0.3,0.3-0.4,0.4c-0.2,0.1-0.3,0.2-0.5,0.3c-0.2,0.1-0.3,0.2-0.5,0.3c-0.2,0.1-0.3,0.2-0.5,0.3c-0.2,0.1-0.3,0.2-0.5,0.2
	c-0.2,0.1-0.3,0.1-0.5,0.2h-0.1c0-0.1,0-0.2,0-0.3c0-0.2,0-0.5,0.1-0.7c0-0.3,0-0.5,0-0.8c0-0.1,0-0.1-0.1-0.2c0,0,0-0.1-0.1-0.2
	c0-0.1-0.1-0.1-0.3-0.2c-0.1,0-0.2,0-0.3,0s-0.1,0.1-0.1,0.1l-0.1,0.1l-0.1,0.1c-0.2,0.2-0.3,0.4-0.5,0.6c-0.1,0.2-0.3,0.4-0.4,0.5
	c-0.3,0.4-0.6,0.7-0.9,1c-0.3,0.3-0.7,0.5-1.1,0.6c-0.1,0-0.2,0-0.3,0c0,0-0.1,0-0.2,0h-0.2c-0.3,0-0.5,0-0.8,0.1
	c-0.5,0.1-1,0.3-1.4,0.5c-0.2,0.1-0.4,0.2-0.6,0.3c0-0.3,0.1-0.7,0.1-1.1c0.1-0.6,0.1-1.2,0.2-1.8c0-0.3,0-0.6,0-1v-0.1v-0.1v-0.2
	l-0.1-0.4c-0.1-0.6-0.2-1.2-0.3-1.8c-0.1-1.2-0.2-2.4-0.2-3.6c0-0.3,0-0.6,0.1-0.9c0-0.3,0.1-0.6,0.1-0.9c0-0.3,0.1-0.6,0.2-0.9
	s0.1-0.6,0.2-0.9l0.2-0.6l-0.6,0.2l-0.5,0.2c0-0.1,0-0.2,0.1-0.3c0.1-0.3,0.2-0.6,0.3-0.9c0.2-0.6,0.4-1.1,0.7-1.7
	c0.3-0.5,0.6-1,1-1.5c0.2-0.2,0.4-0.4,0.6-0.6c0.2-0.2,0.5-0.3,0.8-0.5c1.1-0.6,2.2-1,3.4-1.6c0.3-0.1,0.6-0.3,0.8-0.5
	c0.3-0.2,0.5-0.4,0.8-0.6c0.2-0.2,0.5-0.5,0.6-0.9c0-0.2,0-0.4,0-0.6c0-0.2-0.1-0.4-0.2-0.5l0,0l0,0c-0.1-0.1-0.3-0.3-0.4-0.3
	c-0.2,0-0.3,0-0.5,0c-0.3,0.1-0.5,0.2-0.8,0.3c-0.5,0.3-0.8,0.6-1.2,0.9c-0.2,0.2-0.3,0.3-0.5,0.5l-0.1,0.1l-0.1,0.1
	c-0.1,0.1-0.2,0.2-0.2,0.3c-0.3,0.3-0.7,0.7-1,1c-0.7,0.6-1.5,1.1-2.4,1.5c-0.2,0.1-0.4,0.2-0.6,0.3s-0.4,0.2-0.7,0.3h-0.1v-0.1
	c0,0,0-0.1,0-0.2c0-0.1,0-0.1,0-0.2v-0.4l-0.4,0.2c-0.1,0.1-0.3,0.1-0.5,0.2c-0.2,0.1-0.3,0.1-0.5,0.2c-0.3,0.1-0.7,0.2-1,0.2
	c-0.2,0-0.3,0.1-0.5,0.1s-0.3,0-0.5,0.1c-0.2,0-0.3,0-0.5,0s-0.3,0-0.5,0c-0.7,0-1.3-0.1-2-0.3c-0.1,0-0.2,0-0.2-0.1L96,200
	c-0.1,0-0.2-0.1-0.2-0.1c-0.1,0-0.2-0.1-0.2-0.1l-0.2-0.1l0,0h0.3l0.8-0.1l-0.7-0.4c-0.2-0.1-0.4-0.3-0.6-0.4
	c-0.2-0.1-0.4-0.3-0.6-0.4c-0.4-0.3-0.8-0.6-1.2-0.9c-0.4-0.3-0.7-0.6-1-1c-0.2-0.2-0.3-0.4-0.5-0.5c0,0-0.1-0.1-0.1-0.2h0.1
	c0.2,0,0.4,0,0.6,0c0.4,0,0.8-0.1,1.2-0.2c0.4-0.1,0.8-0.3,1.2-0.5c0.1-0.1,0.2-0.1,0.3-0.2c0.1-0.1,0.2-0.1,0.2-0.2
	s0.1-0.2,0.2-0.3s0.1-0.2,0.2-0.3l0.2-0.3l-0.3-0.1h-0.1h-0.1c0,0-0.1,0-0.1-0.1c-0.1,0-0.2-0.1-0.3-0.1c0,0-0.1,0-0.2,0
	c0.1-0.1,0.1-0.2,0.2-0.3c0.2-0.3,0.3-0.5,0.5-0.7s0.4-0.4,0.7-0.5c0.2-0.2,0.5-0.3,0.8-0.4l0.5-0.2l-0.5-0.3l-0.3-0.2l0,0
	c0.1-0.1,0.2-0.2,0.3-0.3c0.2-0.2,0.5-0.3,0.7-0.5c0.5-0.3,1-0.6,1.5-0.8s1-0.4,1.6-0.5c0.5-0.1,1.1-0.1,1.6,0.1l1.5,0.5l-1.2-1
	l-0.7-0.6c0.5-0.1,1-0.2,1.4-0.2c0.7-0.1,1.3-0.1,2,0s1.3,0.2,1.9,0.4c0.2,0,0.3,0.1,0.5,0.2c0.1,0.1,0.3,0.1,0.4,0.2
	c0.3,0.2,0.6,0.3,0.9,0.5c0.6,0.3,1.2,0.6,1.9,0.8c0.6,0.2,1.3,0.4,2.1,0.4c0.4,0,0.7-0.1,1.1-0.3c0.3-0.2,0.6-0.5,0.8-0.8
	c0-0.1,0.1-0.2,0.1-0.2c0-0.1,0.1-0.2,0.1-0.3s0.1-0.2,0.1-0.3s0-0.2-0.1-0.3c0-0.1-0.1-0.2-0.2-0.3c-0.1-0.1-0.2-0.1-0.3-0.1
	c-0.2-0.1-0.4-0.1-0.5-0.1c-0.7-0.1-1.4,0-2,0c-0.7,0-1.3,0.1-2,0.1s-1.3-0.1-1.9-0.2c-0.6-0.2-1.3-0.4-1.9-0.6
	c-1.2-0.5-2.4-1.2-3.4-2c-0.5-0.4-1-0.9-1.4-1.4c-0.4-0.4-0.7-0.9-1-1.4l1-0.2l0.5-0.1l-0.5-0.2c-0.1,0-0.2-0.1-0.3-0.2
	c-0.1-0.1-0.2-0.1-0.3-0.2c-0.2-0.2-0.4-0.3-0.6-0.5c-0.4-0.4-0.8-0.8-1.1-1.2c-0.1-0.1-0.2-0.2-0.2-0.3c-0.1-0.1-0.1-0.2-0.2-0.3
	c-0.1-0.1-0.1-0.2-0.2-0.4c-0.1-0.1-0.1-0.3-0.2-0.4c0-0.1-0.1-0.3-0.1-0.4c0-0.1-0.1-0.3-0.1-0.4c0-0.1,0-0.2-0.1-0.3l0.1,0.1
	c0.2,0.1,0.3,0.3,0.5,0.4c0.3,0.3,0.7,0.5,1,0.7c0.4,0.2,0.8,0.4,1.2,0.5c0.1,0,0.2,0,0.3,0.1h0.2h0.2c0.1,0,0.2,0,0.3,0
	s0.2,0,0.3,0h0.1v-0.1c0-0.1,0-0.2,0-0.3s0-0.2-0.1-0.3c0-0.1-0.1-0.2-0.1-0.3c0,0-0.1-0.1-0.1-0.2c0,0,0.1-0.1,0.2-0.1
	c0.1,0,0.1,0,0.2-0.1h0.2h0.2h0.2c0.1,0,0.1,0,0.2,0c0.1,0,0.1,0,0.2,0c0.1,0,0.3,0,0.4,0c0.1,0,0.3,0,0.4,0c0.1,0,0.3,0,0.4,0
	l0.4,0.1h0.3l-0.2-0.3l-0.9-1c0.1-0.1,0.2-0.2,0.3-0.2c0.1-0.1,0.3-0.2,0.5-0.3c0.3-0.2,0.6-0.3,1-0.4c0.3-0.1,0.7-0.2,1-0.3
	c0.1,0,0.2,0,0.3,0s0.2,0,0.3,0s0.2,0,0.3,0s0.2,0,0.3,0h0.2l-0.1-0.2l-0.5-0.9c0.3-0.1,0.5-0.1,0.7-0.2c0.3,0,0.6-0.1,0.9-0.1
	c0.6-0.1,1.2-0.1,1.8-0.1c1.2,0,2.4,0,3.6,0.2s2.3,0.6,3.4,1.1c1,0.6,2,1.3,2.8,2.2c0.3,0.5,0.6,1,0.8,1.6c0.2,0.5,0.2,1.1,0.2,1.7
	c0,0.3-0.1,0.6-0.2,0.8c-0.1,0.3-0.2,0.5-0.3,0.8s-0.2,0.6-0.1,0.9c0,0.1,0.1,0.2,0.1,0.3h-0.1c-0.1,0-0.2,0-0.4-0.1
	c-0.2,0-0.3-0.1-0.5-0.2c-0.2-0.1-0.4-0.2-0.6-0.4c-0.2-0.2-0.4-0.4-0.6-0.6c-0.2-0.3-0.3-0.5-0.4-0.9c-0.1-0.3-0.2-0.7-0.3-1
	s-0.2-0.7-0.4-1.1s-0.3-0.7-0.4-1.1c-0.1-0.3-0.3-0.7-0.5-1s-0.3-0.6-0.5-0.9c-0.2-0.3-0.4-0.5-0.5-0.8s-0.4-0.4-0.6-0.6
	c-0.2-0.1-0.4-0.3-0.5-0.3h-0.1h-0.1c-0.1,0-0.1,0-0.2,0c-0.1,0-0.1,0-0.1,0l0,0c0,0,0,0,0.1,0c0,0,0.1,0,0.2,0h0.1
	c0,0,0.1,0,0.1,0.1c0.1,0.1,0.3,0.2,0.5,0.4s0.3,0.3,0.5,0.6c0.7,0.9,1.3,2.3,1.8,3.7c0.3,0.7,0.5,1.4,0.7,2.1
	c0.1,0.3,0.2,0.7,0.4,0.9c0.2,0.3,0.4,0.5,0.7,0.6c0.2,0.2,0.5,0.3,0.7,0.3c0.2,0.1,0.4,0.1,0.6,0.1c0.3,0.1,0.5,0.1,0.5,0.1l0,0
	c0,0,0,0,0,0.1c0.1,0.1,0.2,0.2,0.3,0.3c-0.1-0.1-0.2-0.2-0.3-0.3c0,0,0,0,0-0.1l0,0l0,0c-0.1-0.1-0.1-0.2-0.1-0.3
	c0-0.3,0.1-0.6,0.2-0.8c0.1-0.3,0.2-0.5,0.3-0.8s0.2-0.6,0.2-0.8c0.1-0.6,0-1.2-0.1-1.7c-0.2-0.6-0.4-1.1-0.7-1.6l0,0l0,0
	c-0.8-0.9-1.7-1.7-2.8-2.3c-1-0.6-2.2-1-3.4-1.2s-2.4-0.3-3.6-0.3c-0.6,0-1.2,0.1-1.8,0.1c-0.3,0-0.6,0.1-0.9,0.1
	c-0.3,0-0.6,0.1-0.9,0.2h-0.1l0.1,0.1l0.5,0.8l0,0c-0.1,0-0.2,0-0.3,0s-0.2,0-0.3,0s-0.2,0-0.3,0c-0.4,0-0.7,0.1-1.1,0.3
	c-0.3,0.1-0.7,0.3-1,0.5c-0.2,0.1-0.3,0.2-0.5,0.3s-0.3,0.2-0.4,0.3l-0.1,0.1l0.1,0.1l0.7,0.8h-0.1c-0.1,0-0.3,0-0.4,0
	c-0.1,0-0.3,0-0.4,0c-0.1,0-0.3,0-0.4,0c-0.1,0-0.1,0-0.2,0c-0.1,0-0.1,0-0.2,0h-0.2h-0.2c-0.1,0-0.1,0-0.2,0.1
	c-0.1,0-0.1,0-0.2,0.1c-0.1,0-0.1,0.1-0.2,0.1c0,0-0.1,0-0.1,0.1l0,0l0,0l0,0l-0.1,0.2h0.2c0,0,0,0,0.1,0c0,0,0,0,0.1,0.1
	c0,0.1,0.1,0.2,0.1,0.3s0,0.2,0,0.3s0,0.1,0,0.2c-0.1,0-0.1,0-0.2,0c-0.1,0-0.2,0-0.3,0h-0.1h-0.1c-0.1,0-0.2,0-0.3-0.1
	c-0.4-0.1-0.8-0.3-1.1-0.5s-0.7-0.5-1-0.7c-0.2-0.1-0.3-0.3-0.5-0.4c-0.1-0.1-0.3-0.3-0.4-0.4l-0.4-0.4l0.1,0.5c0,0.1,0,0.3,0.1,0.4
	c0,0.1,0,0.3,0.1,0.4c0,0.1,0.1,0.3,0.1,0.4c0,0.1,0.1,0.3,0.1,0.4c0,0.1,0.1,0.3,0.2,0.4c0.1,0.1,0.1,0.3,0.2,0.4
	c0.1,0.1,0.1,0.3,0.2,0.4c0.1,0.1,0.2,0.2,0.2,0.4c0.3,0.5,0.7,0.9,1.1,1.3c0.2,0.2,0.4,0.4,0.7,0.5c0.1,0.1,0.2,0.1,0.3,0.2
	l-0.8,0.1H101l0.1,0.2c0.3,0.6,0.8,1.1,1.2,1.6c0.5,0.5,0.9,1,1.5,1.4c1,0.9,2.2,1.6,3.5,2.1c0.6,0.3,1.3,0.5,1.9,0.6
	c0.3,0.1,0.7,0.2,1,0.2s0.7,0,1,0.1c0.7,0,1.3,0,2-0.1c0.7,0,1.3-0.1,2,0c0.2,0,0.3,0,0.4,0.1c0.1,0,0.2,0.1,0.3,0.2
	c0.1,0.2-0.1,0.5-0.2,0.7c-0.2,0.3-0.4,0.5-0.6,0.6c-0.3,0.1-0.6,0.2-0.9,0.2c-0.6,0-1.3-0.2-1.9-0.4c-0.6-0.2-1.2-0.5-1.8-0.8
	c-0.3-0.1-0.6-0.3-0.9-0.4c-0.1-0.1-0.3-0.2-0.5-0.2c-0.2-0.1-0.3-0.1-0.5-0.2c-0.7-0.2-1.3-0.4-2-0.4c-0.7-0.1-1.4-0.1-2.1,0
	c-0.7,0.1-1.3,0.2-2,0.3l-0.5,0.1l0.4,0.3l0.3,0.3c-0.3,0-0.5,0-0.8,0c-0.6,0.1-1.2,0.3-1.7,0.5s-1,0.5-1.5,0.8
	c-0.3,0.2-0.5,0.3-0.7,0.5c-0.1,0.1-0.2,0.2-0.3,0.3s-0.2,0.2-0.3,0.3l-0.3,0.2l0.3,0.2l0.2,0.1c-0.1,0.1-0.3,0.1-0.4,0.2
	c-0.3,0.2-0.5,0.4-0.8,0.6c-0.2,0.2-0.4,0.5-0.6,0.8c-0.1,0.1-0.2,0.3-0.3,0.4c0,0.1-0.1,0.1-0.1,0.2s-0.1,0.1-0.1,0.2L95,194
	l0.6-0.3c0,0,0.1,0,0.2,0s0.1,0,0.2,0s0.1,0,0.2,0c0,0-0.1,0.1-0.1,0.2c-0.1,0.1-0.1,0.1-0.2,0.2c-0.1,0.1-0.1,0.1-0.2,0.2
	c-0.3,0.2-0.6,0.3-1,0.4c-0.4,0.1-0.7,0.1-1.1,0.2c-0.2,0-0.4,0-0.6,0c-0.1,0-0.2,0-0.3,0c-0.1,0-0.2,0-0.3,0l-0.5-0.1l0.2,0.5
	l0.1,0.2l0.1,0.2c0.1,0.1,0.1,0.2,0.2,0.3c0.2,0.2,0.3,0.4,0.5,0.6c0.3,0.4,0.7,0.7,1.1,1.1c0.4,0.3,0.8,0.6,1.2,0.9
	c0.2,0.1,0.4,0.3,0.6,0.4h-0.3l-0.7,0.1l0.6,0.4c0.1,0.1,0.3,0.2,0.4,0.3c0.1,0,0.2,0.1,0.2,0.2l0.2,0.1c0.1,0,0.2,0.1,0.3,0.1
	c0.1,0,0.2,0.1,0.3,0.1l0.3,0.1c0.1,0,0.2,0.1,0.3,0.1c0.7,0.2,1.4,0.4,2.1,0.4c0.2,0,0.4,0,0.5,0s0.4,0,0.5,0c0.2,0,0.4,0,0.5-0.1
	c0.2,0,0.4,0,0.5-0.1c0.4-0.1,0.7-0.2,1-0.3c0,0,0,0,0.1,0c0,0-0.1,0-0.1,0.1h-0.1h-0.1l0.2,0.5c0.2-0.1,0.5-0.1,0.7-0.2
	c0.2-0.1,0.5-0.1,0.7-0.2c0.2-0.1,0.5-0.2,0.7-0.3s0.5-0.2,0.7-0.3s0.4-0.2,0.6-0.3c-0.3,0.2-0.5,0.4-0.8,0.7
	c-0.5,0.5-0.8,1-1.1,1.6s-0.5,1.2-0.8,1.8c-0.1,0.3-0.2,0.6-0.3,0.9c-0.1,0.3-0.2,0.6-0.2,0.9l-0.1,0.6l0.5-0.2l0.5-0.2
	c0,0.1,0,0.2-0.1,0.3c-0.1,0.3-0.1,0.6-0.2,0.9c0,0.3-0.1,0.6-0.1,0.9s0,0.6-0.1,0.9c-0.1,1.2,0,2.5,0.1,3.7
	c0.1,0.6,0.2,1.2,0.3,1.8l0.1,0.5v0.2v0.1c0,0,0,0,0,0.1c0,0.3,0,0.6,0,0.8c0,0.6-0.1,1.2-0.2,1.8c-0.1,0.6-0.1,1.2-0.2,1.8
	l-0.1,0.9l0.7-0.6c0.1-0.1,0.3-0.3,0.5-0.4s0.4-0.2,0.6-0.3c0.4-0.2,0.8-0.3,1.3-0.4c0.2,0,0.4-0.1,0.6-0.1h0.2c0.1,0,0.1,0,0.2,0
	c0.1,0,0.3,0,0.4-0.1c0.5-0.1,1-0.4,1.4-0.7c0.4-0.3,0.7-0.7,1-1.1c0.2-0.2,0.3-0.4,0.4-0.6c0.1-0.2,0.2-0.3,0.3-0.4
	c0,0.2,0,0.3,0,0.5c0,0.5-0.1,0.9-0.2,1.4l-0.1,0.5l0.4-0.1c0.2,0,0.4-0.1,0.6-0.1c0.2,0,0.4-0.1,0.6-0.2c0.2-0.1,0.4-0.2,0.6-0.3
	c0.2-0.1,0.4-0.2,0.5-0.3c0.2-0.1,0.3-0.2,0.5-0.3c0.2-0.1,0.3-0.2,0.5-0.4s0.3-0.3,0.5-0.4s0.3-0.3,0.4-0.4
	c0.6-0.6,1.1-1.2,1.5-1.8c0.2-0.3,0.4-0.5,0.5-0.8l-0.2,0.9l0.7-0.7c0.4-0.4,0.8-0.9,1.2-1.4c0.3-0.5,0.6-1,0.9-1.6
	c0.2-0.6,0.4-1.1,0.5-1.8c0.1-0.6,0.2-1.2,0.2-1.8s-0.1-1.2-0.2-1.8c0-0.3-0.1-0.6-0.2-0.9c-0.1-0.3-0.2-0.6-0.2-0.9
	c-0.2-0.5-0.3-1.1-0.3-1.7c0-0.3,0-0.5,0-0.8s0.1-0.5,0.2-0.7c0.1-0.1,0.1-0.2,0.2-0.2l0,0l0,0l0,0l0,0l0,0l0,0l0,0l0,0
	c0.1,0,0.1,0,0.2,0.1c0.1,0.1,0.1,0.2,0.2,0.3c0.1,0.2,0.2,0.5,0.2,0.8c0.1,0.3,0.1,0.6,0.1,0.8c0.1,0.6,0.1,1.2,0.2,1.7
	c0,0.3,0,0.6,0,0.9v0.5c0,0.2,0,0.3,0.1,0.5c0.1,0.6,0.3,1.2,0.6,1.8c0.3,0.5,0.7,1.1,1.1,1.5s0.9,0.8,1.4,1.1
	c0.3,0.2,0.5,0.3,0.8,0.4c0.3,0.1,0.5,0.2,0.9,0.3l1.1,0.3l-0.8-0.8c0,0-0.1-0.1-0.1-0.2s0-0.2-0.1-0.4c0,0,0,0,0-0.1
	c0.1,0.1,0.3,0.3,0.5,0.4c0.3,0.3,0.7,0.5,1.1,0.6c0.4,0.2,0.8,0.3,1.3,0.3c0.2,0,0.4,0,0.7,0c0.1,0,0.2,0,0.3,0s0.2,0,0.3-0.1v-0.5
	l0,0c0,0,0,0,0-0.1s-0.1-0.2-0.1-0.2c-0.1-0.2-0.1-0.3-0.2-0.5c-0.1-0.4-0.2-0.8-0.2-1.1c-0.1-0.6-0.2-1.2-0.2-1.8
	c0,0,0.1,0.1,0.1,0.2c0.1,0.1,0.2,0.2,0.3,0.3l0.1,0.2l0.1,0.2l0.2,0.3l0.2-0.3c0.1-0.1,0.2-0.3,0.2-0.4c0-0.1,0.1-0.2,0.1-0.4
	s0.1-0.5,0.1-0.7c0-0.5,0-0.9,0-1.3c0-0.4,0-0.9-0.1-1.3c0-0.1,0-0.2,0-0.3l0.4,0.6l0.4,0.5l0.1-0.6c0.1-0.3,0.1-0.6,0.1-1
	c0-0.2,0-0.3,0-0.5v-0.2v-0.2c0-0.2,0-0.3,0-0.5s0-0.3,0-0.5s0-0.3,0-0.5v-0.2v-0.2c0-0.3-0.1-0.6-0.2-1c-0.1-0.3-0.2-0.6-0.3-0.9
	c-0.1-0.3-0.3-0.6-0.5-0.9c-0.2-0.3-0.4-0.5-0.6-0.8c-0.2-0.3-0.4-0.5-0.7-0.7c-0.1-0.1-0.3-0.2-0.4-0.3c-0.1,0-0.1-0.1-0.2-0.1
	c-0.1,0-0.1-0.1-0.2-0.1c-0.6-0.3-1.1-0.6-1.6-0.9c-0.5-0.3-1-0.7-1.5-1.1c-0.2-0.2-0.4-0.4-0.6-0.7c-0.1-0.1-0.1-0.2-0.1-0.3
	s0-0.2,0.1-0.3C124.8,191.7,125.2,191.5,125.6,191.4z M107.1,199.3c0.4-0.3,0.8-0.6,1.1-1c0.1-0.1,0.2-0.2,0.3-0.3l0.1-0.1l0.1-0.1
	c0.2-0.2,0.3-0.3,0.5-0.5c0.3-0.3,0.7-0.6,1.1-0.9c0.2-0.1,0.4-0.2,0.6-0.2c0.1,0,0.2,0,0.2,0s0.1,0,0.1,0.1
	c0.1,0.2,0.2,0.4,0.1,0.6c0,0.2-0.2,0.4-0.4,0.6c-0.2,0.2-0.4,0.4-0.7,0.5c-0.3,0.2-0.5,0.3-0.8,0.5c-1.1,0.6-2.2,1-3.4,1.6
	c0,0-0.1,0-0.2,0.1C106.3,199.9,106.7,199.6,107.1,199.3z M112.2,75c0.3,0.4,0.4,0.7,0.4,1h1c3.2,0,5.6,1,7.2,3v0.3
	c0,0,2.1,4.3,2.1,10.1v48.5c0,1.4-0.1,3.1-0.4,5.2c-1.3,5.6-4.1,8.4-8.4,8.4h-2v2.5c0.7,0.5,1.3,1.1,1.8,1.1l30.5,0.2
	c8.6,0,12.5-0.2,15.4-1c7.1-3.4,14.2-12.4,14.1-21c0-3.6-0.3-6.2-1.1-8c-2.3-5.3-7-8.9-12.7-11.6l-2.4-1.2c-0.1,0-0.6-0.1-1.6-0.3
	c0.2-0.2,1.9-1.2,5.3-3c6.4-3.9,9.6-9.2,9.6-15.8c0-3.4-0.7-6.3-2-8.9c-2.8-7-8.9-10.8-18.4-11.3h-38.5L112.2,75L112.2,75z
	 M118.1,152.3h-0.2c0-0.3,0.3-0.5,0.8-0.7C118.5,152.1,118.3,152.3,118.1,152.3z M132.8,150.6c-0.7,1.1-1.2,1.7-1.4,1.7H131
	c1-1.5,1.6-2.2,1.8-2.2V150.6z M132.8,148.4c-1.9,2.6-3,3.9-3.1,3.9h-0.4c2.2-3,3.4-4.4,3.5-4.4V148.4z M132.8,146.4
	c-3,3.9-4.5,5.9-4.7,5.9h-0.4c3.1-4.1,4.8-6.3,5.1-6.4L132.8,146.4z M132.8,144.4c-4,5.3-6.1,7.9-6.3,7.9H126
	c4.4-5.7,6.7-8.6,6.8-8.6V144.4z M132.8,142.2c-5.1,6.6-7.8,10-8,10.1h-0.4c5.3-7,8.1-10.5,8.4-10.6V142.2z M132.8,140.3
	c-6.2,8-9.4,12.1-9.6,12.1h-0.6c6.4-8.3,9.8-12.5,10.2-12.8L132.8,140.3z M132.8,138c-4.1,5.4-7.9,10.2-11.3,14.3h-0.4
	c7.6-9.8,11.5-14.7,11.7-14.8V138z M132.8,136.1c-3.6,4.7-7.9,10.2-12.9,16.3h-0.6c4-5.2,8.5-10.9,13.5-17V136.1L132.8,136.1z
	 M132.8,133.9l-9.8,12.6h-0.2c0-0.7,3.3-5,10-13V133.9L132.8,133.9z M132.8,131.9l-9,11.6h-0.2c0.1-0.3,0.2-0.6,0.2-0.7
	c0-0.4,3-4.3,9-11.6V131.9z M132.8,129.7c-5.7,7.4-8.6,11.1-8.8,11.1c0-0.7,2.9-4.6,8.8-11.6V129.7z M132.8,127.7
	c-5.6,7.2-8.4,10.8-8.6,10.8v-0.7c5.6-7.2,8.4-10.8,8.6-10.8V127.7z M132.8,125.5c-5.6,7.2-8.4,10.8-8.6,10.8v-0.5
	c5.6-7.2,8.4-10.8,8.6-10.8V125.5z M132.8,123.5c-5.6,7.2-8.4,10.8-8.6,10.8v-0.7c5.6-7.2,8.4-10.8,8.6-10.8V123.5z M132.8,121.3
	c-5.6,7.2-8.4,10.8-8.6,10.8v-0.5c5.6-7.2,8.4-10.8,8.6-10.8V121.3z M132.8,119.3c-5.6,7.2-8.4,10.8-8.6,10.8v-0.7
	c5.6-7.2,8.4-10.8,8.6-10.8V119.3z M132.8,117.1c-5.6,7.2-8.4,10.8-8.6,10.8v-0.5c5.6-7.2,8.4-10.8,8.6-10.8V117.1z M132.8,115.1
	c-5.6,7.2-8.4,10.8-8.6,10.8v-0.7c5.6-7.2,8.4-10.8,8.6-10.8V115.1z M124.2,123.8v-0.5l8.6-11.1h0.2
	C133,112.8,130.1,116.7,124.2,123.8z M153.2,152.1h-0.4c0.3-0.7,0.9-1.3,1.8-1.7C153.8,151.5,153.3,152.1,153.2,152.1z M170.6,140.5
	c-3.9,5.6-6.2,8.4-7.1,8.4l7.1-9.1h0.2C170.6,140.1,170.6,140.3,170.6,140.5z M171.3,137.5c-6.4,8.4-9.8,12.6-10.2,12.6H161
	l10.4-13.3h0.2C171.4,137.1,171.3,137.4,171.3,137.5z M171.7,135.1c-2.2,3-3.4,4.4-3.5,4.4c-5.8,7.7-9,11.6-9.6,11.6h-0.2
	c3.8-5,8.2-10.6,13.3-16.8V135.1z M171.7,132.9c-5.4,7-10.3,13.2-14.9,18.7h-0.4c4.2-5.6,9.3-12,15.3-19.2L171.7,132.9z
	 M171.7,130.4v0.5c-5.2,6.8-10.7,13.7-16.6,20.9h-0.6c5.8-7.6,11.5-14.7,17-21.4H171.7L171.7,130.4z M171.3,129.2l-11.9,15.3h-0.2
	c0-0.7,4-6,12.1-15.8L171.3,129.2z M171.2,127.7l-10.6,13c0-0.2,0.1-0.4,0.2-0.7c0-0.5,3.4-4.8,10.2-13
	C171,127.1,171,127.4,171.2,127.7z M170.4,125.7h0.2v0.3c-6,7.7-9.1,11.7-9.4,11.8v-0.5C167.1,129.6,170.2,125.7,170.4,125.7z
	 M169.8,124.2h0.2v0.5c-5.6,7.2-8.4,10.8-8.6,10.8v-0.7C166.7,127.9,169.5,124.4,169.8,124.2z M169.4,123.3c-5,6.5-7.6,9.8-7.8,9.8
	v-0.5l7.4-9.6L169.4,123.3z M168.6,122.3c-4.5,5.9-6.9,8.9-7.1,8.9v-0.7l6.7-8.6C168.5,121.8,168.6,122,168.6,122.3z M167.8,121
	c-4.1,5.4-6.3,8.1-6.5,8.1v-0.5l6.1-7.9L167.8,121z M166.6,119.8l0.4,0.3c-3.8,4.9-5.7,7.4-5.9,7.4v-0.7
	C164.7,122.1,166.5,119.8,166.6,119.8z M166.1,119.1l-4.9,6.4l-0.4-0.3l4.9-6.4L166.1,119.1z M164.7,118.1h0.4v0.3l-4.3,5.7
	c-0.2,0-0.3-0.2-0.4-0.5C163.1,119.9,164.5,118.1,164.7,118.1z M164.1,117.3c-2.6,3.5-3.9,5.2-4.1,5.2V122l3.7-4.9L164.1,117.3z
	 M162.7,116.6h0.4c-2.2,3-3.4,4.4-3.5,4.4h-0.2v-0.3C161.5,118,162.6,116.6,162.7,116.6z M161.6,115.9h0.4c-1.9,2.6-3,3.9-3.1,3.9
	v-0.5C160.5,117.1,161.4,115.9,161.6,115.9z M160.4,115.4h0.4l-2.4,3.2l-0.4-0.3C159.4,116.4,160.2,115.4,160.4,115.4z M159.2,114.6
	h0.2v0.3c-1.1,1.6-1.8,2.5-2,2.5h-0.2v-0.3C158.4,115.5,159,114.6,159.2,114.6z M158.2,114.4c-0.9,1.3-1.4,2-1.6,2h-0.2v-0.3l1.4-2
	L158.2,114.4z M156.7,113.7l0.4,0.3c-0.6,1-1,1.5-1.2,1.5h-0.4v-0.3C156.1,114.1,156.5,113.7,156.7,113.7z M155.3,113.4h0.4
	l-0.8,1.2l-0.4-0.3C154.8,113.7,155.1,113.4,155.3,113.4z M153.7,113.9l-0.4-0.3c0-0.1,0.3-0.5,0.8-1.2c0.3,0,0.4,0.2,0.4,0.5
	C154.2,113.6,153.9,113.9,153.7,113.9z M163.7,105h-0.2l4.1-5.4h0.2C167.5,100.5,166.2,102.3,163.7,105z M167.2,98.9
	c-4.3,5.7-6.7,8.6-7.2,8.6c5.8-7.6,8.8-11.3,9-11.3C169,96.8,168.4,97.7,167.2,98.9z M169.4,94.2c-7.5,9.9-11.6,14.8-12.1,14.8h-0.2
	c6-7.7,10.1-12.9,12.3-15.5V94.2L169.4,94.2z M169.4,91.5V92c-3.9,5.1-8.7,11.1-14.3,18c-0.2,0-1,1.1-2.5,3.2h-0.2v-0.3
	C158.2,105.4,163.9,98.2,169.4,91.5z M152.4,110.5c1.8-1.6,2.7-2.5,2.7-2.7h0.2c-2.4,3.3-3.7,4.9-3.9,4.9l-0.4-0.3L152.4,110.5z
	 M150,112.2h-0.4c0.5-1,1.1-1.5,1.6-1.5C150.6,111.7,150.2,112.2,150,112.2z M169.2,90.2L156.1,107h-0.2c0-0.3,0.1-0.4,0.4-0.5
	c0.1-1,4.4-6.7,12.9-17V90.2z M158.6,101.3v-0.2c0-0.3,3.3-4.6,10-13l0.4,0.3C162.3,96.9,158.8,101.3,158.6,101.3z M168.6,87
	l-9.4,11.6v-0.3c0-0.7,3.1-4.7,9.2-12.1C168.4,86.5,168.5,86.7,168.6,87z M168,85.3c-5.3,7-8.1,10.5-8.4,10.6v-0.5l8-10.3L168,85.3z
	 M167.4,84.1c-5,6.5-7.6,9.8-7.8,9.9v-0.5c0-0.3,2.5-3.6,7.4-9.9C167.3,83.6,167.4,83.8,167.4,84.1z M166.5,82.6h0.2v0.3
	c-4.4,5.7-6.7,8.6-6.8,8.6V91C164,85.6,166.2,82.8,166.5,82.6z M165.7,81.4h0.2v0.5c-4,5.3-6.1,7.9-6.3,7.9V89
	C163.4,84,165.5,81.4,165.7,81.4z M165.1,80.7l-5.3,6.9l-0.4-0.3c0-0.1,1.8-2.4,5.3-6.9L165.1,80.7z M163.9,79.4l0.4,0.3
	c-3.1,4.1-4.7,6.2-4.9,6.2h-0.2v-0.5C162.2,81.4,163.7,79.4,163.9,79.4z M162.9,78.7h0.4l-4.1,5.4l-0.4-0.3
	C161.4,80.4,162.8,78.7,162.9,78.7z M162.4,77.9c-2.3,3.1-3.5,4.7-3.7,4.7h-0.2v-0.5l3.3-4.4C162,77.9,162.2,77.9,162.4,77.9z
	 M160.8,77.2h0.2v0.3l-2.7,3.7l-0.4-0.3C159.6,78.4,160.6,77.2,160.8,77.2z M159.4,76.7h0.6l-2.4,3.2c-0.2,0-0.3-0.2-0.4-0.5
	C158.5,77.6,159.2,76.7,159.4,76.7z M158.2,76.2h0.4l-1.8,2.5l-0.4-0.3C157.5,77,158.1,76.2,158.2,76.2z M156.9,75.7h0.6l-1.4,2
	c-0.2,0-0.3-0.2-0.4-0.5C156.3,76.2,156.7,75.7,156.9,75.7z M155.5,75.2l0.4,0.3l-0.8,1.2l-0.4-0.3C154.7,76.4,155,76,155.5,75.2z
	 M154.1,75h0.4v0.3l-0.4,0.7c-0.3-0.2-0.5-0.3-0.6-0.3C153.7,75.2,153.9,75,154.1,75z M134.6,76h11.5c3.4,0,6,0.6,7.9,1.9
	c0.8,0.5,1.5,1.2,2.1,2V80c0.6,0.9,1.2,2,1.4,3.4c0.7,2.1,1.1,4.9,1.1,8.4c0,3.4-0.5,6.7-1.4,9.9c-1.7,5.9-6.1,8.9-13.1,8.9h-9.6V76
	H134.6z M149,111.4c0,0.3-0.1,0.5-0.4,0.5h-0.4c0-0.3,0.1-0.4,0.4-0.5H149z M134.6,113.9c0-0.3,0.1-0.4,0.4-0.5h5.9
	c8.7,0,14.2,2,16.4,5.9v0.1c1.2,1.6,1.6,3,1.7,3.8c0.9,2.4,1.4,5.4,1.4,9c0,3.8-0.5,7.1-1.6,9.9c-2.1,6.4-6.8,9.6-14.1,9.6h-10.2
	L134.6,113.9L134.6,113.9z M124.2,121.8V121c5.6-7.2,8.4-10.8,8.6-10.8c0,0.2,0.1,0.4,0.2,0.7L124.2,121.8z M132.8,78.9v0.5
	c-5.6,7.2-8.4,10.8-8.6,10.8v-0.5C129.7,82.5,132.6,78.9,132.8,78.9z M124.2,88.3v-0.5c5.6-7.2,8.4-10.8,8.6-10.8v0.5
	C127.2,84.7,124.4,88.3,124.2,88.3z M132.8,81.1v0.5c-5.6,7.2-8.4,10.8-8.6,10.8V92C129.7,84.8,132.6,81.1,132.8,81.1z M132.8,83.1
	v0.5c-5.6,7.2-8.4,10.8-8.6,10.8v-0.5C129.7,86.7,132.6,83.1,132.8,83.1z M132.8,85.1v0.7c-5.6,7.2-8.4,10.8-8.6,10.8v-0.7
	C129.7,88.7,132.6,85.1,132.8,85.1z M132.8,87.3v0.5c-5.6,7.2-8.4,10.8-8.6,10.8v-0.5C129.7,90.9,132.6,87.3,132.8,87.3z
	 M132.8,89.3V90c-5.6,7.2-8.4,10.8-8.6,10.8v-0.7C129.7,92.9,132.6,89.3,132.8,89.3z M132.8,91.5V92c-5.6,7.2-8.4,10.8-8.6,10.8
	v-0.5C129.7,95.1,132.6,91.5,132.8,91.5z M132.8,93.5v0.7c-5.6,7.2-8.4,10.8-8.6,10.8v-0.7C129.7,97.1,132.6,93.5,132.8,93.5z
	 M132.8,95.7v0.5c-5.6,7.2-8.4,10.8-8.6,10.8v-0.5C129.7,99.3,132.6,95.7,132.8,95.7z M132.8,97.6v0.7c-5.6,7.2-8.4,10.8-8.6,10.8
	v-0.7C129.7,101.3,132.6,97.6,132.8,97.6z M132.8,99.9v0.5c-5.6,7.2-8.4,10.8-8.6,10.8v-0.5C129.7,103.5,132.6,99.9,132.8,99.9z
	 M132.8,101.8v0.7c-5.6,7.2-8.4,10.8-8.6,10.8v-0.7C129.7,105.4,132.6,101.8,132.8,101.8z M132.8,104.1v0.5
	c-5.6,7.2-8.4,10.8-8.6,10.8v-0.5C129.7,107.7,132.6,104.1,132.8,104.1z M132.8,106v0.7c-5.6,7.2-8.4,10.8-8.6,10.8v-0.7
	C129.7,109.6,132.6,106,132.8,106z M132.8,108.2v0.5c-5.6,7.2-8.4,10.8-8.6,10.8V119C129.7,111.9,132.6,108.2,132.8,108.2z
	 M132.8,74.7v0.5c-5.7,7.4-8.6,11.1-8.8,11.1v-0.5C129.7,78.4,132.6,74.7,132.8,74.7z M131.2,74.7h0.4c-5,6.5-7.6,9.8-7.8,9.9v-0.5
	C128.6,77.9,131.1,74.7,131.2,74.7z M129.5,74.7h0.6l-6.3,8.1c-0.2,0-0.3-0.2-0.4-0.5C127.3,77.3,129.3,74.8,129.5,74.7z
	 M127.9,74.7h0.4c-3.1,4.1-4.8,6.3-5.1,6.4H123v-0.3C126.1,76.8,127.7,74.7,127.9,74.7z M126.1,74.7h0.6l-3.9,5.2
	c-0.2,0-0.3-0.2-0.4-0.5C124.7,76.3,126,74.7,126.1,74.7z M124.6,74.7h0.4c-1.8,2.5-2.8,3.7-2.9,3.7h-0.2v-0.3
	C123.5,75.9,124.4,74.8,124.6,74.7z M122.8,74.7h0.6l-2,2.7c-0.2,0-0.3-0.2-0.4-0.5C122,75.5,122.6,74.7,122.8,74.7z M121.3,74.7
	h0.4c-0.6,1-1,1.5-1.2,1.5h-0.4C120.7,75.2,121.1,74.7,121.3,74.7z M119.1,75.2c0-0.3,0.1-0.4,0.4-0.5h0.6c-0.2,0.5-0.4,0.7-0.6,0.7
	h-0.4V75.2z M122.6,197.2c0.1,0.2,0.1,0.5,0.2,0.7c0.1,0.3,0.2,0.6,0.3,0.9c0.1,0.3,0.2,0.6,0.3,1c0.1,0.3,0.3,0.7,0.4,1
	c0.1,0.3,0.3,0.7,0.4,1c0.2,0.3,0.3,0.7,0.5,1s0.3,0.7,0.5,1c0.3,0.6,0.6,1.2,0.9,1.7c0.5,1,0.9,1.6,0.9,1.6l0,0
	c0,0-0.3-0.7-0.8-1.7c-0.2-0.5-0.5-1.1-0.8-1.7c-0.2-0.3-0.3-0.6-0.4-1c-0.1-0.3-0.3-0.7-0.4-1c-0.1-0.3-0.3-0.7-0.4-1
	c-0.1-0.3-0.3-0.7-0.4-1c-0.1-0.3-0.3-0.6-0.4-0.9c0-0.2-0.1-0.3-0.2-0.4s-0.1-0.3-0.1-0.4c-0.1-0.3-0.2-0.5-0.3-0.7
	s-0.1-0.4-0.2-0.6c0-0.2-0.1-0.3-0.1-0.4s0-0.1,0-0.1l0,0c0,0,0,0.2,0.1,0.5C122.5,196.8,122.5,197,122.6,197.2z M143.7,46.2
	l-0.9,2.2c12.9,5.3,23.9,14.1,31.8,25.6c8.1,11.7,12.3,25.5,12.3,39.7c0,14.7-4.5,28.7-13,40.7c-4.1,5.7-9,10.8-14.6,15.2
	c-5.7,4.3-11.9,7.8-18.6,10.3l0.8,2.3c6.9-2.6,13.4-6.2,19.3-10.7c5.8-4.5,10.9-9.7,15.1-15.7c8.8-12.4,13.4-26.9,13.4-42.1
	c0-14.8-4.4-29-12.8-41.1C168.4,60.7,157,51.6,143.7,46.2z M185.4,164.9c-1.5-1.3-3-1.8-4.7-1.8c-1.3,0.1-2.5,0.7-3.4,1.7
	c-0.9,1.1-1.3,2.3-1.1,3.6c0.2,1.7,1,3.1,2.6,4.3c1.5,1.3,3.1,1.8,4.7,1.8c1.3-0.1,2.5-0.6,3.4-1.7c0.9-1.1,1.3-2.3,1.1-3.6
	C187.7,167.5,186.9,166.1,185.4,164.9z M186.1,172.3c-1.4,1.7-3.9,1.5-6.4-0.6c-2.6-2.2-3.2-4.5-1.7-6.2c1.4-1.7,3.8-1.6,6.4,0.6
	C187,168.2,187.6,170.6,186.1,172.3z M23.4,110.6c-0.1,1.4,0.3,2.5,1.2,3.5c0.5,0.6,1.1,0.9,1.5,1c0.2,0,0.4-0.2,0.4-0.3
	c0-0.3-0.6-0.6-1.1-1.2c-0.6-0.8-0.9-1.6-0.9-2.6c0.1-2.4,2.2-3.8,5.4-3.6c3.3,0.2,5.3,1.9,5.2,4c-0.1,1.2-0.7,2.1-1.9,2.7
	c-0.6,0.3-1,0.2-1,0.6c0,0.2,0.1,0.3,0.4,0.3c1.2,0.1,1.9,0,2.1-0.1c0.4-0.3,1.2-1.6,1.2-3.3c0.1-1.7-0.5-3-1.7-4.1
	c-1.1-1.1-2.6-1.6-4.4-1.7C26,105.6,23.6,107.5,23.4,110.6z M35.6,82.7c1.8,0.8,3.4,1,5,0.5c1.3-0.4,2.3-1.3,2.9-2.5
	s0.6-2.6,0.2-3.8c-0.6-1.6-1.8-2.7-3.5-3.6c-1.8-0.8-3.4-1-5-0.5c-1.3,0.4-2.3,1.2-2.9,2.5c-0.6,1.3-0.6,2.6-0.2,3.8
	C32.7,80.7,33.8,81.9,35.6,82.7z M33,75.7c1-2,3.4-2.4,6.4-1s4.2,3.6,3.2,5.6s-3.3,2.4-6.4,1C33.2,79.9,32.1,77.7,33,75.7z
	 M191.7,148.7c0.8,0.3,1.7,0.3,2.4-0.1c0.7-0.4,1.2-1.1,1.9-2.1c1-1.5,1.8-2.2,3.1-1.6c1.4,0.6,1.9,2,1.2,3.7
	c-0.4,1.1-1.2,1.7-2.4,1.9c-0.7,0.1-1.2-0.1-1.3,0.3c-0.1,0.3,0,0.5,0.3,0.6c0.4,0.2,1.3,0.1,2.2-0.3c1-0.4,1.7-1.2,2.1-2.3
	c0.9-2.2,0.1-4.3-2.1-5.2c-1.1-0.5-2.1-0.4-3,0.3c-0.8,0.5-1.2,1.5-1.9,2.5c-0.8,1.1-1.6,1.4-2.6,1c-1.2-0.5-1.6-1.6-1.1-2.7
	c0.3-0.7,0.8-1.2,1.6-1.6c0.8-0.4,1.3-0.4,1.4-0.6c0.1-0.2,0-0.3-0.4-0.4c-0.1,0-0.2-0.1-0.3-0.1c-0.5-0.2-0.8-0.3-1.2-0.2
	c-0.6,0.3-1.4,1.1-1.9,2.3C188.9,146.2,189.7,148,191.7,148.7z M186.2,154.2c0-0.4,0-0.7-0.2-0.8c-0.3-0.2-0.4,0-0.6,0.3l-0.9,1.6
	c-0.2,0.4-0.3,0.6,0,0.7c0.3,0.2,0.6-0.3,1-0.3c0.2,0,0.5,0.1,0.8,0.3l7,4.1c0.4,0.2,0.6,0.4,0.7,0.7c0,0.4-0.1,0.7,0.2,0.8
	c0.3,0.2,0.4,0,0.6-0.3l0.9-1.6c0.2-0.4,0.3-0.6,0-0.7c-0.3-0.2-0.6,0.2-1,0.3c-0.2,0-0.5-0.1-0.8-0.3l-7-4.1
	C186.4,154.6,186.2,154.4,186.2,154.2z M26.9,138.6c0.1,0.4,0.2,0.5,0.5,0.4c0.4-0.1,0.2-0.6,0.5-0.9c0.2-0.2,0.5-0.3,0.8-0.4l7.7-2
	c0.1,0,0.2,0,0.3-0.1c0.6-0.2,0.8-0.2,1,0.4c0.2,0.8,0.2,1.4-0.2,2.1c-0.2,0.4-0.5,0.7-0.4,1c0,0.2,0.1,0.2,0.4,0.1
	c1-0.3,1.5-0.6,1.6-0.8s0-0.4-0.1-0.9l-1.6-6c0-0.1,0-0.1,0-0.2c-0.1-0.4-0.2-0.6-0.4-0.7c-0.1,0-0.8-0.1-1.7,0.2
	c-0.2,0.1-0.3,0.1-0.3,0.3c0.1,0.4,0.6,0.4,1.1,0.8c0.5,0.4,0.8,0.9,1,1.6c0.2,0.6,0,0.7-0.6,0.8c-0.1,0-0.2,0-0.3,0.1l-7.7,2
	c-0.5,0.1-0.8,0.2-1,0c-0.3-0.3-0.4-0.6-0.7-0.5c-0.2,0.1-0.3,0.2-0.2,0.6L26.9,138.6z M92.9,183.2l0.7-2.3
	c-7.1-2.3-13.7-5.6-19.7-10c-6-4.3-11.2-9.4-15.6-15.3c-9.1-12.2-13.9-26.7-13.9-41.9c0-8.3,1.4-16.4,4.3-24.1
	c2.7-7.5,6.7-14.4,11.8-20.5c10.2-12.4,24.5-21,40.2-24.4l-0.5-2.4c-16.2,3.4-31,12.4-41.5,25.2c-5.3,6.4-9.4,13.5-12.2,21.3
	c-2.9,8-4.4,16.4-4.4,25c0,15.7,5,30.7,14.4,43.3c4.5,6.1,9.9,11.4,16.1,15.8C78.7,177.4,85.6,180.8,92.9,183.2z M170.2,187.7
	c0.2,0.2,0.4,0.2,0.7-0.1l3.2-2.6c0.9-0.8,1.7-1.4,2-2.4c0.2-0.9,0-2-0.7-2.8c-1.1-1.3-2.8-1.6-4.4-0.6c0.8-1.4,0.8-2.8,0.1-3.6
	c-1.1-1.4-2.5-1.4-4.2,0l-3.3,2.7c-0.3,0.3-0.4,0.4-0.3,0.7c0.2,0.3,0.7,0,1,0.1c0.2,0.1,0.4,0.3,0.6,0.5l5.1,6.3
	c0.3,0.4,0.5,0.6,0.4,0.9C170.2,187.2,170,187.4,170.2,187.7z M166.1,179.1c-0.8-1-0.8-1.1,0.5-2.3c1.5-1.2,2.5-1.4,3.3-0.4
	c1,1.2,0.4,2.9-1.7,5.3L166.1,179.1z M168.8,182.5c0.3-0.4,0.9-1.1,1.7-2.2c1.5-0.8,2.9-0.6,3.7,0.4c1,1.2,0.6,2.6-1.2,4.1
	c-1.1,0.9-1.4,1.1-2.3,0.1L168.8,182.5z M24.3,125.3c0,0.4,0.1,0.6,0.4,0.6c0.4,0,0.4-0.6,0.6-0.8c0.2-0.2,0.4-0.2,0.8-0.2l8.1-0.9
	c0.5,0,0.8,0,0.9,0.2c0.3,0.3,0.4,0.6,0.7,0.5c0.3,0,0.3-0.3,0.3-0.7l-0.2-1.8c0-0.4-0.1-0.6-0.4-0.6c-0.4,0-0.4,0.6-0.6,0.8
	s-0.4,0.2-0.8,0.2l-8.1,0.9c-0.5,0-0.8,0-0.9-0.2c-0.3-0.3-0.4-0.6-0.7-0.5c-0.3,0-0.3,0.3-0.3,0.7L24.3,125.3z M203,135.9
	c-0.6,0.2-1.2,0.1-1.2,0.5c-0.1,0.3,0.1,0.5,0.4,0.6c0.5,0.1,1.3-0.1,2.1-0.6c0.9-0.6,1.4-1.5,1.7-2.6c0.5-2.4-0.7-4.3-3-4.8
	c-1.2-0.3-2.1,0-2.9,0.8c-0.6,0.6-0.9,1.7-1.5,2.8c-0.6,1.2-1.3,1.7-2.4,1.4c-1.2-0.3-1.9-1.3-1.6-2.5c0.2-0.7,0.6-1.4,1.3-1.8
	c0.7-0.5,1.3-0.6,1.3-0.8s-0.1-0.3-0.5-0.3c-0.1,0-0.2,0-0.3-0.1c-0.6-0.1-0.9-0.2-1.2,0c-0.5,0.4-1.2,1.4-1.4,2.6
	c-0.5,2.2,0.7,3.8,2.7,4.2c0.9,0.2,1.7,0,2.4-0.5c0.6-0.5,1-1.3,1.5-2.4c0.7-1.6,1.4-2.4,2.8-2.1c1.4,0.3,2.2,1.6,1.9,3.4
	C204.8,134.7,204.1,135.4,203,135.9z M33.8,154.1c-0.4-0.2-0.5-0.4-0.8-0.3c-0.3,0.1-0.3,0.3-0.1,0.8l0.6,1.2
	c0.2,0.5,0.4,0.7,0.6,0.6c0.4-0.2,0.3-0.6,0.5-0.9c0.3-0.4,1.6-1.3,3.4-3c3.4-3.2,5-5.2,4.8-5.6c-0.1-0.3-2.2-0.4-6.2,0
	c-3.4,0.3-5.4,0.7-5.9,0.6c-0.2,0-0.4-0.3-0.6-0.2c-0.3,0.1-0.2,0.3,0,0.8l0.5,1.2c0.2,0.4,0.4,0.6,0.6,0.5c0.3-0.2,0.2-0.4,0.3-0.7
	c0-0.2,0.2-0.4,0.3-0.5c0.4-0.2,1.3-0.4,2.8-0.5l1.9,4.2c-1.2,1.1-1.9,1.7-2.2,1.8C34.1,154.1,33.9,154.1,33.8,154.1z M35.5,147.9
	c1.8-0.2,3.6-0.3,5.5-0.3c-1.3,1.4-2.5,2.7-3.8,3.9L35.5,147.9z M119.9,23.9c0.1,0.3,0.2,0.6,0.4,0.9c0.1,0.3,0.3,0.6,0.4,1
	c0.1,0.3,0.3,0.7,0.4,1.1c0.1,0.4,0.2,0.7,0.3,1.1s0.2,0.8,0.3,1.1c0,0.2,0.1,0.4,0.1,0.5c0,0.2,0.1,0.4,0.1,0.5
	c0,0.4,0.1,0.7,0.1,1s0,0.6,0,0.9c0,0.1,0,0.3,0,0.4s0,0.3,0,0.4c0,0.2-0.1,0.4-0.1,0.6s-0.1,0.3-0.1,0.4s0,0.1,0,0.1s0,0,0.1-0.1
	c0-0.1,0.1-0.2,0.2-0.4s0.2-0.4,0.2-0.6c0-0.1,0.1-0.2,0.1-0.4c0-0.1,0.1-0.3,0.1-0.4c0-0.3,0.1-0.6,0.1-1c0-0.3,0-0.7,0-1.1
	c0-0.2,0-0.4-0.1-0.6c0-0.1,0-0.2,0-0.3c0-0.1,0-0.2-0.1-0.3c-0.1-0.4-0.2-0.8-0.3-1.2c-0.1-0.4-0.2-0.8-0.4-1.1
	c-0.1-0.4-0.3-0.7-0.4-1.1c-0.1-0.3-0.3-0.7-0.5-1s-0.3-0.6-0.5-0.8c-0.3-0.5-0.6-0.9-0.8-1.2s-0.3-0.4-0.3-0.4s0.1,0.2,0.2,0.5
	C119.5,22.9,119.7,23.4,119.9,23.9z M42.7,170.5c0.2,0.2,0.4,0.1,0.9-0.3l7.3-5.2c0,0,0.1-0.1,0.2-0.1c0.4-0.3,0.6-0.5,0.9-0.4
	c0.4,0,0.6,0.4,0.9,0.2c0.2-0.2,0.1-0.4-0.2-0.8l-0.8-1.2c-0.2-0.3-0.4-0.4-0.6-0.3c-0.2,0.2-0.1,0.3-0.1,0.6c0,0.2,0.1,0.3,0,0.5
	s-0.4,0.4-0.9,0.8L45,168c1-2.3,1.9-4.6,2.7-7c0.6-1.7,0.9-2.7,0.8-3c0-0.1-0.1-0.3-0.3-0.5l-0.7-1c-0.3-0.3-0.4-0.5-0.7-0.3
	c-0.3,0.2-0.1,0.4,0,0.8c0,0.2,0.1,0.4,0,0.6c-0.1,0.2-0.3,0.4-0.7,0.6l-5.6,4.1c-0.8,0.5-1.3,0.8-1.6,0.8c-0.3,0-0.5-0.2-0.8-0.3
	c-0.1,0-0.2,0-0.3,0.1c-0.2,0.1-0.1,0.3,0.1,0.7l1.2,1.6c0.3,0.4,0.5,0.5,0.7,0.4c0.3-0.2,0.1-0.4,0-0.8c0-0.2-0.1-0.4,0.1-0.6
	c0.1-0.2,0.4-0.4,0.8-0.8l6.4-4.6c-0.8,3.1-2,6.4-3.6,9.7C42.9,169.6,42.5,170.2,42.7,170.5z M208,116.3c0-1.4-0.5-2.6-1.4-3.5
	c-1.2-1.2-2.7-1.7-4.7-1.8c-2,0-3.5,0.5-4.8,1.6c-1,0.9-1.5,2.1-1.6,3.5c0,1.4,0.5,2.6,1.4,3.5c1.2,1.2,2.7,1.7,4.7,1.8
	c2,0,3.5-0.5,4.8-1.6C207.4,118.9,208,117.7,208,116.3z M201.7,119.8c-3.4-0.1-5.3-1.5-5.2-3.8c0-2.2,2-3.6,5.4-3.6
	c3.4,0.1,5.3,1.5,5.3,3.8C207,118.5,205,119.9,201.7,119.8z M25.9,93c-0.3,1.3-0.2,2.5,0.5,3.7c0.4,0.7,0.9,1.1,1.2,1.2
	c0.2,0,0.4-0.1,0.5-0.3c0.1-0.3-0.5-0.7-0.9-1.4c-0.5-0.9-0.6-1.8-0.3-2.7c0.6-2.3,2.9-3.3,6-2.5c3.2,0.8,4.8,2.9,4.3,5
	c-0.3,1.1-1.1,1.9-2.4,2.3c-0.6,0.2-1,0-1.1,0.4c0,0.2,0,0.3,0.3,0.4c1.1,0.3,1.8,0.4,2.1,0.3c0.5-0.2,1.4-1.3,1.9-3
	c0.4-1.6,0.1-3-0.8-4.4c-0.9-1.3-2.2-2.1-4-2.5C29.4,88.6,26.6,90,25.9,93z M97.7,12.1c0.2,0.2,0.4,0.4,0.6,0.6
	c0.4,0.4,0.8,0.8,1.2,1.2c0.8,0.8,1.5,1.7,2.1,2.6c0.2,0.2,0.3,0.5,0.5,0.7s0.3,0.5,0.5,0.7c0.1,0.2,0.3,0.5,0.4,0.7
	c0.1,0.3,0.3,0.5,0.4,0.7c0.1,0.3,0.2,0.5,0.3,0.8c0,0.1,0.1,0.3,0.1,0.4s0.1,0.3,0.1,0.4c0.1,0.3,0.1,0.5,0.2,0.8
	c0,0.1,0,0.3,0,0.4v0.1c-0.5-0.1-1.1-0.2-1.6-0.3c-0.3-0.1-0.6-0.1-1-0.2c-0.1,0-0.2,0-0.2-0.1c-0.1,0-0.2,0-0.2-0.1H101h-0.1
	c-0.1,0-0.1-0.1-0.2-0.1l-0.6-0.3l0.2,0.6c0.1,0.3,0.1,0.5,0.2,0.8c0.1,0.3,0.2,0.5,0.2,0.7c0.2,0.5,0.3,1,0.5,1.5
	c0.4,1,0.8,1.9,1.3,2.8s1,1.8,1.6,2.6c0.1,0.1,0.2,0.2,0.2,0.3c0.1,0.1,0.2,0.2,0.3,0.3l0.3,0.3l0.3,0.3c0.1,0.1,0.2,0.2,0.3,0.3
	l0,0c-0.3-0.1-0.6-0.2-0.9-0.2c-0.2,0-0.3-0.1-0.5-0.1s-0.3-0.1-0.5-0.2l-0.2-0.1c-0.1,0-0.2-0.1-0.2-0.1c-0.1,0-0.1-0.1-0.2-0.1
	c-0.1,0-0.1-0.1-0.2-0.1l-0.8-0.5l0.3,0.8c0.1,0.2,0.2,0.4,0.3,0.6s0.2,0.4,0.3,0.6s0.2,0.4,0.3,0.6s0.2,0.4,0.3,0.6
	s0.2,0.4,0.4,0.6c0.1,0.2,0.3,0.4,0.4,0.5c0.1,0.2,0.3,0.4,0.4,0.5c0.1,0.2,0.3,0.4,0.4,0.5l0.4,0.5c0.1,0.2,0.3,0.3,0.5,0.5
	l0.2,0.2l0.3,0.2c0.2,0.2,0.3,0.3,0.5,0.5l0.5,0.4l0.1,0.1l0.1,0.1l0.3,0.2c0.2,0.1,0.3,0.3,0.5,0.3h-0.1c-0.1,0-0.3,0-0.4,0
	c-0.1,0-0.1,0-0.2,0c-0.1,0-0.1,0-0.2,0c-0.1,0-0.3,0-0.4,0c-0.1,0-0.1,0-0.2,0c-0.1,0-0.1,0-0.2,0c-0.1,0-0.1,0-0.2,0l-0.2-0.1
	l-0.1-0.1l-0.1-0.1l-0.7-0.5l0.3,0.8c0.3,0.6,0.6,1.2,0.9,1.9c0.3,0.5,0.6,1,0.9,1.5c-0.1,0.2-0.2,0.3-0.3,0.5s-0.3,0.4-0.5,0.6
	l-0.1,0.1l-0.1,0.1c-0.1,0.1-0.2,0.2-0.3,0.3c-0.2,0.1-0.4,0.3-0.5,0.3l-1.4,0.3l1.4,0.3c0.2,0,0.3,0.1,0.5,0.1
	c-0.1,0-0.2,0.1-0.3,0.2c-0.2,0.1-0.4,0.3-0.6,0.4c-0.2,0.2-0.3,0.3-0.5,0.5c-0.1,0.2-0.3,0.4-0.3,0.7c-0.1,0.2-0.1,0.5-0.2,0.7
	c-0.1,0.2-0.2,0.5-0.2,0.7c-0.1,0.2-0.2,0.5-0.3,0.7s-0.2,0.4-0.3,0.7c-0.2,0.4-0.4,0.9-0.6,1.3c-0.1,0.2-0.2,0.4-0.3,0.6
	s-0.2,0.4-0.4,0.6c-0.1,0.2-0.3,0.4-0.4,0.6c-0.1,0.1-0.1,0.2-0.2,0.3l-0.1,0.1l-0.1,0.1l-0.6,0.6l0.8-0.1c0.4,0,0.8-0.1,1.1-0.1
	c0,0.1-0.1,0.2-0.1,0.3c0,0.2-0.1,0.3-0.1,0.5s-0.1,0.4-0.1,0.5c0,0.4-0.1,0.7-0.1,1.1s0,0.7,0.1,1.1c0,0.4,0.1,0.7,0.2,1.1
	c0.1,0.3,0.2,0.7,0.3,1s0.3,0.7,0.4,1c0.2,0.3,0.3,0.6,0.6,0.9l0.3,0.4l0.2-0.4c0.2-0.3,0.5-0.6,0.8-0.8c0.1,0,0.1-0.1,0.2-0.1
	c0.1,0.4,0.3,0.8,0.5,1.3s0.5,1.1,0.8,1.6c0.1,0.3,0.2,0.5,0.3,0.8s0.1,0.6,0,0.8l0,0l0,0l0,0c0.1-0.2,0.4-0.4,0.6-0.5
	c0.1,0,0.2-0.1,0.3-0.2v0.1c0.1,0.3,0.2,0.6,0.3,1c0.1,0.3,0.3,0.6,0.4,0.9c0.1,0.1,0.2,0.3,0.2,0.4c0.1,0.1,0.2,0.3,0.3,0.4
	l0.2,0.3l0.1-0.3v-0.1c0,0,0,0,0-0.1c0,0,0,0,0-0.1c0,0,0,0,0-0.1l0.1-0.1l0.1-0.1c0.1-0.1,0.2-0.1,0.3-0.2c0.1,0,0.1-0.1,0.2-0.1
	l0,0c0.1,0.5,0.2,0.9,0.3,1.4s0.2,1.1,0.4,1.6c-0.1-0.5-0.1-1.1-0.2-1.6c-0.1-0.5-0.1-1.1-0.2-1.6V65h-0.2c-0.1,0-0.1,0-0.2,0.1
	c-0.1,0-0.1,0-0.2,0.1c-0.1,0.1-0.3,0.1-0.4,0.2c-0.1,0-0.1,0.1-0.2,0.1c-0.1,0-0.1,0.1-0.2,0.1c0,0,0,0-0.1,0.1c0,0,0-0.1-0.1-0.1
	c-0.1-0.1-0.1-0.3-0.2-0.4c-0.1-0.3-0.3-0.6-0.4-0.9c-0.1-0.3-0.2-0.6-0.3-0.9c0-0.1,0-0.2,0-0.2c0.5-0.2,1-0.4,1.5-0.6
	c0.3-0.1,0.5-0.2,0.8-0.4c0.3-0.1,0.5-0.3,0.7-0.5s0.5-0.3,0.7-0.5s0.4-0.4,0.6-0.6l0,0c0.1,0.6,0.3,1.2,0.4,1.8
	c0.1,0.4,0.2,0.9,0.2,1.3s0,0.9-0.2,1.3l0,0l0,0l0,0l0,0l0,0l0,0c0.2-0.4,0.3-0.8,0.3-1.3c0-0.4,0-0.9-0.1-1.3
	c-0.1-0.9-0.3-1.7-0.4-2.6c0-0.4-0.1-0.7-0.1-1.1c0.2-0.1,0.3-0.1,0.5-0.2c0.3-0.1,0.6-0.3,0.9-0.5c0.3-0.2,0.6-0.4,0.8-0.6
	c0.3-0.2,0.5-0.5,0.7-0.8c0.1-0.1,0.2-0.3,0.3-0.4c0-0.1,0.1-0.1,0.1-0.2l0.1-0.1l0,0l0,0l0,0l0,0l0,0v-0.1l0.1-0.2
	c0-0.1,0.1-0.2,0.1-0.3v-0.1l0,0h0.1c0.4-0.2,0.9-0.3,1.3-0.6c0.2-0.1,0.4-0.2,0.6-0.3c0,0,0.1,0,0.1-0.1c0,0.3-0.1,0.5-0.2,0.8l0,0
	l0,0l0,0l0,0l0,0l0,0l0,0l0,0l0,0l0,0l0,0c0.1-0.2,0.3-0.4,0.4-0.5c0,0.2,0,0.4,0.1,0.7c0.1,0.5,0.2,0.9,0.3,1.4
	c0.1,0.2,0.1,0.4,0.2,0.7c0.1,0.2,0.2,0.4,0.2,0.6c0.2,0.4,0.4,0.8,0.6,1.3c0.2,0.3,0.4,0.7,0.6,1l0,0c-0.3,0.3-0.6,0.6-1,0.8
	c-0.3,0.2-0.5,0.4-0.8,0.6c-0.1,0.1-0.2,0.1-0.3,0.2c-0.3,0.2-0.7,0.4-1,0.6c-0.8,0.4-1.6,0.8-2.4,1.1c-0.4,0.2-0.8,0.4-1.1,0.7
	c-0.3,0.3-0.7,0.6-0.8,1l0,0c0.2-0.4,0.5-0.7,0.9-0.9c0.4-0.2,0.8-0.4,1.1-0.6c0.2-0.1,0.4-0.2,0.6-0.3c0,0.2,0,0.4,0,0.6
	c0,0.3,0.1,0.6,0.1,0.9c0.1,0.6,0.4,1.1,0.6,1.7c0.2,0.4,0.4,0.9,0.6,1.3c0,0,0,0-0.1,0.1c0,0-0.1,0.1-0.2,0.1
	c-0.1,0-0.1,0.1-0.2,0.1c-0.3,0.1-0.5,0.2-0.8,0.3c-0.3,0.1-0.6,0.1-0.9,0.1c-0.2,0-0.3,0-0.5,0c0,0-0.1,0-0.2,0l0,0v-0.1
	c0-0.1,0-0.1,0-0.2s0-0.1,0-0.2s0-0.3-0.1-0.4c0-0.1,0-0.1,0-0.2s0-0.1-0.1-0.2l-0.1-0.2l-0.1,0.1c-0.5,0.3-1,0.5-1.4,0.7
	c-0.5,0.3-1,0.5-1.4,0.8c0.5-0.2,1-0.4,1.5-0.6c0.4-0.2,0.9-0.4,1.3-0.6l0,0c0,0.1,0,0.1,0,0.2s0,0.3,0,0.4s0,0.1,0,0.2s0,0.1,0,0.2
	c0,0,0,0,0,0.1c0,0,0,0,0,0.1c0,0,0,0,0,0.1v0.1l-0.2,0.3h0.3c0.2,0,0.3,0,0.5,0s0.3,0,0.5,0c0.3,0,0.6-0.1,0.9-0.1
	c0.3-0.1,0.6-0.1,0.9-0.3c0.1,0,0.2-0.1,0.2-0.1c0.1,0,0.1-0.1,0.2-0.1l0.1,0.6c0.1,0.5-0.1,1.1-0.2,1.4c0.1-0.2,0.4-0.7,0.8-1l0,0
	c0.1,0,0.1-0.1,0.2-0.1c0.2-0.1,0.5-0.3,0.7-0.3c0.5-0.2,1-0.4,1.5-0.6c0.3-0.1,0.5-0.2,0.8-0.4c0.1-0.1,0.2-0.1,0.4-0.2
	c0,0.2,0.1,0.5,0.1,0.7c0,0.4,0,0.8-0.2,1.1l-0.3,0.4h0.5c0.4,0,0.7,0,1.1-0.1c0.4,0,0.7-0.1,1.1-0.2c0.3-0.1,0.7-0.2,1-0.3
	c0.3-0.1,0.7-0.3,1-0.5s0.6-0.4,0.9-0.6c0.3-0.2,0.6-0.4,0.8-0.7c0.1-0.1,0.3-0.3,0.4-0.4c0.1-0.1,0.2-0.3,0.4-0.4
	c0.1-0.1,0.2-0.2,0.3-0.3c0,0,0,0.1,0.1,0.1c0.2,0.3,0.4,0.7,0.7,1l0.6,0.8v-1c0-0.2,0-0.4,0.1-0.6c0-0.1,0.1-0.2,0.1-0.3l0.1-0.3
	c0.1-0.2,0.2-0.4,0.3-0.6s0.2-0.4,0.3-0.6s0.2-0.4,0.3-0.6s0.2-0.4,0.3-0.6s0.3-0.4,0.4-0.6c0.1-0.2,0.3-0.4,0.4-0.6
	c0.1-0.2,0.3-0.4,0.4-0.6c0.1-0.1,0.1-0.2,0.2-0.3c0-0.1,0.1-0.1,0.1-0.2l0.1-0.2c0-0.1,0.1-0.2,0.1-0.3c0-0.1,0.1-0.2,0.1-0.4
	l0.1-0.4V60c0-0.2,0-0.5,0-0.7c0-0.1,0-0.2,0-0.4c0-0.1,0-0.1,0-0.2c0.2,0.2,0.4,0.4,0.6,0.6l1,1l-0.5-1.3c-0.1-0.2-0.1-0.4-0.1-0.6
	c0-0.1,0-0.2,0-0.3v-0.2v-0.2c0.1-0.2,0.1-0.5,0.2-0.7c0.1-0.2,0.2-0.5,0.3-0.7l0.5-1.4c0.1-0.2,0.2-0.5,0.3-0.7
	c0-0.1,0.1-0.3,0.1-0.4s0.1-0.2,0.1-0.4l0.1-0.4v-0.4c0-0.1,0-0.3,0-0.4s0-0.3,0-0.4s0-0.3,0-0.4l-0.1-0.4c0-0.1,0-0.3-0.1-0.4
	c0-0.1,0-0.2-0.1-0.3c0.4,0.1,0.8,0.2,1.2,0.3s0.8,0.1,1.2,0.2l1.1,0.1l-0.9-0.7c-0.1-0.1-0.2-0.2-0.3-0.3l-0.1-0.1
	c0,0-0.1-0.1-0.1-0.2c-0.2-0.2-0.3-0.4-0.4-0.7c-0.1-0.1-0.1-0.2-0.2-0.3c0,0,0-0.1-0.1-0.1l0,0c0.1-0.2,0.2-0.4,0.2-0.7
	c0.1-0.2,0.2-0.4,0.2-0.7c0.1-0.4,0.3-0.9,0.4-1.3l0.2-0.7l0.1-0.7c0-0.2,0.1-0.5,0.1-0.7L138,43c0.1-0.5,0.2-0.9,0.2-1.4
	c0-0.2,0.1-0.5,0.1-0.7l0.1-0.7l0.1-0.7l0.1-0.7c0-0.5,0.1-0.9,0.1-1.4l0.1-1.4l0.1-0.7l-0.4,0.7c-0.2,0.4-0.5,0.8-0.7,1.2
	c-0.3,0.4-0.5,0.8-0.8,1.2c-0.3,0.4-0.6,0.8-0.9,1.1c-0.1,0.1-0.2,0.2-0.3,0.2c-0.1,0.1-0.2,0.1-0.3,0.2c0,0,0,0-0.1,0
	c0,0,0-0.1,0.1-0.1c0.1-0.2,0.2-0.4,0.3-0.6c0.2-0.4,0.4-0.9,0.5-1.4c0.1-0.2,0.1-0.5,0.1-0.7s0-0.5,0-0.7V36v-0.4
	c0-0.2,0-0.5-0.1-0.7c0-0.2-0.1-0.5-0.1-0.7s-0.1-0.5-0.2-0.7c-0.1-0.2-0.2-0.5-0.2-0.7c-0.1-0.2-0.2-0.4-0.3-0.7
	c-0.1-0.2-0.2-0.4-0.3-0.6l-0.2-0.3l-0.2-0.3c-0.1-0.2-0.2-0.4-0.4-0.6l-0.4-0.6c-0.1-0.2-0.3-0.4-0.4-0.6c-0.1-0.2-0.3-0.4-0.4-0.6
	c-0.3-0.4-0.6-0.8-0.9-1.1l-0.5-0.5c-0.2-0.2-0.3-0.3-0.5-0.5l-0.5-0.5l-0.5-0.5l-0.5-0.5l-0.5-0.5c-0.3-0.3-0.7-0.6-1.1-0.9
	l-0.5-0.5l-0.3-0.2l-0.3-0.2l-1.1-0.9l-0.7-0.6l0.3,0.9c0,0.1,0.1,0.3,0.1,0.5s0.1,0.3,0.1,0.5c0.1,0.3,0.2,0.6,0.2,0.9
	c0.1,0.3,0.1,0.6,0.1,0.9c0,0,0,0,0,0.1c0,0,0-0.1-0.1-0.1c-0.2-0.3-0.4-0.5-0.6-0.7c-0.2-0.2-0.4-0.5-0.6-0.7l-0.3-0.3
	c-0.1-0.1-0.2-0.2-0.3-0.3c-0.2-0.2-0.4-0.4-0.7-0.6s-0.5-0.4-0.7-0.6l-0.7-0.6c-0.2-0.2-0.5-0.4-0.7-0.5l-0.7-0.5
	c-0.2-0.2-0.5-0.3-0.7-0.5l-0.7-0.5c-0.3-0.2-0.5-0.3-0.7-0.5l-0.7-0.5c-0.3-0.2-0.5-0.3-0.8-0.5l-1.5-1l-0.8-0.5l0.3,0.8
	c0.1,0.3,0.3,0.7,0.4,1c0.1,0.3,0.2,0.7,0.3,1.1c0.1,0.3,0.2,0.7,0.2,1.1v0.1c0-0.1-0.1-0.1-0.1-0.2l-0.2-0.3c-0.3-0.4-0.7-0.7-1-1
	l-0.3-0.2c-0.1-0.1-0.2-0.1-0.3-0.2l-0.6-0.4c-0.4-0.3-0.8-0.5-1.2-0.8l-1.2-0.7c-0.4-0.2-0.8-0.4-1.3-0.6c-0.4-0.2-0.9-0.4-1.3-0.6
	l-0.7-0.3c-0.2-0.1-0.4-0.2-0.7-0.3l-1.3-0.5l-0.7-0.2l-0.7-0.2l-1.3-0.4c-0.2-0.1-0.4-0.1-0.7-0.2l-0.7-0.2l-1.3-0.4l-0.7-0.2
	c-0.2-0.1-0.5-0.1-0.7-0.2l-2.7-0.7L95.1,11l0.9,0.8C97.3,11.7,97.5,11.9,97.7,12.1z M107.2,40c-0.2-0.4-0.4-0.8-0.6-1.2
	c0.1,0,0.1,0,0.2,0.1c0.1,0,0.1,0,0.2,0c0.1,0,0.1,0,0.2,0c0.1,0,0.3,0,0.4,0c0.1,0,0.1,0,0.2,0c0.1,0,0.1,0,0.2,0
	c0.1,0,0.3,0,0.4,0c0.1,0,0.3,0,0.4,0s0.3,0,0.4,0l0.6-0.1l-0.3,0.3c-0.1,0.1-0.2,0.2-0.3,0.3c-0.1,0.1-0.2,0.2-0.2,0.3
	c-0.2,0.2-0.3,0.4-0.4,0.6l-0.7,1.1C107.7,40.9,107.5,40.5,107.2,40z M107.2,43.5l0.1-0.2l0.1-0.2c0.2-0.2,0.3-0.4,0.5-0.6
	c0.1-0.2,0.3-0.4,0.4-0.7l0.8-1.3c0.1-0.2,0.3-0.4,0.4-0.6c0.1-0.1,0.1-0.2,0.2-0.3c0.1-0.1,0.1-0.2,0.2-0.3l0.2-0.3l0.3-0.3
	c0.1-0.1,0.2-0.2,0.3-0.2s0.2-0.2,0.3-0.2c0.1-0.1,0.2-0.1,0.3-0.2l0.3-0.2c0.1-0.1,0.2-0.1,0.3-0.2s0.2-0.1,0.3-0.2c0,0,0,0,0.1,0
	c0.2,0.2,0.5,0.4,0.7,0.6c0.3,0.2,0.6,0.5,1,0.7c0.3,0.2,0.7,0.4,1,0.6c0.1,0,0.1,0.1,0.2,0.1l-0.1,0.1L115,40
	c-0.2,0.2-0.3,0.4-0.4,0.6c-0.1,0.2-0.3,0.4-0.3,0.7c-0.2,0.5-0.3,0.9-0.4,1.4c-0.1,0.5-0.1,1-0.2,1.4c0,0.1,0,0.2,0,0.3
	c-0.8,0-1.6,0-2.5-0.1c-0.8-0.1-1.7-0.2-2.5-0.3c-0.4-0.1-0.8-0.1-1.3-0.2c-0.1,0-0.3,0-0.4-0.1C107,43.7,107.1,43.6,107.2,43.5z
	 M125.9,59c0-0.3-0.1-0.7-0.1-1c-0.1-0.3-0.2-0.6-0.2-1c-0.1-0.3-0.2-0.6-0.2-1c-0.2-0.6-0.3-1.3-0.3-1.9c0-0.3,0-0.6,0-1
	c0-0.3,0.1-0.6,0.1-0.9c0-0.2,0.1-0.3,0.1-0.5c0-0.1,0.1-0.3,0.2-0.4c0-0.1,0.1-0.1,0.1-0.2c0.1,0.2,0.2,0.3,0.3,0.5
	c0.2,0.4,0.5,0.8,0.7,1.2c0.3,0.4,0.5,0.8,0.8,1.1c0.3,0.4,0.6,0.7,0.9,1l0.6,0.6l-0.2-0.8c-0.1-0.4-0.1-0.9,0.1-1.3
	c0.1-0.1,0.1-0.3,0.2-0.4c0.4,0.7,0.9,1.3,1.4,1.9c0.3,0.3,0.5,0.6,0.8,0.9l-0.1,0.1c-0.2,0.2-0.4,0.4-0.7,0.6
	c-0.2,0.2-0.5,0.4-0.7,0.6c-0.3,0.2-0.5,0.3-0.8,0.5c-0.5,0.3-1.1,0.6-1.7,0.9c-0.3,0.2-0.5,0.3-0.8,0.5s-0.5,0.5-0.6,0.7
	C125.9,59.7,125.9,59.4,125.9,59z M128.4,53.3c-0.1,0.2-0.2,0.5-0.2,0.8l0,0c-0.1-0.2-0.3-0.3-0.4-0.5c-0.3-0.4-0.5-0.7-0.7-1.1
	s-0.5-0.8-0.7-1.1c-0.2-0.4-0.4-0.8-0.5-1.2c-0.1-0.2-0.2-0.4-0.2-0.6c-0.1-0.2-0.1-0.4-0.2-0.6c-0.1-0.2-0.1-0.4-0.2-0.6
	c-0.1-0.2-0.1-0.4-0.1-0.6s-0.1-0.4-0.1-0.6s0-0.4,0-0.7V46c0-0.1,0-0.2,0-0.3c0-0.1,0-0.2,0-0.3c0.4-0.1,0.8-0.2,1.2-0.3
	c0.5-0.1,1-0.3,1.4-0.5c0.2-0.1,0.5-0.2,0.7-0.3v0.1c0,0.1,0.1,0.2,0.1,0.3c0.1,0.2,0.2,0.4,0.3,0.5c0,0.1,0.1,0.2,0.2,0.3
	c0.1,0.1,0.1,0.2,0.2,0.3c0.1,0.2,0.3,0.3,0.4,0.5c0.3,0.3,0.6,0.6,0.9,0.8c0.3,0.3,0.6,0.5,1,0.7c0.3,0.2,0.5,0.3,0.8,0.5
	c0,0.1,0,0.1,0,0.2l-0.1,0.3c0,0.1-0.1,0.2-0.1,0.3c0,0.1-0.1,0.2-0.1,0.3c-0.1,0.2-0.2,0.4-0.4,0.6c-0.3,0.4-0.6,0.7-1,1.1
	c-0.4,0.3-0.7,0.6-1.1,0.9C129,52.5,128.6,52.8,128.4,53.3z M127.4,44.2c-0.5,0.2-0.9,0.4-1.4,0.5s-0.9,0.3-1.3,0.4
	c-0.4,0.1-0.8,0.3-1.1,0.4s-0.6,0.3-0.8,0.4s-0.3,0.3-0.4,0.4c0-0.1,0.1-0.3,0.1-0.5c0-0.3,0-0.5-0.1-0.9c-0.1-0.3-0.2-0.7-0.3-1.1
	s-0.3-0.8-0.4-1.3c-0.1-0.5-0.3-0.9-0.4-1.4c-0.1-0.5-0.2-1-0.2-1.5s0-1,0.2-1.5v-0.2l0.1-0.2c0-0.1,0-0.1,0.1-0.2l0.1-0.2l0.1-0.2
	l0.1-0.2l0.1-0.2l0.1-0.2c0.3-0.5,0.5-0.9,0.9-1.2s0.8-0.5,1.2-0.6s0.8,0,1.2,0c0.4,0.1,0.7,0.2,1,0.3c0.3,0.1,0.6,0.3,0.8,0.4
	c0.4,0.2,0.6,0.4,0.6,0.4l0,0l0,0l0,0c0.1,0,0.3,0.1,0.7,0.3c0.2,0.1,0.5,0.2,0.8,0.4c0.3,0.2,0.6,0.4,0.9,0.7
	c0.3,0.3,0.6,0.6,0.8,1c0.1,0.2,0.2,0.4,0.2,0.6c0,0.1,0,0.2,0,0.3s0,0.2,0,0.3c0,0.1,0,0.2,0,0.3v0.2c0,0.1,0,0.1,0,0.2l-0.1,0.2
	l-0.1,0.2c0,0.1,0,0.1-0.1,0.2l-0.1,0.2c-0.2,0.5-0.5,0.9-0.9,1.3c-0.3,0.4-0.7,0.7-1.2,1C128.3,43.7,127.9,43.9,127.4,44.2z
	 M109.9,49.8c0-0.6-0.1-1.3-0.2-1.9c0-0.3,0-0.6,0-0.9s0-0.6,0-0.9s0.1-0.6,0.1-0.9c0-0.1,0-0.1,0-0.2c0.3,0,0.7,0.1,1,0.1
	c0.8,0,1.6,0.1,2.3,0c0,0.1-0.1,0.3-0.2,0.4c-0.2,0.4-0.6,0.7-1,0.8l-0.8,0.3l0.8,0.1c0.5,0.1,0.9,0.1,1.4,0.1s0.9,0,1.4,0
	s0.9,0,1.4-0.1c0.3,0,0.5-0.1,0.7-0.1c-0.1,0.1-0.1,0.2-0.2,0.3c-0.1,0.1-0.2,0.3-0.3,0.4s-0.2,0.3-0.3,0.4
	c-0.2,0.2-0.5,0.5-0.7,0.7c-0.3,0.2-0.5,0.4-0.8,0.5c-0.5,0.3-1.1,0.6-1.8,0.8c-0.3,0.1-0.6,0.2-0.9,0.3c-0.3,0.1-0.6,0.2-0.9,0.4
	c-0.3,0.1-0.6,0.3-0.9,0.5c-0.3,0.2-0.5,0.4-0.7,0.7c0.2-0.3,0.2-0.6,0.3-0.9C110,50.4,110,50.1,109.9,49.8z M116.3,46.2
	c-0.4,0.1-0.9,0.1-1.3,0.1c-0.4,0-0.9,0-1.3,0c-0.2,0-0.4,0-0.6,0l0,0c0.2-0.2,0.4-0.4,0.5-0.6c0.3-0.5,0.3-1,0.4-1.5
	c0-0.5,0.1-1,0.1-1.4c0-0.5,0.1-0.9,0.3-1.4c0.1-0.2,0.2-0.4,0.3-0.6c0.1-0.1,0.1-0.2,0.2-0.3c0.1-0.1,0.1-0.2,0.2-0.3l0.2-0.3
	c0,0,0.1-0.1,0.2-0.2c0.3,0.1,0.5,0.3,0.8,0.4c0.4,0.2,0.8,0.3,1.1,0.4s0.8,0.2,1.2,0.2c0.2,0,0.4,0,0.6,0c0.1,0,0.2,0,0.3,0
	s0.2,0,0.3,0c0.2,0,0.4,0,0.6-0.1c0.1,0,0.2,0,0.3-0.1h0.1c0,0.3,0.1,0.5,0.1,0.7c0.1,0.5,0.3,1,0.5,1.4s0.3,0.8,0.5,1.2
	c-0.1,0.1-0.1,0.1-0.2,0.2c-0.1,0.1-0.2,0.1-0.3,0.2l-0.3,0.2c-0.2,0.1-0.4,0.2-0.5,0.3s-0.4,0.2-0.6,0.3c-0.2,0.1-0.4,0.2-0.6,0.3
	c-0.2,0.1-0.4,0.2-0.6,0.2c-0.2,0.1-0.4,0.1-0.6,0.2c-0.2,0-0.4,0.1-0.6,0.2C117.2,46,116.7,46.1,116.3,46.2z M122.6,35
	c-0.4,0.3-0.8,0.8-1.1,1.3v0.1l0,0l0,0l0,0l0,0l-0.1,0.2l-0.1,0.2l-0.1,0.2l-0.1,0.2c0,0.1,0,0.1-0.1,0.2l-0.1,0.2v0.2
	c-0.1,0.6-0.2,1.1-0.2,1.7c0,0.1,0,0.3,0,0.4h-0.2c-0.1,0-0.2,0-0.3,0c-0.2,0-0.4,0-0.6,0.1c-0.1,0-0.2,0-0.3,0s-0.2,0-0.3,0
	c-0.2,0-0.4,0-0.6-0.1c-0.4,0-0.7-0.1-1.1-0.3c-0.4-0.1-0.7-0.3-1.1-0.4c-0.3-0.2-0.7-0.3-1-0.5s-0.7-0.4-1-0.6
	c-0.6-0.4-1.3-0.9-1.8-1.4c-0.3-0.3-0.6-0.5-0.9-0.8c-0.1-0.1-0.1-0.1-0.2-0.2c0.3,0,0.5,0,0.8-0.1c0.1,0,0.3-0.1,0.4-0.1
	c0.1,0,0.3-0.1,0.4-0.1l0.4-0.1l0.4-0.2c0.1,0,0.3-0.1,0.4-0.2c0.1-0.1,0.3-0.1,0.4-0.2l0.7-0.4l0.4-0.2L116,34
	c0.1,0,0.3-0.1,0.4-0.1c0.1,0,0.3-0.1,0.4-0.1c0.3-0.1,0.5-0.1,0.8-0.1c0.1,0,0.3,0,0.4,0c0.1,0,0.3,0,0.4,0c0.3,0,0.5,0,0.8,0
	s0.5,0,0.8,0.1c0.5,0.1,1.1,0.2,1.6,0.3c0.3,0.1,0.5,0.2,0.8,0.2c0.1,0,0.3,0.1,0.4,0.2C122.9,34.8,122.8,34.9,122.6,35z
	 M102.9,52.3c-0.2,0-0.3,0-0.5,0.1l0,0c0.1-0.2,0.3-0.4,0.4-0.6c0.1-0.2,0.2-0.4,0.3-0.7c0.1-0.2,0.2-0.4,0.3-0.7
	c0.4-0.9,0.7-1.8,1-2.7c0.1-0.2,0.1-0.5,0.2-0.7c0.1-0.2,0.1-0.5,0.2-0.7c0.1-0.2,0.2-0.5,0.3-0.6c0.1-0.2,0.3-0.4,0.5-0.6
	s0.4-0.3,0.6-0.5c0.1-0.1,0.2-0.1,0.3-0.2c0.3,0,0.5,0.1,0.8,0.1c0.4,0.1,0.8,0.1,1.3,0.2c0.3,0,0.7,0.1,1,0.1c0,0.1,0,0.1,0,0.2
	c-0.1,0.3-0.1,0.6-0.1,1c0,0.7,0,1.3,0.1,1.9s0.2,1.3,0.3,1.9c0,0.2,0,0.3,0.1,0.5c-0.1,0-0.1,0.1-0.2,0.1c-0.3,0.2-0.7,0.3-1,0.5
	c-0.4,0.1-0.7,0.3-1.1,0.4s-0.7,0.2-1.1,0.3c-0.4,0.1-0.8,0.2-1.1,0.3c-0.4,0.1-0.8,0.2-1.1,0.2C103.7,52.2,103.3,52.3,102.9,52.3z
	 M105.1,59.2c-0.2,0.1-0.4,0.3-0.6,0.4c-0.1,0.1-0.1,0.1-0.2,0.2c-0.1-0.2-0.2-0.3-0.3-0.5c-0.1-0.3-0.3-0.6-0.4-0.9
	c-0.1-0.3-0.2-0.6-0.3-1c-0.1-0.3-0.1-0.7-0.2-1c0-0.3-0.1-0.7-0.1-1s0-0.7,0-1s0.1-0.7,0.1-1c0-0.2,0.1-0.3,0.1-0.5
	c0.2,0,0.5-0.1,0.7-0.1c0.4-0.1,0.8-0.1,1.2-0.2c0.2,0,0.4-0.1,0.6-0.1c0,0.3,0,0.6,0.1,1c0,0.4,0.1,0.7,0.3,1.1s0.3,0.7,0.4,1
	c0.1,0.3,0.3,0.6,0.5,1c0.3,0.5,0.6,1.1,0.9,1.6c-0.2,0.1-0.3,0.2-0.5,0.3c-0.4,0.2-0.8,0.3-1.2,0.4C106,58.8,105.5,59,105.1,59.2z
	 M115.6,55.3L115.6,55.3L115.6,55.3L115.6,55.3C115.6,55.4,115.6,55.4,115.6,55.3L115.6,55.3L115.6,55.3L115.6,55.3L115.6,55.3
	l-0.1,0.2c0,0.1-0.1,0.1-0.1,0.2c-0.1,0.1-0.2,0.3-0.3,0.4c-0.2,0.3-0.4,0.5-0.6,0.7c-0.2,0.2-0.5,0.4-0.7,0.6
	c-0.4,0.3-0.8,0.5-1.2,0.7c-0.1,0.1-0.2,0.1-0.4,0.2c0,0-0.1,0-0.1,0.1c-0.6,0.3-1.2,0.5-1.8,0.7c-0.3,0.1-0.6,0.3-0.9,0.4
	c-0.1,0.1-0.3,0.2-0.4,0.3c-0.1,0.1-0.2,0.3-0.3,0.4l0,0c0.1-0.1,0.2-0.3,0.3-0.4s0.3-0.2,0.4-0.3c0.3-0.1,0.6-0.3,0.9-0.3
	c0.6-0.2,1.3-0.4,1.9-0.6c0,0,0,0,0.1,0c0,0.3,0.1,0.7,0.2,1v0.1c-0.1,0.2-0.2,0.3-0.3,0.4c-0.2,0.2-0.3,0.4-0.5,0.6
	s-0.4,0.4-0.6,0.5c-0.4,0.3-0.9,0.6-1.3,0.9c-0.5,0.3-1,0.5-1.5,0.7c-0.3,0.1-0.5,0.3-0.7,0.4s-0.4,0.4-0.5,0.6
	c0.1-0.1,0.1-0.3,0.1-0.4s0-0.3,0-0.4c0-0.3-0.1-0.6-0.2-0.9s-0.2-0.5-0.3-0.8s-0.2-0.5-0.3-0.8c-0.2-0.4-0.3-0.9-0.4-1.3
	c0.2-0.1,0.4-0.2,0.6-0.3c0.4-0.2,0.8-0.3,1.2-0.5c0.2-0.1,0.3-0.2,0.5-0.3c0.2,0.3,0.3,0.6,0.5,1c0.1,0.2,0.1,0.3,0.1,0.5
	s0,0.3-0.1,0.5l0,0l0,0l0,0c0.1-0.2,0.1-0.3,0.1-0.5s0-0.4-0.1-0.5c-0.1-0.3-0.2-0.7-0.4-1c-0.1-0.3-0.3-0.6-0.5-1
	c-0.2-0.3-0.3-0.6-0.5-1c-0.1-0.3-0.3-0.6-0.4-1c-0.1-0.3-0.3-0.7-0.3-1c-0.1-0.3-0.2-0.7-0.2-1s0-0.7,0-1l0,0l0,0
	c0.4-0.1,0.8-0.2,1.1-0.3c0.4-0.1,0.8-0.3,1.1-0.4s0.7-0.3,1-0.5c0,0.3-0.1,0.5-0.2,0.8l0,0l0,0l0,0l0,0l0,0l0,0l0,0l0,0
	c0.2-0.3,0.4-0.5,0.7-0.6c0.3-0.2,0.6-0.3,0.9-0.4l0,0c-0.1,0.3-0.1,0.5-0.2,0.8c-0.1,0.5-0.1,1-0.2,1.4c-0.1,0.5-0.2,0.9-0.4,1.3
	s-0.6,0.7-1,0.8l-0.8,0.3l0.8,0.1c0.5,0.1,0.9,0.1,1.4,0.1s0.9,0,1.4,0s0.9,0,1.4-0.1s0.9-0.1,1.4-0.2c0.2,0,0.4-0.1,0.6-0.2
	L115.6,55.3z M118.1,53.5c-0.2,0.1-0.4,0.2-0.6,0.3c-0.2,0.1-0.4,0.2-0.6,0.3c-0.2,0.1-0.4,0.2-0.6,0.2s-0.4,0.1-0.6,0.2
	c-0.2,0-0.4,0.1-0.6,0.2c-0.4,0.1-0.9,0.2-1.3,0.2c-0.4,0.1-0.9,0.1-1.3,0.1c-0.4,0-0.9,0-1.3,0c-0.2,0-0.4,0-0.6,0l0,0
	c0.2-0.2,0.4-0.4,0.5-0.6c0.3-0.5,0.3-1,0.4-1.5s0.1-1,0.1-1.4c0-0.3,0.1-0.6,0.2-0.9c0.5-0.2,1.1-0.3,1.6-0.5
	c0.6-0.2,1.3-0.5,1.9-0.8c0.3-0.2,0.6-0.3,0.9-0.5c0.3-0.2,0.5-0.4,0.8-0.7c0.1-0.1,0.2-0.3,0.3-0.4s0.2-0.2,0.2-0.3
	c0,0.4,0,0.7,0.1,1.1s0.1,0.8,0.2,1.3c0.2,0.8,0.4,1.6,0.6,2.5c0.1,0.3,0.1,0.7,0.2,1.1C118.3,53.4,118.2,53.4,118.1,53.5z
	 M119.1,53.7c-0.3,0.3-0.7,0.6-0.8,0.9c0.2-0.4,0.3-0.8,0.3-1.2c0-0.4-0.1-0.8-0.1-1.3c-0.1-0.8-0.3-1.7-0.5-2.5
	c-0.1-0.8-0.2-1.7-0.2-2.5c0-0.2,0-0.3,0-0.5v-0.1v-0.1c0.2,0,0.4-0.1,0.6-0.2c0.2-0.1,0.4-0.1,0.7-0.2c0.4-0.2,0.9-0.3,1.3-0.6
	c0.2-0.1,0.4-0.2,0.6-0.3c0.2-0.1,0.4-0.3,0.6-0.4l0.3-0.2c0.1-0.1,0.2-0.2,0.3-0.2c0,0,0,0,0.1-0.1c0.1,0.2,0.2,0.4,0.2,0.6
	c0.1,0.3,0.2,0.6,0.2,0.8c0,0.2,0,0.4,0,0.5s-0.1,0.2-0.1,0.2s0-0.1,0.1-0.2s0.2-0.2,0.4-0.3c0.2-0.1,0.5-0.2,0.8-0.3
	c0.2-0.1,0.4-0.1,0.7-0.2v0.1c0,0.1,0,0.2,0,0.3V46c0,0.2,0,0.5,0,0.7s0,0.5,0.1,0.7c0.1,0.5,0.2,0.9,0.3,1.4
	c0.1,0.2,0.1,0.4,0.2,0.7c0.1,0.2,0.1,0.4,0.2,0.6c-0.2,0.1-0.3,0.3-0.5,0.4c-0.7,0.5-1.4,0.9-2.2,1.3s-1.5,0.7-2.3,1.1
	C119.8,53.3,119.4,53.5,119.1,53.7z M120.6,58.5c-0.2-0.4-0.4-0.8-0.5-1.2c-0.1-0.2-0.2-0.4-0.2-0.6c-0.1-0.2-0.1-0.4-0.2-0.6
	c-0.1-0.2-0.1-0.4-0.2-0.6c-0.1-0.2-0.1-0.4-0.1-0.6s-0.1-0.4-0.1-0.6c0-0.1,0-0.2,0-0.3c0.3-0.2,0.7-0.4,1.1-0.5
	c0.8-0.3,1.6-0.6,2.4-0.9c0.4-0.2,0.8-0.3,1.2-0.5s0.8-0.4,1.1-0.7l0,0l0,0c-0.1,0.2-0.1,0.3-0.2,0.5c0,0.2-0.1,0.3-0.1,0.5
	c-0.1,0.3-0.1,0.7-0.1,1s0,0.7,0,1c0.1,0.7,0.2,1.3,0.4,2c0.1,0.5,0.3,0.9,0.5,1.4c-0.2,0.3-0.5,0.5-0.7,0.8
	c-0.4,0.3-0.7,0.6-1.1,0.9c-0.4,0.3-0.7,0.7-1,1.2c-0.1,0.2-0.2,0.5-0.2,0.8l0,0c-0.1-0.2-0.3-0.3-0.4-0.5c-0.3-0.4-0.5-0.7-0.7-1.1
	C121,59.3,120.8,58.9,120.6,58.5z M120.2,67.6c-0.5,0.3-1,0.5-1.5,0.7c-0.3,0.1-0.5,0.3-0.7,0.4s-0.3,0.3-0.5,0.5l0,0l0,0
	c0-0.1,0-0.2,0-0.2c0-0.1,0-0.3,0-0.4c0-0.3-0.1-0.6-0.2-0.9c-0.1-0.3-0.2-0.5-0.3-0.8s-0.2-0.5-0.3-0.8c-0.2-0.5-0.4-1.1-0.5-1.6
	c0-0.3-0.1-0.6-0.1-0.8c0-0.3,0-0.5,0-0.8c0.4-0.2,0.8-0.3,1.3-0.5c0.3-0.2,0.7-0.3,1-0.5V62c0.2,0.6,0.4,1.3,0.6,1.9
	c0.1,0.3,0.2,0.6,0.2,0.9s0,0.6-0.1,0.9c0.1-0.1,0.1-0.3,0.2-0.5c0-0.2,0-0.3,0-0.5c0-0.3-0.1-0.7-0.2-1c-0.1-0.6-0.3-1.3-0.4-1.9
	c0-0.1,0-0.2,0-0.2c0.3-0.2,0.7-0.4,1-0.6c0.4-0.3,0.7-0.5,1-0.8c0.2,0.3,0.4,0.6,0.7,0.9c0.3,0.4,0.6,0.7,0.9,1l0.6,0.6l-0.2-0.8
	c-0.1-0.4-0.1-0.9,0.1-1.3c0.2-0.4,0.5-0.8,0.8-1.1c0.3-0.3,0.7-0.7,1-1c0.2-0.2,0.4-0.5,0.6-0.7c0,0.1,0.1,0.2,0.1,0.3
	c0.1,0.3,0.2,0.6,0.2,1c0,0.3,0,0.7-0.1,1l0,0l0,0l0,0l0,0c0.1-0.2,0.3-0.3,0.4-0.5c0,0.1,0,0.2,0,0.2v0.3c0,0.2,0,0.4,0.1,0.6
	c0.1,0.4,0.2,0.8,0.3,1.2c0.1,0.4,0.2,0.7,0.4,1.1l0,0c-0.3,0.2-0.5,0.4-0.8,0.6s-0.6,0.3-0.9,0.4c-0.3,0.1-0.7,0.2-1,0.3
	s-0.7,0.2-1,0.2c-0.3,0.1-0.7,0.1-1,0.2s-0.7,0.1-1,0.2s-0.7,0.2-1,0.3c-0.2,0.1-0.3,0.1-0.5,0.2c-0.1,0.1-0.3,0.2-0.4,0.4
	c0.1-0.2,0.2-0.3,0.4-0.3c0.2-0.1,0.3-0.1,0.5-0.2c0.3-0.1,0.7-0.1,1-0.2c0,0.2,0,0.4,0,0.5c0,0.4,0.1,0.9,0.2,1.3V67
	C121,67.2,120.7,67.4,120.2,67.6z M128.3,65.7c-0.1,0.1-0.2,0.3-0.3,0.4c-0.2,0.2-0.5,0.5-0.7,0.7c-0.3,0.2-0.5,0.4-0.8,0.6
	s-0.6,0.4-0.9,0.5c-0.3,0.2-0.6,0.3-0.9,0.4s-0.6,0.2-1,0.3s-0.7,0.2-1,0.2c-0.2,0-0.4,0.1-0.6,0.1c0-0.1,0-0.2,0-0.3
	c0-0.3,0-0.5,0-0.7c-0.1-0.5-0.2-0.9-0.3-1.3s-0.2-0.8-0.3-1.2c0-0.2-0.1-0.3-0.1-0.5c0.6-0.1,1.2-0.1,1.9-0.2c0.3,0,0.7-0.1,1-0.2
	s0.7-0.2,1-0.3s0.7-0.2,1-0.4c0.3-0.1,0.5-0.3,0.8-0.5c0.1,0.2,0.2,0.5,0.3,0.7c0.2,0.4,0.4,0.7,0.5,1.1
	C128.1,65.3,128.2,65.5,128.3,65.7L128.3,65.7z M133.1,58.4c0,0.1,0,0.2,0,0.4c0,0.2,0,0.5-0.1,0.7l-0.1,0.3l-0.1,0.3
	c0,0.1-0.1,0.2-0.1,0.3c0,0.1-0.1,0.2-0.1,0.3l-0.1,0.2l-0.1,0.1c-0.1,0.1-0.1,0.2-0.2,0.3l-0.1,0.1v0.1l0,0l0,0l0,0l-0.2,0.3
	l-0.2,0.3c-0.1,0.1-0.1,0.2-0.2,0.3c-0.1,0.2-0.3,0.4-0.4,0.6c-0.1,0.2-0.3,0.4-0.4,0.6c-0.1,0.2-0.2,0.4-0.4,0.6
	c-0.1,0.2-0.2,0.4-0.3,0.6s-0.2,0.4-0.3,0.7l-0.1,0.3c0,0.1-0.1,0.2-0.1,0.3c-0.1-0.1-0.1-0.2-0.2-0.4c-0.2-0.3-0.4-0.7-0.6-1
	c-0.2-0.3-0.4-0.7-0.5-1.1c-0.2-0.4-0.3-0.7-0.5-1.1s-0.3-0.7-0.4-1.1c-0.1-0.4-0.2-0.8-0.3-1.1c0-0.2-0.1-0.4-0.1-0.6v-0.3
	c0-0.1,0-0.2,0-0.3c0-0.1,0-0.2,0-0.3c0.2-0.1,0.3-0.2,0.5-0.3c0.6-0.3,1.2-0.5,1.7-0.8c0.6-0.3,1.1-0.6,1.6-1
	c0.3-0.2,0.5-0.4,0.7-0.6l0.1-0.1c0.2,0.2,0.4,0.5,0.6,0.7c0.3,0.3,0.6,0.6,0.9,0.9c0,0,0.1,0.1,0.2,0.2
	C133.1,58.1,133.1,58.2,133.1,58.4z M135.7,51.5c0,0.1,0,0.3,0,0.4l-0.1,0.4l-0.1,0.3c0,0.1-0.1,0.2-0.1,0.4c0,0.1-0.1,0.2-0.1,0.4
	c-0.1,0.2-0.2,0.5-0.3,0.7l-0.6,1.4c-0.1,0.2-0.2,0.5-0.3,0.7c-0.1,0.3-0.2,0.5-0.3,0.8l-0.1,0.2v0.2c0,0.1,0,0.3-0.1,0.4
	c-0.1-0.1-0.2-0.2-0.3-0.3c-0.3-0.3-0.6-0.6-0.9-0.9c-0.6-0.6-1.1-1.2-1.7-1.9c-0.5-0.6-1-1.3-1.5-2c0.1-0.1,0.1-0.1,0.2-0.2
	c0.3-0.3,0.7-0.7,1-1s0.7-0.7,0.9-1.1c0.1-0.2,0.3-0.4,0.3-0.7c0.1-0.2,0.2-0.5,0.2-0.7l0.1-0.4c0-0.1,0-0.1,0-0.2
	c0.1,0,0.1,0.1,0.2,0.1c0.4,0.2,0.7,0.3,1.1,0.5c0.7,0.3,1.3,0.5,2,0.7c0,0,0,0,0,0.1s0,0.3,0.1,0.4c0,0.1,0,0.3,0,0.4V51
	c0,0.1,0,0.3,0,0.4C135.7,51.3,135.7,51.4,135.7,51.5z M137.4,49.3c-0.1,0-0.2,0-0.3,0c-0.4-0.1-0.8-0.2-1.1-0.3
	c-0.8-0.2-1.5-0.4-2.2-0.7c-0.4-0.1-0.7-0.3-1.1-0.5c-0.3-0.2-0.7-0.3-1-0.5s-0.6-0.4-1-0.6c-0.3-0.2-0.6-0.5-0.8-0.8
	c-0.1-0.1-0.3-0.3-0.4-0.4c-0.1-0.1-0.1-0.2-0.2-0.2c0-0.1-0.1-0.2-0.2-0.2c-0.1-0.2-0.2-0.3-0.3-0.5c0-0.1-0.1-0.2-0.1-0.3
	l-0.1-0.2c0.1-0.1,0.3-0.1,0.4-0.2c0.5-0.3,0.9-0.7,1.3-1.1c0.4-0.4,0.7-0.9,0.9-1.4l0.1-0.2c0-0.1,0-0.1,0.1-0.2l0.1-0.2
	c0-0.1,0-0.1,0.1-0.2c0-0.1,0-0.1,0-0.2v-0.2c0-0.1,0-0.3,0-0.4c0-0.2,0-0.3,0-0.5c0.4,0.2,0.7,0.5,1.1,0.8c0.4,0.3,0.8,0.7,1.2,1.1
	c0.2,0.2,0.4,0.4,0.5,0.6c0.2,0.2,0.3,0.4,0.5,0.7c0.1,0.2,0.3,0.5,0.4,0.7c0.1,0.1,0.1,0.2,0.2,0.4c0.1,0.1,0.1,0.3,0.2,0.4
	c0.1,0.3,0.2,0.5,0.2,0.8c0,0.1,0,0.3,0.1,0.4l0.1,0.4l0.1,0.8c0,0.1,0,0.3,0,0.4V47v0.2c0,0.1,0.1,0.3,0.1,0.4s0.1,0.3,0.1,0.4
	s0.1,0.3,0.2,0.4c0,0.1,0.1,0.3,0.2,0.4C137.1,48.9,137.2,49.1,137.4,49.3z M99.9,12.3c0.2,0.1,0.5,0.1,0.7,0.2l0.7,0.2l1.3,0.4
	l0.7,0.2c0.2,0.1,0.4,0.1,0.7,0.2l1.3,0.4l0.7,0.2l0.7,0.2l1.3,0.5c0.2,0.1,0.4,0.2,0.6,0.3l0.6,0.3c0.4,0.2,0.9,0.3,1.3,0.5
	c0.4,0.2,0.8,0.4,1.3,0.6l1.2,0.7c0.4,0.2,0.8,0.5,1.2,0.7l0.5,0.4c0.1,0.1,0.2,0.1,0.3,0.2l0.3,0.2c0.4,0.3,0.7,0.6,1,0.9l0.2,0.3
	c0.1,0.1,0.1,0.2,0.2,0.3l0.1,0.1l0.1,0.1c0,0,0,0.1,0.1,0.1v0.1l0.1,0.4l0.3-0.2l0.1-0.1l0.1-0.1v-0.1v-0.1c0-0.1,0-0.2,0-0.3
	c0-0.2,0-0.4,0-0.6c-0.1-0.4-0.1-0.8-0.3-1.1c-0.1-0.4-0.2-0.7-0.3-1.1c0-0.1,0-0.2-0.1-0.2l0.8,0.5c0.3,0.2,0.5,0.3,0.8,0.5
	l0.7,0.5c0.3,0.2,0.5,0.3,0.7,0.5l0.7,0.5c0.2,0.2,0.5,0.3,0.7,0.5l0.7,0.5c0.2,0.2,0.5,0.4,0.7,0.5l0.7,0.5
	c0.2,0.2,0.5,0.4,0.7,0.6c0.2,0.2,0.4,0.4,0.7,0.6c0.1,0.1,0.2,0.2,0.3,0.3l0.3,0.3c0.2,0.2,0.4,0.4,0.6,0.6s0.4,0.4,0.5,0.7
	c0,0.1,0.1,0.1,0.1,0.2s0.1,0.1,0.1,0.2s0.1,0.1,0.1,0.2v0.1l0,0l0,0l0,0l0.5,0.2c0.1-0.1,0.2-0.2,0.2-0.3c0-0.1,0.1-0.2,0.1-0.3
	c0-0.2,0-0.4,0-0.5c0-0.3-0.1-0.7-0.1-1c-0.1-0.3-0.1-0.6-0.2-1v-0.1l0.4,0.3L128,23l0.3,0.2l0.5,0.4c0.4,0.3,0.7,0.6,1.1,0.9
	l0.5,0.5l0.5,0.5l0.5,0.5l0.5,0.5c0.2,0.2,0.3,0.3,0.5,0.5l0.5,0.5c0.3,0.3,0.6,0.7,0.9,1.1c0.2,0.2,0.3,0.4,0.4,0.5
	c0.1,0.2,0.3,0.4,0.4,0.6l0.4,0.6c0.1,0.2,0.2,0.4,0.3,0.6l0.2,0.3l0.2,0.3c0.1,0.2,0.2,0.4,0.3,0.6s0.2,0.4,0.3,0.6
	s0.2,0.4,0.2,0.7c0.1,0.2,0.1,0.4,0.2,0.7c0,0.2,0.1,0.5,0.1,0.7s0.1,0.5,0.1,0.7v0.3v0.3c0,0.2,0,0.5,0,0.7s-0.1,0.5-0.1,0.7
	c-0.1,0.4-0.2,0.9-0.4,1.3c-0.1,0.2-0.2,0.4-0.3,0.6s-0.3,0.4-0.4,0.5l-0.3,0.3h0.4c0.2,0,0.3,0,0.4-0.1c0.1,0,0.2-0.1,0.3-0.2
	s0.2-0.2,0.3-0.2c0.1-0.1,0.2-0.2,0.3-0.3c0.3-0.4,0.6-0.7,0.9-1.1c0.3-0.4,0.5-0.8,0.8-1.2c0.1-0.2,0.3-0.4,0.4-0.6v0.7
	c0,0.5-0.1,0.9-0.1,1.4l-0.1,0.7l-0.1,0.7l-0.1,0.7c0,0.2-0.1,0.5-0.1,0.7c-0.1,0.5-0.1,0.9-0.2,1.4l-0.1,0.7c0,0.2-0.1,0.5-0.1,0.7
	l-0.1,0.7l-0.2,0.7c-0.1,0.4-0.2,0.9-0.3,1.3c-0.1,0.2-0.1,0.4-0.2,0.7c-0.1,0.2-0.1,0.3-0.2,0.5l0,0c0-0.1-0.1-0.3-0.1-0.4
	s-0.1-0.3-0.1-0.4v-0.2v-0.2c0-0.1,0-0.3-0.1-0.4l-0.1-0.8c0-0.1,0-0.3-0.1-0.4c0-0.1-0.1-0.3-0.1-0.4c-0.1-0.3-0.2-0.5-0.3-0.8
	c-0.1-0.1-0.1-0.3-0.2-0.4c-0.1-0.1-0.1-0.3-0.2-0.4c-0.1-0.3-0.3-0.5-0.5-0.7s-0.3-0.4-0.5-0.7c-0.2-0.2-0.4-0.4-0.6-0.6
	c-0.2-0.2-0.3-0.3-0.5-0.4c0-0.2,0-0.5,0-0.7c0-0.3,0-0.6,0-0.8c0-0.3,0-0.5,0-0.8c0-0.1,0-0.3,0-0.4s0-0.3,0-0.4c0-0.3,0-0.5,0-0.8
	c0-0.5,0-0.9-0.1-1.4s-0.1-0.8-0.1-1.2c0-0.3-0.1-0.6-0.1-0.9c-0.1-0.5-0.1-0.8-0.1-0.8s0,0.3,0,0.8c0,0.3,0,0.5,0,0.9s0,0.7,0,1.2
	c0,0.4,0,0.9,0,1.4c0,0.2,0,0.5,0,0.7c0,0.3,0,0.5,0,0.8c0,0.5-0.1,1.1-0.1,1.6c0,0.1,0,0.2,0,0.3c-0.1,0-0.1-0.1-0.2-0.1
	c-0.4-0.3-0.8-0.5-1.2-0.7c0-0.4-0.2-0.8-0.3-1.1c-0.1-0.2-0.3-0.4-0.4-0.6c-0.2-0.2-0.3-0.3-0.5-0.5c-0.3-0.3-0.7-0.5-1-0.6
	s-0.6-0.2-0.8-0.3c-0.4-0.1-0.6-0.2-0.7-0.2c0.1,0,0.1-0.1,0.2-0.1c0.2-0.1,0.3-0.3,0.5-0.4s0.3-0.3,0.5-0.5
	c0.1-0.2,0.3-0.4,0.4-0.7c0.1-0.3,0.2-0.5,0.2-0.8c0-0.1,0-0.3,0.1-0.4c0-0.1,0-0.3,0-0.4c0-0.3,0-0.5-0.1-0.8c0-0.1,0-0.2-0.1-0.4
	c0-0.1-0.1-0.2-0.1-0.3c-0.1-0.2-0.2-0.4-0.3-0.6c0-0.1-0.1-0.2-0.1-0.3c0-0.1-0.1-0.1-0.1-0.2c-0.1-0.1-0.2-0.3-0.2-0.3
	c-0.1-0.2-0.2-0.3-0.2-0.3s0,0.1,0.1,0.3c0,0.1,0.1,0.2,0.1,0.4c0,0.1,0,0.2,0.1,0.2c0,0.1,0,0.2,0.1,0.3c0,0.2,0.1,0.4,0.1,0.6
	c0,0.1,0,0.2,0,0.3c0,0.1,0,0.2,0,0.3c0,0.2,0,0.5,0,0.7c0,0.1,0,0.2,0,0.3c0,0.1,0,0.2-0.1,0.3c0,0.2-0.1,0.5-0.2,0.7
	c-0.1,0.2-0.2,0.4-0.3,0.6c-0.2,0.4-0.5,0.7-0.7,1c-0.1,0.1-0.1,0.1-0.2,0.2c-0.1-0.1-0.2-0.2-0.4-0.3c-0.2-0.2-0.4-0.3-0.7-0.5
	s-0.6-0.3-1-0.5c-0.2-0.1-0.4-0.1-0.7-0.2c-0.2,0-0.5,0-0.7,0c-0.4,0-0.7,0.1-1.1,0.3c-0.4-0.2-0.8-0.4-1.2-0.5
	c-0.1,0-0.3-0.1-0.4-0.1c-0.1-0.1-0.1-0.1-0.2-0.2c-0.5-0.6-1.1-1.1-1.6-1.6s-1-0.9-1.4-1.3s-0.8-0.7-1.1-0.9
	c-0.3-0.3-0.6-0.4-0.7-0.6c-0.2-0.1-0.3-0.2-0.3-0.2s0.1,0.1,0.2,0.2c0.2,0.2,0.4,0.4,0.7,0.6c0.1,0.1,0.2,0.1,0.2,0.2
	c0.1,0.1,0.2,0.2,0.3,0.3c0.2,0.2,0.4,0.4,0.6,0.5c0.1,0.1,0.2,0.2,0.3,0.3c0.1,0.1,0.2,0.2,0.3,0.3c0.2,0.2,0.4,0.5,0.7,0.7
	c0.4,0.4,0.8,0.8,1.2,1.3c-0.1,0-0.3-0.1-0.4-0.1c-0.3-0.1-0.5-0.1-0.8-0.1s-0.5,0-0.8,0c-0.1,0-0.3,0-0.4,0c-0.1,0-0.3,0-0.4,0
	c-0.3,0-0.6,0.1-0.8,0.1c-0.1,0-0.3,0.1-0.4,0.1c-0.1,0-0.3,0.1-0.4,0.1l-0.4,0.1l-0.4,0.2l-0.8,0.4c-0.1,0.1-0.3,0.1-0.4,0.2
	c-0.1,0-0.2,0.1-0.4,0.2l-0.4,0.1l-0.4,0.1l-0.4,0.1c-0.1,0-0.3,0-0.4,0.1c-0.3,0-0.5,0.1-0.8,0.1h-0.2h-0.2c-0.1,0-0.1,0-0.2,0
	h-0.1l0,0l0,0l-0.4,0.5c0.3,0.3,0.5,0.6,0.8,0.9s0.6,0.5,0.9,0.8l0,0c-0.2-0.1-0.4-0.3-0.5-0.4s-0.2-0.1-0.3-0.2s-0.2-0.1-0.3-0.2
	c-0.3-0.3-0.6-0.5-0.9-0.7c-0.5-0.4-0.8-0.6-0.8-0.6s0.3,0.3,0.7,0.7c0.2,0.2,0.5,0.5,0.8,0.8s0.5,0.5,0.9,0.8
	c-0.1,0-0.2,0.1-0.3,0.1l-0.3,0.2c-0.1,0.1-0.2,0.1-0.3,0.2s-0.2,0.1-0.3,0.2s-0.2,0.1-0.3,0.2l-0.3,0.3l0,0l-0.5-0.3l-0.6-0.3
	c-0.2-0.1-0.4-0.2-0.5-0.3l-0.3-0.2l-0.1-0.1l-0.1-0.1l-0.5-0.4c-0.2-0.1-0.3-0.3-0.5-0.4l-0.2-0.2l-0.2-0.2
	c-0.1-0.2-0.3-0.3-0.4-0.5l-0.4-0.5c-0.1-0.2-0.3-0.3-0.4-0.5c-0.1-0.2-0.3-0.3-0.4-0.5c-0.1-0.2-0.3-0.4-0.4-0.5
	c-0.1-0.2-0.2-0.4-0.3-0.5c-0.1-0.2-0.2-0.4-0.3-0.6s-0.2-0.4-0.3-0.6c-0.1-0.1-0.2-0.3-0.2-0.4l0.3,0.1c0.2,0.1,0.3,0.1,0.5,0.2
	s0.3,0.1,0.5,0.2c0.3,0.1,0.7,0.2,1,0.3c0.3,0.1,0.7,0.2,1,0.2l1.2,0.2l-1-0.7c-0.2-0.1-0.4-0.3-0.6-0.5c-0.1-0.1-0.2-0.2-0.3-0.3
	s-0.2-0.2-0.3-0.3l-0.3-0.3l-0.3-0.3c-0.1-0.1-0.2-0.2-0.2-0.3c-0.1-0.1-0.2-0.2-0.2-0.3c-0.6-0.8-1.1-1.7-1.6-2.6s-0.9-1.8-1.2-2.8
	c-0.2-0.5-0.4-1-0.5-1.4c0-0.1,0-0.2-0.1-0.2c0.1,0.1,0.2,0.3,0.3,0.4s0.2,0.3,0.3,0.4s0.2,0.3,0.3,0.4c0.2,0.3,0.4,0.6,0.7,0.9
	s0.6,0.6,0.9,0.9c0.3,0.3,0.7,0.6,1,0.9c0.4,0.3,0.7,0.6,1.1,0.8c0.2,0.1,0.4,0.3,0.6,0.4c0.2,0.1,0.4,0.3,0.6,0.4
	c0.4,0.2,0.8,0.4,1.2,0.6c0.2,0.1,0.4,0.2,0.6,0.3c0.2,0.1,0.4,0.2,0.6,0.2c0.2,0.1,0.4,0.1,0.5,0.2c0.2,0,0.4,0.1,0.5,0.2
	c0.2,0,0.3,0.1,0.5,0.1s0.3,0.1,0.4,0.1c0.3,0.1,0.5,0.1,0.7,0.1c0.4,0,0.6,0,0.6,0s-0.1,0-0.2,0c-0.1,0-0.3-0.1-0.5-0.1
	c-0.2-0.1-0.4-0.1-0.7-0.2s-0.5-0.2-0.9-0.3c-0.2-0.1-0.3-0.1-0.5-0.2s-0.3-0.1-0.5-0.2s-0.4-0.2-0.5-0.3c-0.2-0.1-0.4-0.2-0.5-0.3
	c-0.4-0.2-0.8-0.4-1.1-0.7c-0.2-0.1-0.4-0.2-0.6-0.4c-0.2-0.1-0.4-0.3-0.6-0.4c-0.4-0.3-0.7-0.5-1.1-0.8c-0.3-0.3-0.7-0.6-1-0.8
	c-0.3-0.3-0.6-0.6-0.9-0.8c-0.2-0.1-0.3-0.3-0.4-0.4c-0.1-0.1-0.3-0.3-0.4-0.4c-0.2-0.2-0.5-0.5-0.7-0.7s-0.4-0.4-0.5-0.5l-0.1-0.1
	v-0.1v-0.1h0.1c0.1,0,0.2,0,0.3,0.1c0.3,0.1,0.7,0.2,1,0.2c0.7,0.1,1.3,0.3,2,0.4h0.3v-0.3v-0.5c0-0.2,0-0.3,0-0.4
	c0-0.3-0.1-0.6-0.2-0.9c0-0.1-0.1-0.3-0.1-0.4c0-0.1-0.1-0.3-0.1-0.4c-0.1-0.3-0.2-0.5-0.3-0.8s-0.3-0.5-0.4-0.8
	c-0.1-0.3-0.3-0.5-0.4-0.8c-0.2-0.3-0.3-0.5-0.5-0.7s-0.3-0.5-0.5-0.7c-0.7-0.9-1.4-1.8-2.2-2.7c-0.4-0.4-0.8-0.8-1.2-1.3
	c-0.1-0.1-0.3-0.3-0.4-0.4L99.9,12.3z M51.7,177.4l5.8-5.7c0.3-0.3,0.6-0.5,0.8-0.5c0.4,0.1,0.6,0.2,0.8,0c0.2-0.2,0.1-0.4-0.2-0.7
	l-1.3-1.3c-0.3-0.3-0.5-0.4-0.7-0.2c-0.3,0.3,0.1,0.7,0,1c0,0.2-0.2,0.4-0.5,0.7l-5.8,5.7c-0.3,0.3-0.6,0.5-0.8,0.5
	c-0.4-0.1-0.6-0.2-0.9,0c-0.2,0.2-0.1,0.4,0.2,0.7l1.3,1.3c0.3,0.3,0.5,0.4,0.7,0.2c0.3-0.3-0.1-0.7,0-1
	C51.3,177.9,51.4,177.7,51.7,177.4z M204,95.6c1-0.8,1.6-1.2,1.5-1.6c0-0.3-0.3-0.3-0.9-0.1l-8.8,1.6c-0.1,0-0.1,0-0.2,0
	c-0.5,0.1-0.8,0.1-1,0c-0.3-0.2-0.4-0.6-0.8-0.6c-0.3,0-0.3,0.3-0.2,0.8l0.3,1.4c0.1,0.4,0.2,0.5,0.4,0.5c0.3,0,0.3-0.2,0.3-0.5
	c0-0.2,0-0.3,0.2-0.5c0.1-0.1,0.5-0.2,1.2-0.3l6.5-1.2c-1.8,1.6-3.7,3.4-5.4,5.2c-1.2,1.3-1.9,2-2,2.4c0,0.1,0,0.3,0,0.6l0.2,1.2
	c0.1,0.4,0.1,0.7,0.5,0.6c0.3-0.1,0.3-0.3,0.4-0.7c0-0.2,0.1-0.4,0.2-0.5c0.1-0.1,0.4-0.2,0.9-0.3l6.8-1.3c0.9-0.2,1.5-0.2,1.8-0.1
	c0.3,0.1,0.4,0.4,0.6,0.6c0.1,0.1,0.2,0.1,0.3,0.1c0.2,0,0.3-0.3,0.2-0.7l-0.4-2c-0.1-0.5-0.2-0.7-0.5-0.6c-0.3,0.1-0.3,0.3-0.4,0.8
	c-0.1,0.2-0.1,0.4-0.3,0.5s-0.5,0.2-1.1,0.3l-7.7,1.4C198.8,100.5,201.2,98,204,95.6z M191.8,82.4c-0.1-0.2-0.2-0.2-0.5,0
	c-0.1,0-0.2,0.1-0.3,0.1c-0.5,0.2-0.8,0.3-1,0.7c-0.3,0.6-0.2,1.8,0.3,3c0.8,2,2.6,2.8,4.5,2c0.8-0.3,1.4-0.9,1.7-1.8
	c0.3-0.8,0.1-1.7-0.1-2.9c-0.3-1.8-0.2-2.8,1.2-3.3s2.8,0.1,3.4,1.8c0.4,1.1,0.3,2-0.4,3c-0.4,0.5-0.9,0.8-0.7,1.1
	c0.1,0.3,0.4,0.4,0.7,0.3c0.4-0.2,1-0.8,1.4-1.7c0.4-1,0.4-2,0-3.1c-0.9-2.2-2.9-3.2-5.1-2.3c-1.1,0.4-1.8,1.2-2,2.2
	c-0.2,0.9,0.2,1.9,0.3,3.1c0.2,1.3-0.2,2.1-1.3,2.5c-1.2,0.5-2.2,0-2.7-1.2c-0.3-0.7-0.2-1.5,0.1-2.3
	C191.5,83,191.9,82.6,191.8,82.4z"/>
</svg>
