<?xml version="1.0" encoding="utf-8"?>
<!-- Generator: Adobe Illustrator 18.0.0, SVG Export Plug-In . SVG Version: 6.00 Build 0)  -->
<!DOCTYPE svg PUBLIC "-//W3C//DTD SVG 1.1//EN" "http://www.w3.org/Graphics/SVG/1.1/DTD/svg11.dtd">
<svg version="1.1" id="Calque_1" xmlns="http://www.w3.org/2000/svg" xmlns:xlink="http://www.w3.org/1999/xlink" x="0px" y="0px"
	 viewBox="0 0 107.1 56" enable-background="new 0 0 107.1 56" xml:space="preserve">
<g>
	<path fill="#1E1E1C" d="M18.4,45.5c1-3,0.4-5.2-1.8-5.6c-3.2-0.7-9.7-0.7-10.7-3.6c-2.1-5.6,5.9-16.8,8-15.9
		c1.5,0.7-0.3,5.7-0.3,8.2c-0.1,2.4,1,3.6,2.2,4.1c0.7,0.3,0.8,0,0.9-0.5c0.2-1.4,0.5-4.1,1-6.1c0.3-1.2,0.6-3.3-0.6-4.9
		c-0.8-1.1-2.2-2.2-3.7-2.8c-2-0.7-3.9,0.5-5.6,2.3C4.6,24,0,32,2.5,38c1.9,4.5,9.9,4.3,13,5.3c0.8,0.3,1.4,1.1,1,2.2
		c-0.4,0.7-1.2,1.4-2.4,1.9c-2.8,1.2-6.7,0.2-9.1-0.5c-1.6-0.5-3.5-0.1-4.8,0.9c-0.3,0.3-0.4,0.7,0.3,1C9.8,53.6,17,49.6,18.4,45.5z
		"/>
	<path fill="#1E1E1C" d="M26.1,44.7c2.1-0.7,3.6-3.1,4.4-5.4c0.7,2.1,2.4,3.2,4.9,2.5c1.2-0.3,2.3-1.3,3.1-2.5
		c0.2,0.3,0.5,0.5,0.8,0.7c0.5,0.3,0.7,0.1,0.8-0.4c0.9-4.8,1.8-9.8,3.8-13.4c2.1-4,4.5-5.9,5-5.9c0.9,0.2-1.9,6.1-2.3,11
		c-0.3,4.3,1.3,7,5.2,6c2-0.5,3.9-2.4,4.9-4.6c1,1.9,2.7,2.7,4.5,2.5c2.2-0.3,4-2.2,5.1-3.9c1.3,1.6,3.3,2.5,5.9,2.1
		c3.6-0.6,6.9-3.3,8.4-6.4c0.7-1.3,0.6-2.7,0.4-3c-0.2-0.4-0.6-0.3-0.8,0.1c-1.6,3.4-4.4,7.7-8.3,8c-2.5,0.2-4-2.6-3.2-7.1
		c3.7,2.2,6.6,0.5,8.5-2.6c1.6-2.7,1.6-5.6,0.6-6.6c-0.9-0.9-1.8-1.5-3.1-2c-2.5-1-6.9,2.1-9.1,8.6c-0.9,2.7-0.9,5.2-0.2,7.2
		c-1.1,2.4-2.5,4.2-3.9,4.4c-2,0.3-3-2.5-2.1-6.2c1-4.3,2.8-9.3,4-12.8c1.1-0.4,2.5-0.8,3.6-0.9c0.7-0.1,0.8-0.5,0.4-1
		c-0.5-0.5-1.3-1.2-3.1-0.8c0.6-2.6,0.4-4.2-0.4-5.4c-0.3-0.5-0.8-0.5-1.1,0.2c-0.6,1.2-1.5,3.6-2.4,6.5c-1.2,0.4-2.5,0.7-3.8,0.9
		c-0.7,0.1-0.9,0.5-0.3,1c0.5,0.4,1.7,0.9,3.2,0.6c-1.3,4.1-2.5,8.4-3,10.9c-0.2,0.8-0.2,1.6-0.3,2.3c-0.9,3.2-2.3,6.1-3.9,6.6
		s-2.4-1.6-1.9-4.6c0.5-2.7,1.9-6.6,2.3-8.9c0.6-2.7-1.4-4.6-3-4.4c-1.6,0.1-4.1,3.5-5.6,6.2c0.1-1.8-0.2-3.4-1.2-4.3
		c-0.4-0.4-0.8-0.3-1,0.2c-1.8,5-3.8,12.3-4,15.4c0,0.7,0,1.2,0,1.8c-0.7,1.6-1.5,2.9-2.5,3.3c-1.5,0.6-2.1-1.4-1.8-4.3
		c0.3-2.7,1.4-6.9,1.8-9.2c0.3-2.6-0.7-4.4-1.6-5c-0.4-0.3-0.8-0.1-1,0.6c-0.3,0.9-0.5,2-0.7,3.3c-0.5-1.8-1.9-3-3.8-2.3
		c-2.2,0.7-5.1,3.9-7,10.5C19.2,40.7,22,46.1,26.1,44.7z M69.2,22.9c1.5-4.8,5-8.2,6.1-7.5c0.7,0.4,0.1,3-1.2,5.2
		c-1.1,2-2.7,4.3-5.2,3.2C69,23.5,69.1,23.2,69.2,22.9z M24.8,34.8c1.2-4.8,3.5-8.9,4.9-9.2c1.3-0.3,1.9,2.6,0.7,8.5
		c-1,4.7-2.4,8.4-4.2,9C24.4,43.6,23.7,39.5,24.8,34.8z"/>
	<path fill="#1E1E1C" d="M70.8,12c0.5,0.2,1.4,0.1,2.4-0.4c1.2-0.6,3.4-2.3,5-3.3c0.4-0.3,0.3-0.6-0.1-0.8c-0.8-0.3-2.2-0.4-3.3,0.3
		c-1.1,0.7-2.9,2.3-4,3.4C70.3,11.6,70.4,11.8,70.8,12z"/>
	<path fill="#1E1E1C" d="M95.9,30.7c0.5-0.7,0.8-2,0.2-3.1c-0.7-1.3-2.1-1.8-2.7-1c-0.7,0.8-0.9,2.3-0.1,3.5
		C93.9,31.3,95.3,31.5,95.9,30.7z"/>
	<path fill="#1E1E1C" d="M106.6,0.5c-0.3-0.7-0.8-0.6-1.2,0c-3.3,5.4-7.6,15-9.2,20.2c-0.9,2.9-0.4,4.4,0.4,5.2
		c0.4,0.4,0.6,0.3,0.8-0.2c2.2-5.4,5.8-13,8.1-17.9C107.3,4.1,107.3,1.8,106.6,0.5z"/>
	<path fill="#1E1E1C" d="M93.1,40.5c-32.4-2.3-58.9,5.3-75.7,13.3c-3.5,1.7-2.9,3.2,1.9,1.2C54.8,39.9,82.2,44.5,89,43.8
		C95.8,43,97.8,40.9,93.1,40.5z"/>
</g>
</svg>
