<svg xmlns="http://www.w3.org/2000/svg" xmlns:xlink="http://www.w3.org/1999/xlink" version="1.1" id="Calque_1" x="0px" y="0px" viewBox="0 566.9 566.9 173.8" enable-background="new 0 566.9 566.9 173.8" xml:space="preserve">
<g>
	<path fill="#FFFFFF" d="M512.9,685.3c0-2.7,0-5.6,0-8.3l4-4v-39.4l-3.9-3.9c0-9.8,0-19.4,0-28.3c0.1-0.5,0-1-0.5-1.5   c-0.3-0.4-0.6-0.6-1.2-0.9c-3.9-2.1-13.8-3.1-21.7-2.1c-4.6,0.6-7.7,1.8-8.7,3.1c-0.3,0.4-0.5,0.6-0.5,1c0,9-0.1,18.6-0.1,28.5   l-4,4v8.4H455v-1.5l-3.1-2.3c0.3-0.3,0.3-0.8,0.3-1c0-1-0.5-2.1-1.3-2.8l7.9-45.6l0.5-3.1c0-5.9-4.6-11-10.7-11   c-5.9,0-11,4.9-11,11l0.5,3.1l7.9,45.6c-0.8,0.8-1.3,1.8-1.3,2.8c0,0.5,0.3,0.8,0.3,1l-3.1,2.3v1.5c-3.6,0-6.5,2.6-5.9,5.7   c0.3,3.1,3.6,5.7,7.4,5.7h7.1c7.1,1,5.4,8.4,4.4,11l-0.3,0.5c-0.3,0.3-0.3,0.5-0.3,0.5l0.8,0.4c-1.4,2.2-3.7,5.8-6.1,9.8   c-4.1,6.8-5.2,14.9-6.6,34.1l4.4,0.4c1.5-19.8,2.5-26.5,6.1-32.2c2.5-4,4.8-7.7,6.2-9.8l0.4,0.3c0.8-1,6.8-10.7,17.4-14.6v19.5l4,4   "/>
	<path fill="#C32F1D" d="M446.7,717.8c-0.3,0-0.5,0-0.6,0l-4.5-0.4c-4.3-0.4-7.4-4-7.1-8.3c1.4-20,2.6-29.1,7.6-37.5   c1.5-2.6,3-5,4.3-7c0.1-1.3,0.5-2.5,1.2-3.5h-4.4c-7.7,0-14.3-5.4-15.1-12.5c-0.5-3.4,0.5-6.8,2.8-9.6c1.3-1.5,3-2.8,4.9-3.6   c0.4-0.4,0.8-0.9,1.3-1.2l0.1-0.1c0.1-0.5,0.3-0.9,0.5-1.4l-7.9-45.8c-0.1-0.4-0.1-0.9-0.1-1.3c0-10.3,8.4-18.7,18.7-18.7   c10.2,0,18.5,8.4,18.5,18.7c0,0.4,0,0.9-0.1,1.3l-0.5,3.1l-7.4,42.7c0.3,0.5,0.4,0.9,0.5,1.4l0.1,0.1l0,0h9v-0.6   c0-2.1,0.8-4,2.3-5.4l1.7-1.7c0-4,0-7.9,0-11.8c0-4.6,0-9.2,0-13.6c0-2.8,1.3-4.6,1.8-5.3l0.1-0.1c2.3-3.4,6.7-5.3,13.9-6.3   c8.1-1,20-0.4,26.3,2.8c0.6,0.4,2.2,1.2,3.6,2.8c1.7,1.9,2.6,4.5,2.3,7.1v24.8l1.5,1.5c1.4,1.4,2.3,3.5,2.3,5.4v39.4   c0,2.1-0.8,4-2.3,5.4l-1.7,1.7v5c0,4.3-3.5,7.7-7.7,7.7c-4.2,0-7.7-3.5-7.7-7.7V677c0-2.1,0.8-4,2.3-5.4l1.7-1.7v-33l-1.5-1.5   c-1.4-1.4-2.3-3.5-2.3-5.4v-24.8c-3.4-0.6-9.2-1.2-14.6-0.5c-1,0.1-1.8,0.3-2.5,0.4c0,3.1,0,6.3,0,9.7c0,4.9-0.1,9.8-0.1,14.9   c0,2.1-0.8,4-2.3,5.4l-1.7,1.7v5.2c0,2.3-0.9,4.3-2.5,5.7c1.8,1.4,2.8,3.7,2.8,6.1v16.3l1.7,1.7c3,3,3,7.9,0,11c-3,3-7.9,3-11,0   l-3.9-3.7c-1.4-1.4-2.3-3.5-2.3-5.4v-4.8c-1,1.2-2.1,2.5-3.1,3.9c-0.3,0.3-0.4,0.5-0.4,0.6c-0.5,0.6-1,1.2-1.5,1.5   c-1.4,2.2-3.1,4.9-4.6,7.4c0,0,0,0.1-0.1,0.1c-2.6,4.1-3.5,10.1-4.9,28.5c-0.1,2.1-1.2,4-2.7,5.3   C450.3,717.2,448.5,717.8,446.7,717.8z M459.6,649.8c0.6,0.8,1.3,1.5,1.8,2.5c0.3,0.4,0.5,0.9,0.6,1.3c1.8-1.5,3.5-2.7,5.2-3.7   h-7.6V649.8z M445.3,585.2l0.4,2.3l2.7,15.5l3.1-17.8c-0.3-1.4-1.3-2.7-3-2.7C447,582.4,445.5,583.7,445.3,585.2z"/>
</g>
<rect y="562.2" fill="#C32F1D" width="566.9" height="177.8"/>
<g>
	<path fill="#FFFFFF" d="M512.8,740.1l0.1-55c0-2.7,0-5.6,0-8.3l4-4v-39.8l-3.9-3.9c0-9.8,0-19.4,0-28.3c0.1-0.5,0-1-0.5-1.5   c-0.3-0.4-0.6-0.6-1.2-0.9c-3.9-2.1-13.8-3.1-21.7-2.1c-4.6,0.6-7.7,1.8-8.7,3.1c-0.3,0.4-0.5,0.6-0.5,1c0,9-0.1,18.6-0.1,28.5   l-4,4v8.4H455v-1.5l-3.1-2.3c0.3-0.3,0.3-0.8,0.3-1c0-1-0.5-2.1-1.3-2.8l7.9-45.6l0.5-3.1c0-5.9-4.6-11-10.7-11   c-5.9,0-11,4.9-11,11l0.5,3.1l7.9,45.6c-0.8,0.8-1.3,1.8-1.3,2.8c0,0.5,0.3,0.8,0.3,1l-3.1,2.3v1.5c-3.6,0-6.5,2.6-5.9,5.7   c0.3,3.1,3.6,5.7,7.4,5.7h7.1c7.1,1,5.4,8.4,4.4,11l-0.3,0.5c-0.3,0.3-0.3,0.5-0.3,0.5l0.8,0.4c-1.4,2.2-3.7,5.8-6.1,9.8   c-4.1,6.8-5.2,14.9-6.6,34.1l4.4,0.4c1.5-19.8,2.5-26.5,6.1-32.2c2.5-4,4.8-7.7,6.2-9.8l0.4,0.3c0.8-1,6.8-10.7,17.4-14.6v19.5l4,4   c1,0,0,0,0,63.5"/>
</g>
<g>
	<g>
		<path fill="#FFFFFF" d="M215.9,643.7l18.9-28.5h-10.6l-9.8,16.5l-1-16.5h-10.2l3.6,28.5C206.8,643.7,215.9,643.7,215.9,643.7z     M94.3,644.1c3.4,0,6.1-1.8,8-3.9l-0.8,3.2h9.9l7.5-28.3H109l-4,15c-0.8,3.2-2.5,5.2-5.3,5.2c-2.1,0-3.2-1.2-3.2-3    c0-0.6,0.1-1.5,0.4-2.3l4-14.9H91l-4.1,15.4c-0.5,1.8-0.8,3.6-0.8,5C86,640.7,89.1,644.1,94.3,644.1z M246,644.1    c9.6,0,16.7-7.9,16.7-16.5c0-7.5-5.3-13.2-13.9-13.2c-9.4,0-16.7,7.9-16.7,16.4C232.2,638.4,237.5,644.1,246,644.1z M248.3,622.8    c3,0,4.9,2.1,4.9,5.3c0,3.7-2.7,7.9-6.6,7.9c-3,0-4.9-2.1-4.9-5.3C241.8,626.9,244.3,622.8,248.3,622.8z M132.8,644.1    c4.9,0,8.7-1.7,11.6-4.3l-4.6-5.4c-2.2,1.5-4,2.2-6.1,2.2c-3.4,0-5-1.8-5.3-4.6h18.7c0.6-1.8,1-3.9,1-5.8c0-6.1-3.6-11.8-12-11.8    c-10.5,0-17,8.7-17,17C119.2,639.2,124.4,644.1,132.8,644.1z M135.6,621.9c2.6,0,3.9,1.7,3.9,3.6c0,0.5-0.1,1-0.3,1.5h-10.1    C130.3,623.6,132.9,621.9,135.6,621.9z M320.3,669.9c-18.7,0-30.3,15.5-30.3,30.5c0,13.7,9.2,22.5,24.1,22.5    c8.8,0,15.5-3.1,20.7-7.6l-8.3-9.7c-3.9,2.8-7.1,4-10.7,4c-6.1,0-9-3.2-9.4-8.3H340c1.2-3.2,1.9-7,1.9-10.3    C341.7,679.9,335.3,669.9,320.3,669.9z M325.4,692.1h-18.1c2.2-6.1,6.8-9.2,11.6-9.2c4.6,0,7,3,7,6.5    C326,690.3,325.8,691.2,325.4,692.1z M323.8,644.1c4.9,0,8.7-1.7,11.6-4.3l-4.6-5.4c-2.2,1.5-4,2.2-6.1,2.2c-3.4,0-5-1.8-5.3-4.6    h18.7c0.6-1.8,1.2-3.9,1.2-5.8c0-6.1-3.6-11.8-12-11.8c-10.5,0-17,8.7-17,17C310.3,639.2,315.4,644.1,323.8,644.1z M326.6,621.9    c2.6,0,3.9,1.7,3.9,3.6c0,0.5-0.1,1-0.3,1.5h-10.1C321.3,623.6,323.9,621.9,326.6,621.9z M385.1,656.1l-2.2,8l-4.3,36.2h9.3    l15.1-36.2l2.2-8C405.2,656.1,385.1,656.1,385.1,656.1z M295.2,643.5l2.3-8.5c1.8-6.7,5.3-9.8,10.7-9.8h0.8l2.8-10.5    c-4.6-0.3-7.9,2.2-10.6,6.2l1.5-5.7h-9.9l-7.6,28.3C285.3,643.5,295.2,643.5,295.2,643.5z M266.4,637.4c0,4.1,2.8,6.7,8.5,6.7    c2.1,0,4.1-0.4,5.8-1l2.2-8.3c-1.4,0.5-2.7,0.8-3.7,0.8c-1.5,0-2.2-0.6-2.2-1.8c0-0.4,0.1-1,0.3-1.7l2.5-8.9h6.6l2.2-8H282    l1.9-7.2H274l-1.9,7.2h-3.4l-2.2,8h3.4l-2.8,10.5C266.7,634.9,266.4,636.2,266.4,637.4z M368.4,721.6h18.5l4.3-15.9h-18.5    L368.4,721.6z M66.4,644.1c9.6,0,16.7-7.9,16.7-16.5c0-7.5-5.3-13.2-13.9-13.2c-9.4,0-16.7,7.9-16.7,16.4    C52.6,638.4,57.7,644.1,66.4,644.1z M68.7,622.8c3,0,4.9,2.1,4.9,5.3c0,3.7-2.7,7.9-6.6,7.9c-3,0-4.9-2.1-4.9-5.3    C62.1,626.9,64.7,622.8,68.7,622.8z M110.5,681.2l2.7-10.2H95.6L82,721.6h17.8l4.1-15.2c3.2-12,9.4-17.4,19.1-17.4h1.5l5-18.7    C121.4,669.5,115.5,673.9,110.5,681.2z M266.2,682.2c4.5,0,9.9,2.2,14.3,5.4l8.5-10.7c-4.5-3.7-12.7-7.1-21.8-7.1    c-13.9,0-22.1,7.9-22.1,18c0,8,6.2,11.6,14.2,14.7c4.9,1.9,7,3,7,4.8c0,1.8-1.5,3.1-4.5,3.1c-5.2,0-12-2.5-16.8-6.8l-8.8,10.3    c6.1,5.4,15.4,8.8,24.9,8.8c14.6,0,21.8-8.4,21.8-18.1c0-8.4-6.8-11.9-14.1-14.7c-5.3-2.1-7-3.1-7-4.8    C261.6,683.4,263.2,682.2,266.2,682.2z M157.2,669.9c-18.7,0-30.3,15.5-30.3,30.5c0,13.7,9.2,22.5,24.1,22.5    c8.8,0,15.5-3.1,20.7-7.6l-8.3-9.7c-3.9,2.8-7.1,4-10.7,4c-6.1,0-9-3.2-9.4-8.3h33.6c1.2-3.2,1.9-7,1.9-10.3    C178.7,679.9,172.1,669.9,157.2,669.9z M162.3,692.1h-18.1c2.2-6.1,6.8-9.2,11.6-9.2c4.6,0,7,3,7,6.5    C162.8,690.3,162.7,691.2,162.3,692.1z M152.8,623.1h12.4l-16.7,13.8l-1.8,6.6h26l2.1-7.9h-13l16.7-13.8l1.7-6.6H155L152.8,623.1z     M223.8,671l-7.2,26.7c-1.5,5.8-4.4,9.2-9.3,9.2c-3.7,0-5.7-1.9-5.7-5.3c0-1.2,0.3-2.8,0.6-4.1l7.1-26.5h-17.8l-7.4,27.5    c-0.9,3.2-1.4,6.3-1.4,9c0,9.3,5.6,15.1,14.7,15.1c5.9,0,11-3.2,14.5-7l-1.5,5.8h17.8l13.4-50.6h-17.8L223.8,671L223.8,671z     M50.4,634.5H32.9l7.5-27.8H30.2l-9.8,36.7H48L50.4,634.5z M68.7,666.4h18.5l3.6-13H72.3L68.7,666.4z M39.3,704.3    c0-0.8,0.1-1.8,0.5-3.1l4.3-15.9h11.8l3.9-14.3h-12l3.5-12.8H33.6L30.1,671h-5.9l-3.9,14.3h5.9l-5,18.7c-0.5,2.5-0.9,4.5-0.9,6.6    c0,7.5,5,12,15.4,12c3.6,0,7.2-0.6,10.5-1.8l3.9-14.7c-2.6,0.9-4.8,1.4-6.7,1.4C40.4,707.5,39.3,706.3,39.3,704.3z M67.8,671    l-13.6,50.6H72L85.6,671H67.8z"/>
	</g>
</g>
</svg>